<?xml version='1.0' encoding='UTF-8'?>
<!-- Created with Inkscape (http://www.inkscape.org/) and export_objects.py -->
<svg xmlns:cc="http://creativecommons.org/ns#" xmlns:dc="http://purl.org/dc/elements/1.1/" xmlns:inkscape="http://www.inkscape.org/namespaces/inkscape" xmlns:rdf="http://www.w3.org/1999/02/22-rdf-syntax-ns#" xmlns:sodipodi="http://sodipodi.sourceforge.net/DTD/sodipodi-0.dtd" xmlns:xlink="http://www.w3.org/1999/xlink" xmlns="http://www.w3.org/2000/svg" version="1.1" width="2.25in" height="3.5in" viewBox="0 0 57.15 88.9" id="svg8" sodipodi:docname="clover-03.svg" inkscape:version="0.92.3 (2405546, 2018-03-11)"><sodipodi:namedview id="base" pagecolor="#ffffff" bordercolor="#666666" borderopacity="1.0" inkscape:pageopacity="0.0" inkscape:pageshadow="2" inkscape:zoom="0.42916667" inkscape:cx="1600.029" inkscape:cy="840" inkscape:document-units="in" inkscape:current-layer="layer10" showgrid="false" units="in" inkscape:measure-start="96,426" inkscape:measure-end="132,426" inkscape:snap-bbox="false" inkscape:snap-nodes="true" inkscape:snap-others="true" inkscape:bbox-nodes="true" inkscape:snap-bbox-edge-midpoints="true" inkscape:snap-text-baseline="true" inkscape:snap-center="true" inkscape:snap-object-midpoints="true" showguides="true" inkscape:snap-smooth-nodes="false" inkscape:snap-bbox-midpoints="true" inkscape:window-width="1920" inkscape:window-height="986" inkscape:window-x="-11" inkscape:window-y="-11" inkscape:window-maximized="1" inkscape:object-nodes="true" inkscape:guide-bbox="true" inkscape:snap-intersection-paths="false" fit-margin-top="0" fit-margin-left="0" fit-margin-right="0" fit-margin-bottom="0">
    <inkscape:grid type="xygrid" id="grid10" units="pt" spacingx="0.79375002" spacingy="0.79375002" originx="-25.4" originy="-25.39999"/>
  </sodipodi:namedview>
  <metadata id="metadata5">
    <rdf:RDF>
      <cc:Work rdf:about="">
        <dc:format>image/svg+xml</dc:format>
        <dc:type rdf:resource="http://purl.org/dc/dcmitype/StillImage"/>
        <dc:title/>
      </cc:Work>
    </rdf:RDF>
  </metadata>
  <g inkscape:groupmode="layer" inkscape:label="clover-" transform="matrix(1.000000,0.000000,0.000000,1.000000,-342.900000,-88.899992)"><g transform="translate(-25.400002,254)" style="display:inline" id="g1715" inkscape:label="03">
      <rect y="-165.10001" x="368.30002" height="88.900002" width="57.150002" id="rect6951" style="display:inline;opacity:1;fill:#ffffff;fill-opacity:1;stroke:none;stroke-width:0.1763889;stroke-linecap:butt;stroke-linejoin:miter;stroke-miterlimit:38.37685394;stroke-dasharray:none;stroke-dashoffset:0;stroke-opacity:1;paint-order:markers fill stroke"/>
      <g id="text6985" style="font-style:normal;font-variant:normal;font-weight:normal;font-stretch:normal;font-size:11.28888988px;line-height:125%;font-family:Paddington;-inkscape-font-specification:'Paddington, Normal';font-variant-ligatures:normal;font-variant-caps:normal;font-variant-numeric:normal;font-feature-settings:normal;text-align:center;letter-spacing:0px;word-spacing:0px;writing-mode:lr-tb;text-anchor:middle;display:inline;fill:#002888;fill-opacity:1;stroke:none;stroke-width:0.26458335" aria-label="6">
        <path id="path8249" style="font-size:16.93333435px;fill:#002888;fill-opacity:1;stroke:none;stroke-width:0.26458335" d="m 378.46201,-155.80361 q 0,1.524 -1.10067,2.55693 -1.08373,1.016 -2.6924,1.016 -1.8288,0 -2.87866,-1.30386 -0.9652,-1.18534 -0.9652,-2.92947 0,-1.86267 1.03293,-3.82693 1.04987,-1.96427 2.62467,-3.06494 h 2.794 q -2.6416,1.3208 -3.99627,4.4704 0.74507,-0.33866 1.69333,-0.33866 1.49014,0 2.4892,1.016 0.99907,0.99906 0.99907,2.40453 z m -1.99813,0.11853 q 0,-0.69426 -0.49107,-1.2192 -0.49107,-0.54186 -1.13453,-0.54186 -1.27,0 -1.84574,0.72813 -0.16933,0.22013 -0.16933,0.8636 0,0.8128 0.6096,1.35467 0.6096,0.52493 1.40547,0.52493 0.6604,0 1.13453,-0.49107 0.49107,-0.508 0.49107,-1.2192 z" inkscape:connector-curvature="0"/>
      </g>
      <g id="text7025" style="font-style:normal;font-variant:normal;font-weight:normal;font-stretch:normal;font-size:11.28888988px;line-height:125%;font-family:Paddington;-inkscape-font-specification:'Paddington, Normal';font-variant-ligatures:normal;font-variant-caps:normal;font-variant-numeric:normal;font-feature-settings:normal;text-align:center;letter-spacing:0px;word-spacing:0px;writing-mode:lr-tb;text-anchor:middle;display:inline;fill:#002888;fill-opacity:1;stroke:none;stroke-width:0.26458335" aria-label="6">
        <path id="path8219" style="font-size:16.93333435px;fill:#002888;fill-opacity:1;stroke:none;stroke-width:0.26458335" d="m 423.70569,-97.066053 q 0,1.524 -1.10066,2.556934 -1.08374,1.016 -2.69241,1.016 -1.8288,0 -2.87866,-1.303867 -0.9652,-1.185334 -0.9652,-2.929467 0,-1.862667 1.03293,-3.826937 1.04987,-1.96426 2.62467,-3.06493 h 2.794 q -2.6416,1.3208 -3.99627,4.4704 0.74507,-0.33867 1.69334,-0.33867 1.49013,0 2.4892,1.016004 0.99906,0.999066 0.99906,2.404533 z m -1.99813,0.118533 q 0,-0.694266 -0.49107,-1.2192 -0.49106,-0.541866 -1.13453,-0.541866 -1.27,0 -1.84574,0.728133 -0.16933,0.220133 -0.16933,0.8636 0,0.8128 0.6096,1.354667 0.6096,0.524933 1.40547,0.524933 0.6604,0 1.13453,-0.491066 0.49107,-0.508001 0.49107,-1.219201 z" inkscape:connector-curvature="0"/>
      </g>
      <g id="text7065" style="font-style:normal;font-variant:normal;font-weight:normal;font-stretch:normal;font-size:33.8666687px;line-height:125%;font-family:Paddington;-inkscape-font-specification:'Paddington, Normal';font-variant-ligatures:normal;font-variant-caps:normal;font-variant-numeric:normal;font-feature-settings:normal;text-align:center;letter-spacing:0px;word-spacing:0px;writing-mode:lr-tb;text-anchor:middle;display:inline;fill:#002888;fill-opacity:1;stroke:none;stroke-width:0.26458335" aria-label="6">
        <path id="path8189" style="font-size:50.80000305px;fill:#002888;fill-opacity:1;stroke:none;stroke-width:0.26458335" d="m 408.31095,-137.21082 q 0,4.572 -3.302,7.6708 -3.2512,3.048 -8.0772,3.048 -5.4864,0 -8.636,-3.9116 -2.8956,-3.556 -2.8956,-8.7884 0,-5.588 3.0988,-11.4808 3.1496,-5.8928 7.874,-9.1948 h 8.382 q -7.9248,3.9624 -11.9888,13.4112 2.2352,-1.016 5.08,-1.016 4.4704,0 7.4676,3.048 2.9972,2.9972 2.9972,7.2136 z m -5.9944,0.3556 q 0,-2.0828 -1.4732,-3.6576 -1.4732,-1.6256 -3.4036,-1.6256 -3.81,0 -5.5372,2.1844 -0.508,0.6604 -0.508,2.5908 0,2.4384 1.8288,4.064 1.8288,1.5748 4.2164,1.5748 1.9812,0 3.4036,-1.4732 1.4732,-1.524 1.4732,-3.6576 z" inkscape:connector-curvature="0"/>
      </g>
      <path id="path7271" d="m 369.88752,-148.42531 c 0,-1.31958 1.06767,-2.38724 2.37526,-2.38724 1.31958,0 2.38724,1.06766 2.38724,2.38724 0,-1.31958 1.06767,-2.38724 2.37526,-2.38724 1.31958,0 2.38724,1.06766 2.38724,2.38724 0,1.30759 -1.06766,2.37526 -2.38724,2.37526 1.31958,0 2.38724,1.06766 2.38724,2.38724 0,1.30759 -1.06766,2.37526 -2.38724,2.37526 -1.30759,0 -2.37526,-1.06767 -2.37526,-2.37526 0,1.30759 -1.06766,2.37526 -2.38724,2.37526 -1.30759,0 -2.37526,-1.06767 -2.37526,-2.37526 0,-1.31958 1.06767,-2.38724 2.37526,-2.38724 -1.30759,0 -2.37526,-1.06767 -2.37526,-2.37526 z" style="display:inline;opacity:1;fill:#002888;fill-opacity:1;stroke:none;stroke-width:0.70555562;stroke-linecap:butt;stroke-linejoin:miter;stroke-miterlimit:4;stroke-dasharray:none;stroke-dashoffset:0;stroke-opacity:1;paint-order:fill markers stroke" inkscape:connector-curvature="0" sodipodi:nodetypes="sscsscsscsscs"/>
      <path sodipodi:nodetypes="sscsscsscsscs" inkscape:connector-curvature="0" style="display:inline;opacity:1;fill:#002888;fill-opacity:1;stroke:none;stroke-width:0.70555562;stroke-linecap:butt;stroke-linejoin:miter;stroke-miterlimit:4;stroke-dasharray:none;stroke-dashoffset:0;stroke-opacity:1;paint-order:fill markers stroke" d="m 415.13123,-89.687719 c 0,-1.31958 1.06767,-2.38724 2.37526,-2.38724 1.31958,0 2.38724,1.06766 2.38724,2.38724 0,-1.31958 1.06767,-2.38724 2.37526,-2.38724 1.31958,0 2.38724,1.06766 2.38724,2.38724 0,1.30759 -1.06766,2.37526 -2.38724,2.37526 1.31958,0 2.38724,1.06766 2.38724,2.38724 0,1.30759 -1.06766,2.37526 -2.38724,2.37526 -1.30759,0 -2.37526,-1.06767 -2.37526,-2.37526 0,1.30759 -1.06766,2.37526 -2.38724,2.37526 -1.30759,0 -2.37526,-1.06767 -2.37526,-2.37526 0,-1.31958 1.06767,-2.38724 2.37526,-2.38724 -1.30759,0 -2.37526,-1.06767 -2.37526,-2.37526 z" id="path7291"/>
      <path sodipodi:nodetypes="sscsscsscsscs" inkscape:connector-curvature="0" style="display:inline;opacity:1;fill:#002888;fill-opacity:1;stroke:none;stroke-width:0.70555562;stroke-linecap:butt;stroke-linejoin:miter;stroke-miterlimit:4;stroke-dasharray:none;stroke-dashoffset:0;stroke-opacity:1;paint-order:fill markers stroke" d="m 382.58751,-115.07591 c 0,-3.95874 3.20301,-7.16172 7.12578,-7.16172 3.95874,0 7.16172,3.20298 7.16172,7.16172 0,-3.95874 3.20301,-7.16172 7.12578,-7.16172 3.95874,0 7.16172,3.20298 7.16172,7.16172 0,3.92277 -3.20298,7.12578 -7.16172,7.12578 3.95874,0 7.16172,3.20298 7.16172,7.16172 0,3.922771 -3.20298,7.125781 -7.16172,7.125781 -3.92277,0 -7.12578,-3.20301 -7.12578,-7.125781 0,3.922771 -3.20298,7.125781 -7.16172,7.125781 -3.92277,0 -7.12578,-3.20301 -7.12578,-7.125781 0,-3.95874 3.20301,-7.16172 7.12578,-7.16172 -3.92277,0 -7.12578,-3.20301 -7.12578,-7.12578 z" id="path7311"/>
      <circle r="1.5875001" cy="-138.11255" cx="372.26877" id="circle7389" style="opacity:1;fill:#808080;fill-opacity:1;stroke:none;stroke-width:0.1763889;stroke-linecap:butt;stroke-linejoin:miter;stroke-miterlimit:38.37685394;stroke-dasharray:none;stroke-dashoffset:0;stroke-opacity:1;paint-order:markers fill stroke"/>
      <circle r="1.5875001" cy="-138.11255" cx="377.03128" id="circle7391" style="opacity:1;fill:#808080;fill-opacity:1;stroke:none;stroke-width:0.1763889;stroke-linecap:butt;stroke-linejoin:miter;stroke-miterlimit:38.37685394;stroke-dasharray:none;stroke-dashoffset:0;stroke-opacity:1;paint-order:markers fill stroke"/>
      <circle style="opacity:1;fill:#808080;fill-opacity:1;stroke:none;stroke-width:0.1763889;stroke-linecap:butt;stroke-linejoin:miter;stroke-miterlimit:38.37685394;stroke-dasharray:none;stroke-dashoffset:0;stroke-opacity:1;paint-order:markers fill stroke" id="circle7409" cx="417.51245" cy="-79.374992" r="1.5875001"/>
      <circle style="opacity:1;fill:#808080;fill-opacity:1;stroke:none;stroke-width:0.1763889;stroke-linecap:butt;stroke-linejoin:miter;stroke-miterlimit:38.37685394;stroke-dasharray:none;stroke-dashoffset:0;stroke-opacity:1;paint-order:markers fill stroke" id="circle7411" cx="422.27496" cy="-79.374992" r="1.5875001"/>
      <circle style="opacity:1;fill:#808080;fill-opacity:1;stroke:none;stroke-width:0.1763889;stroke-linecap:butt;stroke-linejoin:miter;stroke-miterlimit:38.37685394;stroke-dasharray:none;stroke-dashoffset:0;stroke-opacity:1;paint-order:markers fill stroke" id="circle7429" cx="389.73123" cy="-84.137642" r="4.7625003"/>
      <circle style="opacity:1;fill:#808080;fill-opacity:1;stroke:none;stroke-width:0.1763889;stroke-linecap:butt;stroke-linejoin:miter;stroke-miterlimit:38.37685394;stroke-dasharray:none;stroke-dashoffset:0;stroke-opacity:1;paint-order:markers fill stroke" id="circle7431" cx="404.01877" cy="-84.137642" r="4.7625003"/>
    </g>
    </g></svg>
