<?xml version='1.0' encoding='UTF-8'?>
<!-- Created with Inkscape (http://www.inkscape.org/) and export_objects.py -->
<svg xmlns:cc="http://creativecommons.org/ns#" xmlns:dc="http://purl.org/dc/elements/1.1/" xmlns:inkscape="http://www.inkscape.org/namespaces/inkscape" xmlns:rdf="http://www.w3.org/1999/02/22-rdf-syntax-ns#" xmlns:sodipodi="http://sodipodi.sourceforge.net/DTD/sodipodi-0.dtd" xmlns:xlink="http://www.w3.org/1999/xlink" xmlns="http://www.w3.org/2000/svg" version="1.1" width="2.25in" height="3.5in" viewBox="0 0 57.15 88.9" id="svg8" sodipodi:docname="clover-09.svg" inkscape:version="0.92.3 (2405546, 2018-03-11)"><sodipodi:namedview id="base" pagecolor="#ffffff" bordercolor="#666666" borderopacity="1.0" inkscape:pageopacity="0.0" inkscape:pageshadow="2" inkscape:zoom="0.42916667" inkscape:cx="1600.029" inkscape:cy="840" inkscape:document-units="in" inkscape:current-layer="layer10" showgrid="false" units="in" inkscape:measure-start="96,426" inkscape:measure-end="132,426" inkscape:snap-bbox="false" inkscape:snap-nodes="true" inkscape:snap-others="true" inkscape:bbox-nodes="true" inkscape:snap-bbox-edge-midpoints="true" inkscape:snap-text-baseline="true" inkscape:snap-center="true" inkscape:snap-object-midpoints="true" showguides="true" inkscape:snap-smooth-nodes="false" inkscape:snap-bbox-midpoints="true" inkscape:window-width="1920" inkscape:window-height="986" inkscape:window-x="-11" inkscape:window-y="-11" inkscape:window-maximized="1" inkscape:object-nodes="true" inkscape:guide-bbox="true" inkscape:snap-intersection-paths="false" fit-margin-top="0" fit-margin-left="0" fit-margin-right="0" fit-margin-bottom="0">
    <inkscape:grid type="xygrid" id="grid10" units="pt" spacingx="0.79375002" spacingy="0.79375002" originx="-25.4" originy="-25.39999"/>
  </sodipodi:namedview>
  <metadata id="metadata5">
    <rdf:RDF>
      <cc:Work rdf:about="">
        <dc:format>image/svg+xml</dc:format>
        <dc:type rdf:resource="http://purl.org/dc/dcmitype/StillImage"/>
        <dc:title/>
      </cc:Work>
    </rdf:RDF>
  </metadata>
  <g inkscape:groupmode="layer" inkscape:label="clover-" transform="matrix(1.000000,0.000000,0.000000,1.000000,0.000000,-88.899992)"><g transform="translate(-25.400002,254)" style="display:inline" id="g1965" inkscape:label="09">
      <rect style="display:inline;opacity:1;fill:#ffffff;fill-opacity:1;stroke:none;stroke-width:0.1763889;stroke-linecap:butt;stroke-linejoin:miter;stroke-miterlimit:38.37685394;stroke-dasharray:none;stroke-dashoffset:0;stroke-opacity:1;paint-order:markers fill stroke" id="rect6939" width="57.150002" height="88.900002" x="25.400002" y="-165.10001"/>
      <g id="text6961" style="font-style:normal;font-variant:normal;font-weight:normal;font-stretch:normal;font-size:11.28888988px;line-height:125%;font-family:Paddington;-inkscape-font-specification:'Paddington, Normal';font-variant-ligatures:normal;font-variant-caps:normal;font-variant-numeric:normal;font-feature-settings:normal;text-align:center;letter-spacing:0px;word-spacing:0px;writing-mode:lr-tb;text-anchor:middle;display:inline;fill:#002888;fill-opacity:1;stroke:none;stroke-width:0.26458335" aria-label="0">
        <path id="path8267" style="font-size:16.93333435px;fill:#002888;fill-opacity:1;stroke:none;stroke-width:0.26458335" d="m 35.443451,-157.88641 q 0,1.99813 -0.778933,3.556 -1.016,2.01507 -2.9464,2.01507 -1.913467,0 -2.929467,-2.01507 -0.778934,-1.55787 -0.778934,-3.556 0,-1.99813 0.778934,-3.556 1.016,-2.01507 2.929467,-2.01507 1.947333,0 2.9464,1.99814 0.778933,1.55786 0.778933,3.57293 z m -1.896533,0 q 0,-1.23613 -0.3556,-2.3368 -0.491067,-1.524 -1.439334,-1.524 -0.592666,0 -1.0668,0.8128 -0.389466,0.64347 -0.5588,1.50707 -0.1524,0.762 -0.1524,1.54093 0,1.27 0.338667,2.3368 0.474133,1.50707 1.439333,1.50707 0.982134,0 1.456267,-1.50707 0.338667,-1.0668 0.338667,-2.3368 z" inkscape:connector-curvature="0"/>
      </g>
      <g id="text7001" style="font-style:normal;font-variant:normal;font-weight:normal;font-stretch:normal;font-size:11.28888988px;line-height:125%;font-family:Paddington;-inkscape-font-specification:'Paddington, Normal';font-variant-ligatures:normal;font-variant-caps:normal;font-variant-numeric:normal;font-feature-settings:normal;text-align:center;letter-spacing:0px;word-spacing:0px;writing-mode:lr-tb;text-anchor:middle;display:inline;fill:#002888;fill-opacity:1;stroke:none;stroke-width:0.26458335" aria-label="0">
        <path id="path8237" style="font-size:16.93333435px;fill:#002888;fill-opacity:1;stroke:none;stroke-width:0.26458335" d="m 80.687172,-99.148853 q 0,1.998133 -0.778933,3.556 -1.016,2.015067 -2.9464,2.015067 -1.913467,0 -2.929467,-2.015067 -0.778934,-1.557867 -0.778934,-3.556 0,-1.998137 0.778934,-3.555997 1.016,-2.01507 2.929467,-2.01507 1.947333,0 2.9464,1.99813 0.778933,1.55787 0.778933,3.572937 z m -1.896533,0 q 0,-1.236137 -0.3556,-2.336797 -0.491067,-1.524 -1.439334,-1.524 -0.592666,0 -1.0668,0.8128 -0.389466,0.64346 -0.5588,1.50706 -0.1524,0.762004 -0.1524,1.540937 0,1.27 0.338667,2.3368 0.474133,1.507067 1.439333,1.507067 0.982134,0 1.456267,-1.507067 0.338667,-1.0668 0.338667,-2.3368 z" inkscape:connector-curvature="0"/>
      </g>
      <g id="text7041" style="font-style:normal;font-variant:normal;font-weight:normal;font-stretch:normal;font-size:33.8666687px;line-height:125%;font-family:Paddington;-inkscape-font-specification:'Paddington, Normal';font-variant-ligatures:normal;font-variant-caps:normal;font-variant-numeric:normal;font-feature-settings:normal;text-align:center;letter-spacing:0px;word-spacing:0px;writing-mode:lr-tb;text-anchor:middle;display:inline;fill:#002888;fill-opacity:1;stroke:none;stroke-width:0.26458335" aria-label="0">
        <path id="path8207" style="font-size:50.80000305px;fill:#002888;fill-opacity:1;stroke:none;stroke-width:0.26458335" d="m 65.055356,-143.45922 q 0,5.9944 -2.3368,10.668 -3.048,6.0452 -8.839201,6.0452 -5.7404,0 -8.7884,-6.0452 -2.3368,-4.6736 -2.3368,-10.668 0,-5.9944 2.3368,-10.668 3.048,-6.0452 8.7884,-6.0452 5.842001,0 8.839201,5.9944 2.3368,4.6736 2.3368,10.7188 z m -5.6896,0 q 0,-3.7084 -1.0668,-7.0104 -1.4732,-4.572 -4.318001,-4.572 -1.778,0 -3.2004,2.4384 -1.1684,1.9304 -1.6764,4.5212 -0.4572,2.286 -0.4572,4.6228 0,3.81 1.016,7.0104 1.4224,4.5212 4.318,4.5212 2.946401,0 4.368801,-4.5212 1.016,-3.2004 1.016,-7.0104 z" inkscape:connector-curvature="0"/>
      </g>
      <path sodipodi:nodetypes="sscsscsscsscs" inkscape:connector-curvature="0" style="display:inline;opacity:1;fill:#002888;fill-opacity:1;stroke:none;stroke-width:0.70555562;stroke-linecap:butt;stroke-linejoin:miter;stroke-miterlimit:4;stroke-dasharray:none;stroke-dashoffset:0;stroke-opacity:1;paint-order:fill markers stroke" d="m 26.9875,-148.42528 c 0,-1.31958 1.067665,-2.38724 2.375253,-2.38724 1.319584,0 2.387247,1.06766 2.387247,2.38724 0,-1.31958 1.067663,-2.38724 2.375251,-2.38724 1.319584,0 2.387247,1.06766 2.387247,2.38724 0,1.30759 -1.067663,2.37526 -2.387247,2.37526 1.319584,0 2.387247,1.06766 2.387247,2.38724 0,1.30759 -1.067663,2.37526 -2.387247,2.37526 -1.307588,0 -2.375251,-1.06767 -2.375251,-2.37526 0,1.30759 -1.067663,2.37526 -2.387247,2.37526 -1.307588,0 -2.375253,-1.06767 -2.375253,-2.37526 0,-1.31958 1.067665,-2.38724 2.375253,-2.38724 -1.307588,0 -2.375253,-1.06767 -2.375253,-2.37526 z" id="path7259"/>
      <path id="path7279" d="m 72.231221,-89.687689 c 0,-1.31958 1.067665,-2.38724 2.375253,-2.38724 1.319584,0 2.387247,1.06766 2.387247,2.38724 0,-1.31958 1.067663,-2.38724 2.375251,-2.38724 1.319584,0 2.387247,1.06766 2.387247,2.38724 0,1.30759 -1.067663,2.37526 -2.387247,2.37526 1.319584,0 2.387247,1.06766 2.387247,2.38724 0,1.30759 -1.067663,2.37526 -2.387247,2.37526 -1.307588,0 -2.375251,-1.06767 -2.375251,-2.37526 0,1.30759 -1.067663,2.37526 -2.387247,2.37526 -1.307588,0 -2.375253,-1.06767 -2.375253,-2.37526 0,-1.31958 1.067665,-2.38724 2.375253,-2.38724 -1.307588,0 -2.375253,-1.06767 -2.375253,-2.37526 z" style="display:inline;opacity:1;fill:#002888;fill-opacity:1;stroke:none;stroke-width:0.70555562;stroke-linecap:butt;stroke-linejoin:miter;stroke-miterlimit:4;stroke-dasharray:none;stroke-dashoffset:0;stroke-opacity:1;paint-order:fill markers stroke" inkscape:connector-curvature="0" sodipodi:nodetypes="sscsscsscsscs"/>
      <path id="path7299" d="m 39.687506,-115.0758 c 0,-3.95874 3.202995,-7.16172 7.125759,-7.16172 3.958752,0 7.161741,3.20298 7.161741,7.16172 0,-3.95874 3.202989,-7.16172 7.125753,-7.16172 3.958752,0 7.161741,3.20298 7.161741,7.16172 0,3.92277 -3.202989,7.12578 -7.161741,7.12578 3.958752,0 7.161741,3.20298 7.161741,7.16172 0,3.922771 -3.202989,7.125781 -7.161741,7.125781 -3.922764,0 -7.125753,-3.20301 -7.125753,-7.125781 0,3.922771 -3.202989,7.125781 -7.161741,7.125781 -3.922764,0 -7.125759,-3.20301 -7.125759,-7.125781 0,-3.95874 3.202995,-7.16172 7.125759,-7.16172 -3.922764,0 -7.125759,-3.20301 -7.125759,-7.12578 z" style="display:inline;opacity:1;fill:#002888;fill-opacity:1;stroke:none;stroke-width:0.70555562;stroke-linecap:butt;stroke-linejoin:miter;stroke-miterlimit:4;stroke-dasharray:none;stroke-dashoffset:0;stroke-opacity:1;paint-order:fill markers stroke" inkscape:connector-curvature="0" sodipodi:nodetypes="sscsscsscsscs"/>
      <circle r="1.5875001" cy="-138.1125" cx="31.75" id="circle7379" style="opacity:1;fill:#808080;fill-opacity:1;stroke:none;stroke-width:0.1763889;stroke-linecap:butt;stroke-linejoin:miter;stroke-miterlimit:38.37685394;stroke-dasharray:none;stroke-dashoffset:0;stroke-opacity:1;paint-order:markers fill stroke"/>
      <circle style="opacity:1;fill:#808080;fill-opacity:1;stroke:none;stroke-width:0.1763889;stroke-linecap:butt;stroke-linejoin:miter;stroke-miterlimit:38.37685394;stroke-dasharray:none;stroke-dashoffset:0;stroke-opacity:1;paint-order:markers fill stroke" id="circle7399" cx="76.993721" cy="-79.374947" r="1.5875001"/>
      <circle style="opacity:1;fill:#808080;fill-opacity:1;stroke:none;stroke-width:0.1763889;stroke-linecap:butt;stroke-linejoin:miter;stroke-miterlimit:38.37685394;stroke-dasharray:none;stroke-dashoffset:0;stroke-opacity:1;paint-order:markers fill stroke" id="circle7419" cx="53.975002" cy="-84.137505" r="4.7625003"/>
    </g>
    </g></svg>
