<?xml version='1.0' encoding='UTF-8'?>
<!-- Created with Inkscape (http://www.inkscape.org/) and export_objects.py -->
<svg xmlns:cc="http://creativecommons.org/ns#" xmlns:dc="http://purl.org/dc/elements/1.1/" xmlns:inkscape="http://www.inkscape.org/namespaces/inkscape" xmlns:rdf="http://www.w3.org/1999/02/22-rdf-syntax-ns#" xmlns:sodipodi="http://sodipodi.sourceforge.net/DTD/sodipodi-0.dtd" xmlns:xlink="http://www.w3.org/1999/xlink" xmlns="http://www.w3.org/2000/svg" version="1.1" width="2.25in" height="3.5in" viewBox="0 0 57.15 88.9" id="svg8" sodipodi:docname="clover-04.svg" inkscape:version="0.92.3 (2405546, 2018-03-11)"><sodipodi:namedview id="base" pagecolor="#ffffff" bordercolor="#666666" borderopacity="1.0" inkscape:pageopacity="0.0" inkscape:pageshadow="2" inkscape:zoom="0.42916667" inkscape:cx="1600.029" inkscape:cy="840" inkscape:document-units="in" inkscape:current-layer="layer10" showgrid="false" units="in" inkscape:measure-start="96,426" inkscape:measure-end="132,426" inkscape:snap-bbox="false" inkscape:snap-nodes="true" inkscape:snap-others="true" inkscape:bbox-nodes="true" inkscape:snap-bbox-edge-midpoints="true" inkscape:snap-text-baseline="true" inkscape:snap-center="true" inkscape:snap-object-midpoints="true" showguides="true" inkscape:snap-smooth-nodes="false" inkscape:snap-bbox-midpoints="true" inkscape:window-width="1920" inkscape:window-height="986" inkscape:window-x="-11" inkscape:window-y="-11" inkscape:window-maximized="1" inkscape:object-nodes="true" inkscape:guide-bbox="true" inkscape:snap-intersection-paths="false" fit-margin-top="0" fit-margin-left="0" fit-margin-right="0" fit-margin-bottom="0">
    <inkscape:grid type="xygrid" id="grid10" units="pt" spacingx="0.79375002" spacingy="0.79375002" originx="-25.4" originy="-25.39999"/>
  </sodipodi:namedview>
  <metadata id="metadata5">
    <rdf:RDF>
      <cc:Work rdf:about="">
        <dc:format>image/svg+xml</dc:format>
        <dc:type rdf:resource="http://purl.org/dc/dcmitype/StillImage"/>
        <dc:title/>
      </cc:Work>
    </rdf:RDF>
  </metadata>
  <g inkscape:groupmode="layer" inkscape:label="clover-" transform="matrix(1.000000,0.000000,0.000000,1.000000,-285.750026,-88.899992)"><g transform="translate(-25.400002,254)" style="display:inline" id="g1757" inkscape:label="04">
      <rect y="-165.10001" x="311.15002" height="88.900002" width="57.150002" id="rect6949" style="display:inline;opacity:1;fill:#ffffff;fill-opacity:1;stroke:none;stroke-width:0.1763889;stroke-linecap:butt;stroke-linejoin:miter;stroke-miterlimit:38.37685394;stroke-dasharray:none;stroke-dashoffset:0;stroke-opacity:1;paint-order:markers fill stroke"/>
      <g id="text6981" style="font-style:normal;font-variant:normal;font-weight:normal;font-stretch:normal;font-size:11.28888988px;line-height:125%;font-family:Paddington;-inkscape-font-specification:'Paddington, Normal';font-variant-ligatures:normal;font-variant-caps:normal;font-variant-numeric:normal;font-feature-settings:normal;text-align:center;letter-spacing:0px;word-spacing:0px;writing-mode:lr-tb;text-anchor:middle;display:inline;fill:#002888;fill-opacity:1;stroke:none;stroke-width:0.26458335" aria-label="5">
        <path id="path8252" style="font-size:16.93333435px;fill:#002888;fill-opacity:1;stroke:none;stroke-width:0.26458335" d="m 320.91855,-163.33894 -0.82973,1.6764 h -2.98027 l -0.23707,1.99813 q 1.74414,0.0847 2.86174,1.04987 1.1684,1.03293 1.1684,2.6924 0,1.59173 -1.13454,2.6416 -1.13453,1.03293 -2.82786,1.03293 -1.6764,0 -2.92947,-1.65947 l 1.15147,-1.4732 h 0.1016 q 0.77893,1.33774 1.86266,1.33774 0.67734,0 1.18534,-0.54187 0.52493,-0.5588 0.52493,-1.30387 0,-0.88053 -0.74507,-1.4732 -0.67733,-0.54186 -1.5748,-0.54186 -0.57573,0 -1.89653,0.38946 l 0.72813,-5.82506 z" inkscape:connector-curvature="0"/>
      </g>
      <g id="text7021" style="font-style:normal;font-variant:normal;font-weight:normal;font-stretch:normal;font-size:11.28888988px;line-height:125%;font-family:Paddington;-inkscape-font-specification:'Paddington, Normal';font-variant-ligatures:normal;font-variant-caps:normal;font-variant-numeric:normal;font-feature-settings:normal;text-align:center;letter-spacing:0px;word-spacing:0px;writing-mode:lr-tb;text-anchor:middle;display:inline;fill:#002888;fill-opacity:1;stroke:none;stroke-width:0.26458335" aria-label="5">
        <path id="path8222" style="font-size:16.93333435px;fill:#002888;fill-opacity:1;stroke:none;stroke-width:0.26458335" d="m 366.16223,-104.60139 -0.82973,1.6764 h -2.98027 l -0.23706,1.99814 q 1.74413,0.0847 2.86173,1.049864 1.1684,1.032933 1.1684,2.6924 0,1.591733 -1.13453,2.6416 -1.13454,1.032933 -2.82787,1.032933 -1.6764,0 -2.92947,-1.659466 l 1.15147,-1.473201 h 0.1016 q 0.77893,1.337734 1.86267,1.337734 0.67733,0 1.18533,-0.541867 0.52493,-0.5588 0.52493,-1.303867 0,-0.880533 -0.74506,-1.4732 -0.67734,-0.541866 -1.5748,-0.541866 -0.57574,0 -1.89654,0.389466 l 0.72814,-5.82507 z" inkscape:connector-curvature="0"/>
      </g>
      <g id="text7061" style="font-style:normal;font-variant:normal;font-weight:normal;font-stretch:normal;font-size:33.8666687px;line-height:125%;font-family:Paddington;-inkscape-font-specification:'Paddington, Normal';font-variant-ligatures:normal;font-variant-caps:normal;font-variant-numeric:normal;font-feature-settings:normal;text-align:center;letter-spacing:0px;word-spacing:0px;writing-mode:lr-tb;text-anchor:middle;display:inline;fill:#002888;fill-opacity:1;stroke:none;stroke-width:0.26458335" aria-label="5">
        <path id="path8192" style="font-size:50.80000305px;fill:#002888;fill-opacity:1;stroke:none;stroke-width:0.26458335" d="m 349.98065,-159.81682 -2.4892,5.0292 h -8.9408 l -0.7112,5.9944 q 5.2324,0.254 8.5852,3.1496 3.5052,3.0988 3.5052,8.0772 0,4.7752 -3.4036,7.9248 -3.4036,3.0988 -8.4836,3.0988 -5.0292,0 -8.7884,-4.9784 l 3.4544,-4.4196 h 0.3048 q 2.3368,4.0132 5.588,4.0132 2.032,0 3.556,-1.6256 1.5748,-1.6764 1.5748,-3.9116 0,-2.6416 -2.2352,-4.4196 -2.032,-1.6256 -4.7244,-1.6256 -1.7272,0 -5.6896,1.1684 l 2.1844,-17.4752 z" inkscape:connector-curvature="0"/>
      </g>
      <path id="path7269" d="m 312.73751,-148.42531 c 0,-1.31958 1.06766,-2.38724 2.37525,-2.38724 1.31958,0 2.38724,1.06766 2.38724,2.38724 0,-1.31958 1.06767,-2.38724 2.37525,-2.38724 1.31959,0 2.38725,1.06766 2.38725,2.38724 0,1.30759 -1.06766,2.37526 -2.38725,2.37526 1.31959,0 2.38725,1.06766 2.38725,2.38724 0,1.30759 -1.06766,2.37526 -2.38725,2.37526 -1.30758,0 -2.37525,-1.06767 -2.37525,-2.37526 0,1.30759 -1.06766,2.37526 -2.38724,2.37526 -1.30759,0 -2.37525,-1.06767 -2.37525,-2.37526 0,-1.31958 1.06766,-2.38724 2.37525,-2.38724 -1.30759,0 -2.37525,-1.06767 -2.37525,-2.37526 z" style="display:inline;opacity:1;fill:#002888;fill-opacity:1;stroke:none;stroke-width:0.70555562;stroke-linecap:butt;stroke-linejoin:miter;stroke-miterlimit:4;stroke-dasharray:none;stroke-dashoffset:0;stroke-opacity:1;paint-order:fill markers stroke" inkscape:connector-curvature="0" sodipodi:nodetypes="sscsscsscsscs"/>
      <path sodipodi:nodetypes="sscsscsscsscs" inkscape:connector-curvature="0" style="display:inline;opacity:1;fill:#002888;fill-opacity:1;stroke:none;stroke-width:0.70555562;stroke-linecap:butt;stroke-linejoin:miter;stroke-miterlimit:4;stroke-dasharray:none;stroke-dashoffset:0;stroke-opacity:1;paint-order:fill markers stroke" d="m 357.98122,-89.687719 c 0,-1.31958 1.06766,-2.38724 2.37525,-2.38724 1.31958,0 2.38724,1.06766 2.38724,2.38724 0,-1.31958 1.06767,-2.38724 2.37525,-2.38724 1.31959,0 2.38725,1.06766 2.38725,2.38724 0,1.30759 -1.06766,2.37526 -2.38725,2.37526 1.31959,0 2.38725,1.06766 2.38725,2.38724 0,1.30759 -1.06766,2.37526 -2.38725,2.37526 -1.30758,0 -2.37525,-1.06767 -2.37525,-2.37526 0,1.30759 -1.06766,2.37526 -2.38724,2.37526 -1.30759,0 -2.37525,-1.06767 -2.37525,-2.37526 0,-1.31958 1.06766,-2.38724 2.37525,-2.38724 -1.30759,0 -2.37525,-1.06767 -2.37525,-2.37526 z" id="path7289"/>
      <path sodipodi:nodetypes="sscsscsscsscs" inkscape:connector-curvature="0" style="display:inline;opacity:1;fill:#002888;fill-opacity:1;stroke:none;stroke-width:0.70555562;stroke-linecap:butt;stroke-linejoin:miter;stroke-miterlimit:4;stroke-dasharray:none;stroke-dashoffset:0;stroke-opacity:1;paint-order:fill markers stroke" d="m 325.43758,-115.07593 c 0,-3.95874 3.20298,-7.16172 7.12575,-7.16172 3.95874,0 7.16172,3.20298 7.16172,7.16172 0,-3.95874 3.20301,-7.16172 7.12575,-7.16172 3.95877,0 7.16175,3.20298 7.16175,7.16172 0,3.92277 -3.20298,7.12578 -7.16175,7.12578 3.95877,0 7.16175,3.20298 7.16175,7.16172 0,3.922771 -3.20298,7.125781 -7.16175,7.125781 -3.92274,0 -7.12575,-3.20301 -7.12575,-7.125781 0,3.922771 -3.20298,7.125781 -7.16172,7.125781 -3.92277,0 -7.12575,-3.20301 -7.12575,-7.125781 0,-3.95874 3.20298,-7.16172 7.12575,-7.16172 -3.92277,0 -7.12575,-3.20301 -7.12575,-7.12578 z" id="path7309"/>
      <circle style="opacity:1;fill:#808080;fill-opacity:1;stroke:none;stroke-width:0.1763889;stroke-linecap:butt;stroke-linejoin:miter;stroke-miterlimit:38.37685394;stroke-dasharray:none;stroke-dashoffset:0;stroke-opacity:1;paint-order:markers fill stroke" id="circle7387" cx="317.5" cy="-138.11255" r="1.5875001"/>
      <circle r="1.5875001" cy="-79.374992" cx="362.74368" id="circle7407" style="opacity:1;fill:#808080;fill-opacity:1;stroke:none;stroke-width:0.1763889;stroke-linecap:butt;stroke-linejoin:miter;stroke-miterlimit:38.37685394;stroke-dasharray:none;stroke-dashoffset:0;stroke-opacity:1;paint-order:markers fill stroke"/>
      <circle r="4.7625003" cy="-84.137642" cx="339.72501" id="circle7427" style="opacity:1;fill:#808080;fill-opacity:1;stroke:none;stroke-width:0.1763889;stroke-linecap:butt;stroke-linejoin:miter;stroke-miterlimit:38.37685394;stroke-dasharray:none;stroke-dashoffset:0;stroke-opacity:1;paint-order:markers fill stroke"/>
    </g>
    </g></svg>
