<?xml version='1.0' encoding='UTF-8'?>
<!-- Created with Inkscape (http://www.inkscape.org/) and export_objects.py -->
<svg xmlns:cc="http://creativecommons.org/ns#" xmlns:dc="http://purl.org/dc/elements/1.1/" xmlns:inkscape="http://www.inkscape.org/namespaces/inkscape" xmlns:rdf="http://www.w3.org/1999/02/22-rdf-syntax-ns#" xmlns:sodipodi="http://sodipodi.sourceforge.net/DTD/sodipodi-0.dtd" xmlns:xlink="http://www.w3.org/1999/xlink" xmlns="http://www.w3.org/2000/svg" version="1.1" width="2.25in" height="3.5in" viewBox="0 0 57.15 88.9" id="svg8" sodipodi:docname="clover-07.svg" inkscape:version="0.92.3 (2405546, 2018-03-11)"><sodipodi:namedview id="base" pagecolor="#ffffff" bordercolor="#666666" borderopacity="1.0" inkscape:pageopacity="0.0" inkscape:pageshadow="2" inkscape:zoom="0.42916667" inkscape:cx="1600.029" inkscape:cy="840" inkscape:document-units="in" inkscape:current-layer="layer10" showgrid="false" units="in" inkscape:measure-start="96,426" inkscape:measure-end="132,426" inkscape:snap-bbox="false" inkscape:snap-nodes="true" inkscape:snap-others="true" inkscape:bbox-nodes="true" inkscape:snap-bbox-edge-midpoints="true" inkscape:snap-text-baseline="true" inkscape:snap-center="true" inkscape:snap-object-midpoints="true" showguides="true" inkscape:snap-smooth-nodes="false" inkscape:snap-bbox-midpoints="true" inkscape:window-width="1920" inkscape:window-height="986" inkscape:window-x="-11" inkscape:window-y="-11" inkscape:window-maximized="1" inkscape:object-nodes="true" inkscape:guide-bbox="true" inkscape:snap-intersection-paths="false" fit-margin-top="0" fit-margin-left="0" fit-margin-right="0" fit-margin-bottom="0">
    <inkscape:grid type="xygrid" id="grid10" units="pt" spacingx="0.79375002" spacingy="0.79375002" originx="-25.4" originy="-25.39999"/>
  </sodipodi:namedview>
  <metadata id="metadata5">
    <rdf:RDF>
      <cc:Work rdf:about="">
        <dc:format>image/svg+xml</dc:format>
        <dc:type rdf:resource="http://purl.org/dc/dcmitype/StillImage"/>
        <dc:title/>
      </cc:Work>
    </rdf:RDF>
  </metadata>
  <g inkscape:groupmode="layer" inkscape:label="clover-" transform="matrix(1.000000,0.000000,0.000000,1.000000,-114.299995,-88.899992)"><g transform="translate(-25.400002,254)" style="display:inline" id="g1874" inkscape:label="07">
      <rect y="-165.10001" x="139.7" height="88.900002" width="57.150002" id="rect6943" style="display:inline;opacity:1;fill:#ffffff;fill-opacity:1;stroke:none;stroke-width:0.1763889;stroke-linecap:butt;stroke-linejoin:miter;stroke-miterlimit:38.37685394;stroke-dasharray:none;stroke-dashoffset:0;stroke-opacity:1;paint-order:markers fill stroke"/>
      <g id="text6969" style="font-style:normal;font-variant:normal;font-weight:normal;font-stretch:normal;font-size:11.28888988px;line-height:125%;font-family:Paddington;-inkscape-font-specification:'Paddington, Normal';font-variant-ligatures:normal;font-variant-caps:normal;font-variant-numeric:normal;font-feature-settings:normal;text-align:center;letter-spacing:0px;word-spacing:0px;writing-mode:lr-tb;text-anchor:middle;display:inline;fill:#002888;fill-opacity:1;stroke:none;stroke-width:0.26458335" aria-label="2">
        <path id="path8261" style="font-size:16.93333435px;fill:#002888;fill-opacity:1;stroke:none;stroke-width:0.26458335" d="m 149.66117,-152.40001 h -7.19667 l 4.03014,-6.1976 q 0.23706,-0.37253 0.4572,-0.98213 0.22013,-0.62654 0.22013,-1.016 0,-0.508 -0.42333,-0.82974 -0.4064,-0.32173 -0.93134,-0.32173 -1.59173,0 -3.06493,1.99813 h -0.0847 v -2.65853 q 1.59174,-1.18533 3.1496,-1.18533 1.59174,0 2.50614,0.82973 0.93133,0.82973 0.93133,2.3368 0,1.28693 -1.30387,3.31893 -1.04986,1.54094 -2.09973,3.06494 h 3.81 z" inkscape:connector-curvature="0"/>
      </g>
      <g id="text7009" style="font-style:normal;font-variant:normal;font-weight:normal;font-stretch:normal;font-size:11.28888988px;line-height:125%;font-family:Paddington;-inkscape-font-specification:'Paddington, Normal';font-variant-ligatures:normal;font-variant-caps:normal;font-variant-numeric:normal;font-feature-settings:normal;text-align:center;letter-spacing:0px;word-spacing:0px;writing-mode:lr-tb;text-anchor:middle;display:inline;fill:#002888;fill-opacity:1;stroke:none;stroke-width:0.26458335" aria-label="2">
        <path id="path8231" style="font-size:16.93333435px;fill:#002888;fill-opacity:1;stroke:none;stroke-width:0.26458335" d="m 194.9049,-93.662453 h -7.19667 l 4.03013,-6.1976 q 0.23707,-0.372537 0.4572,-0.982137 0.22014,-0.62653 0.22014,-1.016 0,-0.508 -0.42334,-0.82973 -0.4064,-0.32173 -0.93133,-0.32173 -1.59173,0 -3.06493,1.99813 h -0.0847 v -2.65853 q 1.59173,-1.18534 3.1496,-1.18534 1.59173,0 2.50613,0.82974 0.93134,0.82973 0.93134,2.3368 0,1.28693 -1.30387,3.31893 -1.04987,1.540934 -2.09973,3.064934 h 3.81 z" inkscape:connector-curvature="0"/>
      </g>
      <g id="text7049" style="font-style:normal;font-variant:normal;font-weight:normal;font-stretch:normal;font-size:33.8666687px;line-height:125%;font-family:Paddington;-inkscape-font-specification:'Paddington, Normal';font-variant-ligatures:normal;font-variant-caps:normal;font-variant-numeric:normal;font-feature-settings:normal;text-align:center;letter-spacing:0px;word-spacing:0px;writing-mode:lr-tb;text-anchor:middle;display:inline;fill:#002888;fill-opacity:1;stroke:none;stroke-width:0.26458335" aria-label="2">
        <path id="path8201" style="font-size:50.80000305px;fill:#002888;fill-opacity:1;stroke:none;stroke-width:0.26458335" d="m 179.10851,-127.00002 h -21.59 l 12.0904,-18.5928 q 0.7112,-1.1176 1.3716,-2.9464 0.6604,-1.8796 0.6604,-3.048 0,-1.524 -1.27,-2.4892 -1.2192,-0.9652 -2.794,-0.9652 -4.7752,0 -9.1948,5.9944 h -0.254 v -7.9756 q 4.7752,-3.556 9.4488,-3.556 4.7752,0 7.5184,2.4892 2.794,2.4892 2.794,7.0104 0,3.8608 -3.9116,9.9568 -3.1496,4.6228 -6.2992,9.1948 h 11.43 z" inkscape:connector-curvature="0"/>
      </g>
      <path id="path7263" d="m 141.2875,-148.42529 c 0,-1.31958 1.06767,-2.38724 2.37526,-2.38724 1.31958,0 2.38724,1.06766 2.38724,2.38724 0,-1.31958 1.06767,-2.38724 2.37526,-2.38724 1.31958,0 2.38724,1.06766 2.38724,2.38724 0,1.30759 -1.06766,2.37526 -2.38724,2.37526 1.31958,0 2.38724,1.06766 2.38724,2.38724 0,1.30759 -1.06766,2.37526 -2.38724,2.37526 -1.30759,0 -2.37526,-1.06767 -2.37526,-2.37526 0,1.30759 -1.06766,2.37526 -2.38724,2.37526 -1.30759,0 -2.37526,-1.06767 -2.37526,-2.37526 0,-1.31958 1.06767,-2.38724 2.37526,-2.38724 -1.30759,0 -2.37526,-1.06767 -2.37526,-2.37526 z" style="display:inline;opacity:1;fill:#002888;fill-opacity:1;stroke:none;stroke-width:0.70555562;stroke-linecap:butt;stroke-linejoin:miter;stroke-miterlimit:4;stroke-dasharray:none;stroke-dashoffset:0;stroke-opacity:1;paint-order:fill markers stroke" inkscape:connector-curvature="0" sodipodi:nodetypes="sscsscsscsscs"/>
      <path sodipodi:nodetypes="sscsscsscsscs" inkscape:connector-curvature="0" style="display:inline;opacity:1;fill:#002888;fill-opacity:1;stroke:none;stroke-width:0.70555562;stroke-linecap:butt;stroke-linejoin:miter;stroke-miterlimit:4;stroke-dasharray:none;stroke-dashoffset:0;stroke-opacity:1;paint-order:fill markers stroke" d="m 186.53121,-89.687699 c 0,-1.31958 1.06767,-2.38724 2.37526,-2.38724 1.31958,0 2.38724,1.06766 2.38724,2.38724 0,-1.31958 1.06767,-2.38724 2.37526,-2.38724 1.31958,0 2.38724,1.06766 2.38724,2.38724 0,1.30759 -1.06766,2.37526 -2.38724,2.37526 1.31958,0 2.38724,1.06766 2.38724,2.38724 0,1.30759 -1.06766,2.37526 -2.38724,2.37526 -1.30759,0 -2.37526,-1.06767 -2.37526,-2.37526 0,1.30759 -1.06766,2.37526 -2.38724,2.37526 -1.30759,0 -2.37526,-1.06767 -2.37526,-2.37526 0,-1.31958 1.06767,-2.38724 2.37526,-2.38724 -1.30759,0 -2.37526,-1.06767 -2.37526,-2.37526 z" id="path7283"/>
      <path sodipodi:nodetypes="sscsscsscsscs" inkscape:connector-curvature="0" style="display:inline;opacity:1;fill:#002888;fill-opacity:1;stroke:none;stroke-width:0.70555562;stroke-linecap:butt;stroke-linejoin:miter;stroke-miterlimit:4;stroke-dasharray:none;stroke-dashoffset:0;stroke-opacity:1;paint-order:fill markers stroke" d="m 153.9875,-115.07584 c 0,-3.95874 3.20301,-7.16172 7.12578,-7.16172 3.95874,0 7.16172,3.20298 7.16172,7.16172 0,-3.95874 3.20301,-7.16172 7.12578,-7.16172 3.95874,0 7.16172,3.20298 7.16172,7.16172 0,3.92277 -3.20298,7.12578 -7.16172,7.12578 3.95874,0 7.16172,3.20298 7.16172,7.16172 0,3.922771 -3.20298,7.125781 -7.16172,7.125781 -3.92277,0 -7.12578,-3.20301 -7.12578,-7.125781 0,3.922771 -3.20298,7.125781 -7.16172,7.125781 -3.92277,0 -7.12578,-3.20301 -7.12578,-7.125781 0,-3.95874 3.20301,-7.16172 7.12578,-7.16172 -3.92277,0 -7.12578,-3.20301 -7.12578,-7.12578 z" id="path7303"/>
      <circle style="opacity:1;fill:#808080;fill-opacity:1;stroke:none;stroke-width:0.1763889;stroke-linecap:butt;stroke-linejoin:miter;stroke-miterlimit:38.37685394;stroke-dasharray:none;stroke-dashoffset:0;stroke-opacity:1;paint-order:markers fill stroke" id="circle7381" cx="146.05" cy="-138.11252" r="1.5875001"/>
      <circle r="1.5875001" cy="-79.374962" cx="191.29373" id="circle7401" style="opacity:1;fill:#808080;fill-opacity:1;stroke:none;stroke-width:0.1763889;stroke-linecap:butt;stroke-linejoin:miter;stroke-miterlimit:38.37685394;stroke-dasharray:none;stroke-dashoffset:0;stroke-opacity:1;paint-order:markers fill stroke"/>
      <circle r="4.7625003" cy="-84.13755" cx="168.27501" id="circle7421" style="opacity:1;fill:#808080;fill-opacity:1;stroke:none;stroke-width:0.1763889;stroke-linecap:butt;stroke-linejoin:miter;stroke-miterlimit:38.37685394;stroke-dasharray:none;stroke-dashoffset:0;stroke-opacity:1;paint-order:markers fill stroke"/>
    </g>
    </g></svg>
