<?xml version='1.0' encoding='UTF-8'?>
<!-- Created with Inkscape (http://www.inkscape.org/) and export_objects.py -->
<svg xmlns:cc="http://creativecommons.org/ns#" xmlns:dc="http://purl.org/dc/elements/1.1/" xmlns:inkscape="http://www.inkscape.org/namespaces/inkscape" xmlns:rdf="http://www.w3.org/1999/02/22-rdf-syntax-ns#" xmlns:sodipodi="http://sodipodi.sourceforge.net/DTD/sodipodi-0.dtd" xmlns:xlink="http://www.w3.org/1999/xlink" xmlns="http://www.w3.org/2000/svg" version="1.1" width="2.25in" height="3.5in" viewBox="0 0 57.15 88.9" id="svg8" sodipodi:docname="clover-06.svg" inkscape:version="0.92.3 (2405546, 2018-03-11)"><sodipodi:namedview id="base" pagecolor="#ffffff" bordercolor="#666666" borderopacity="1.0" inkscape:pageopacity="0.0" inkscape:pageshadow="2" inkscape:zoom="0.42916667" inkscape:cx="1600.029" inkscape:cy="840" inkscape:document-units="in" inkscape:current-layer="layer10" showgrid="false" units="in" inkscape:measure-start="96,426" inkscape:measure-end="132,426" inkscape:snap-bbox="false" inkscape:snap-nodes="true" inkscape:snap-others="true" inkscape:bbox-nodes="true" inkscape:snap-bbox-edge-midpoints="true" inkscape:snap-text-baseline="true" inkscape:snap-center="true" inkscape:snap-object-midpoints="true" showguides="true" inkscape:snap-smooth-nodes="false" inkscape:snap-bbox-midpoints="true" inkscape:window-width="1920" inkscape:window-height="986" inkscape:window-x="-11" inkscape:window-y="-11" inkscape:window-maximized="1" inkscape:object-nodes="true" inkscape:guide-bbox="true" inkscape:snap-intersection-paths="false" fit-margin-top="0" fit-margin-left="0" fit-margin-right="0" fit-margin-bottom="0">
    <inkscape:grid type="xygrid" id="grid10" units="pt" spacingx="0.79375002" spacingy="0.79375002" originx="-25.4" originy="-25.39999"/>
  </sodipodi:namedview>
  <metadata id="metadata5">
    <rdf:RDF>
      <cc:Work rdf:about="">
        <dc:format>image/svg+xml</dc:format>
        <dc:type rdf:resource="http://purl.org/dc/dcmitype/StillImage"/>
        <dc:title/>
      </cc:Work>
    </rdf:RDF>
  </metadata>
  <g inkscape:groupmode="layer" inkscape:label="clover-" transform="matrix(1.000000,0.000000,0.000000,1.000000,-171.450003,-88.899992)"><g transform="translate(-25.400002,254)" style="display:inline" id="g1835" inkscape:label="06">
      <rect style="display:inline;opacity:1;fill:#ffffff;fill-opacity:1;stroke:none;stroke-width:0.1763889;stroke-linecap:butt;stroke-linejoin:miter;stroke-miterlimit:38.37685394;stroke-dasharray:none;stroke-dashoffset:0;stroke-opacity:1;paint-order:markers fill stroke" id="rect6945" width="57.150002" height="88.900002" x="196.85001" y="-165.10001"/>
      <g id="text6973" style="font-style:normal;font-variant:normal;font-weight:normal;font-stretch:normal;font-size:11.28888988px;line-height:125%;font-family:Paddington;-inkscape-font-specification:'Paddington, Normal';font-variant-ligatures:normal;font-variant-caps:normal;font-variant-numeric:normal;font-feature-settings:normal;text-align:center;letter-spacing:0px;word-spacing:0px;writing-mode:lr-tb;text-anchor:middle;display:inline;fill:#002888;fill-opacity:1;stroke:none;stroke-width:0.26458335" aria-label="3">
        <path id="path8258" style="font-size:16.93333435px;fill:#002888;fill-opacity:1;stroke:none;stroke-width:0.26458335" d="m 207.11515,-163.33894 -2.42146,4.23333 q 0.99906,0.3556 1.59173,1.38853 0.5588,0.93134 0.5588,1.9812 0,1.50707 -1.13453,2.4892 -1.13454,0.9652 -2.72627,0.9652 -0.62653,0 -1.1684,-0.18626 -0.69427,-0.23707 -1.3208,-0.72814 -0.79587,-0.6096 -0.93133,-1.25306 l 1.27,-1.33774 h 0.1016 q 0.8636,1.65947 2.1844,1.65947 0.64346,0 1.13453,-0.4572 0.49107,-0.4572 0.49107,-1.1176 0,-1.1684 -0.8128,-1.65947 -0.7112,-0.42333 -2.1844,-0.42333 l 2.21826,-3.82693 h -4.25026 v -1.7272 z" inkscape:connector-curvature="0"/>
      </g>
      <g id="text7013" style="font-style:normal;font-variant:normal;font-weight:normal;font-stretch:normal;font-size:11.28888988px;line-height:125%;font-family:Paddington;-inkscape-font-specification:'Paddington, Normal';font-variant-ligatures:normal;font-variant-caps:normal;font-variant-numeric:normal;font-feature-settings:normal;text-align:center;letter-spacing:0px;word-spacing:0px;writing-mode:lr-tb;text-anchor:middle;display:inline;fill:#002888;fill-opacity:1;stroke:none;stroke-width:0.26458335" aria-label="3">
        <path id="path8228" style="font-size:16.93333435px;fill:#002888;fill-opacity:1;stroke:none;stroke-width:0.26458335" d="m 252.35888,-104.60139 -2.42146,4.23334 q 0.99906,0.3556 1.59173,1.38853 0.5588,0.931334 0.5588,1.9812 0,1.507067 -1.13453,2.489201 -1.13454,0.9652 -2.72627,0.9652 -0.62653,0 -1.1684,-0.186267 -0.69427,-0.237067 -1.3208,-0.728133 -0.79587,-0.6096 -0.93133,-1.253067 l 1.27,-1.337734 h 0.1016 q 0.8636,1.659467 2.1844,1.659467 0.64346,0 1.13453,-0.4572 0.49107,-0.4572 0.49107,-1.1176 0,-1.1684 -0.8128,-1.659467 -0.7112,-0.423333 -2.1844,-0.423333 l 2.21826,-3.826937 h -4.25026 v -1.7272 z" inkscape:connector-curvature="0"/>
      </g>
      <g id="text7053" style="font-style:normal;font-variant:normal;font-weight:normal;font-stretch:normal;font-size:33.8666687px;line-height:125%;font-family:Paddington;-inkscape-font-specification:'Paddington, Normal';font-variant-ligatures:normal;font-variant-caps:normal;font-variant-numeric:normal;font-feature-settings:normal;text-align:center;letter-spacing:0px;word-spacing:0px;writing-mode:lr-tb;text-anchor:middle;display:inline;fill:#002888;fill-opacity:1;stroke:none;stroke-width:0.26458335" aria-label="3">
        <path id="path8198" style="font-size:50.80000305px;fill:#002888;fill-opacity:1;stroke:none;stroke-width:0.26458335" d="m 237.17052,-159.81682 -7.2644,12.7 q 2.9972,1.0668 4.7752,4.1656 1.6764,2.794 1.6764,5.9436 0,4.5212 -3.4036,7.4676 -3.4036,2.8956 -8.1788,2.8956 -1.8796,0 -3.5052,-0.5588 -2.0828,-0.7112 -3.9624,-2.1844 -2.3876,-1.8288 -2.794,-3.7592 l 3.81,-4.0132 h 0.3048 q 2.5908,4.9784 6.5532,4.9784 1.9304,0 3.4036,-1.3716 1.4732,-1.3716 1.4732,-3.3528 0,-3.5052 -2.4384,-4.9784 -2.1336,-1.27 -6.5532,-1.27 l 6.6548,-11.4808 h -12.7508 v -5.1816 z" inkscape:connector-curvature="0"/>
      </g>
      <path sodipodi:nodetypes="sscsscsscsscs" inkscape:connector-curvature="0" style="display:inline;opacity:1;fill:#002888;fill-opacity:1;stroke:none;stroke-width:0.70555562;stroke-linecap:butt;stroke-linejoin:miter;stroke-miterlimit:4;stroke-dasharray:none;stroke-dashoffset:0;stroke-opacity:1;paint-order:fill markers stroke" d="m 198.4375,-148.4253 c 0,-1.31958 1.06766,-2.38724 2.37525,-2.38724 1.31958,0 2.38724,1.06766 2.38724,2.38724 0,-1.31958 1.06767,-2.38724 2.37525,-2.38724 1.31959,0 2.38725,1.06766 2.38725,2.38724 0,1.30759 -1.06766,2.37526 -2.38725,2.37526 1.31959,0 2.38725,1.06766 2.38725,2.38724 0,1.30759 -1.06766,2.37526 -2.38725,2.37526 -1.30758,0 -2.37525,-1.06767 -2.37525,-2.37526 0,1.30759 -1.06766,2.37526 -2.38724,2.37526 -1.30759,0 -2.37525,-1.06767 -2.37525,-2.37526 0,-1.31958 1.06766,-2.38724 2.37525,-2.38724 -1.30759,0 -2.37525,-1.06767 -2.37525,-2.37526 z" id="path7265"/>
      <path id="path7285" d="m 243.68121,-89.687709 c 0,-1.31958 1.06766,-2.38724 2.37525,-2.38724 1.31958,0 2.38724,1.06766 2.38724,2.38724 0,-1.31958 1.06767,-2.38724 2.37525,-2.38724 1.31959,0 2.38725,1.06766 2.38725,2.38724 0,1.30759 -1.06766,2.37526 -2.38725,2.37526 1.31959,0 2.38725,1.06766 2.38725,2.38724 0,1.30759 -1.06766,2.37526 -2.38725,2.37526 -1.30758,0 -2.37525,-1.06767 -2.37525,-2.37526 0,1.30759 -1.06766,2.37526 -2.38724,2.37526 -1.30759,0 -2.37525,-1.06767 -2.37525,-2.37526 0,-1.31958 1.06766,-2.38724 2.37525,-2.38724 -1.30759,0 -2.37525,-1.06767 -2.37525,-2.37526 z" style="display:inline;opacity:1;fill:#002888;fill-opacity:1;stroke:none;stroke-width:0.70555562;stroke-linecap:butt;stroke-linejoin:miter;stroke-miterlimit:4;stroke-dasharray:none;stroke-dashoffset:0;stroke-opacity:1;paint-order:fill markers stroke" inkscape:connector-curvature="0" sodipodi:nodetypes="sscsscsscsscs"/>
      <path id="path7305" d="m 211.13756,-115.07587 c 0,-3.95874 3.20298,-7.16172 7.12575,-7.16172 3.95874,0 7.16172,3.20298 7.16172,7.16172 0,-3.95874 3.20301,-7.16172 7.12575,-7.16172 3.95877,0 7.16175,3.20298 7.16175,7.16172 0,3.92277 -3.20298,7.12578 -7.16175,7.12578 3.95877,0 7.16175,3.20298 7.16175,7.16172 0,3.922771 -3.20298,7.125781 -7.16175,7.125781 -3.92274,0 -7.12575,-3.20301 -7.12575,-7.125781 0,3.922771 -3.20298,7.125781 -7.16172,7.125781 -3.92277,0 -7.12575,-3.20301 -7.12575,-7.125781 0,-3.95874 3.20298,-7.16172 7.12575,-7.16172 -3.92277,0 -7.12575,-3.20301 -7.12575,-7.12578 z" style="display:inline;opacity:1;fill:#002888;fill-opacity:1;stroke:none;stroke-width:0.70555562;stroke-linecap:butt;stroke-linejoin:miter;stroke-miterlimit:4;stroke-dasharray:none;stroke-dashoffset:0;stroke-opacity:1;paint-order:fill markers stroke" inkscape:connector-curvature="0" sodipodi:nodetypes="sscsscsscsscs"/>
      <circle r="1.5875001" cy="-138.11253" cx="203.19998" id="circle7383" style="opacity:1;fill:#808080;fill-opacity:1;stroke:none;stroke-width:0.1763889;stroke-linecap:butt;stroke-linejoin:miter;stroke-miterlimit:38.37685394;stroke-dasharray:none;stroke-dashoffset:0;stroke-opacity:1;paint-order:markers fill stroke"/>
      <circle style="opacity:1;fill:#808080;fill-opacity:1;stroke:none;stroke-width:0.1763889;stroke-linecap:butt;stroke-linejoin:miter;stroke-miterlimit:38.37685394;stroke-dasharray:none;stroke-dashoffset:0;stroke-opacity:1;paint-order:markers fill stroke" id="circle7403" cx="248.44371" cy="-79.374977" r="1.5875001"/>
      <circle style="opacity:1;fill:#808080;fill-opacity:1;stroke:none;stroke-width:0.1763889;stroke-linecap:butt;stroke-linejoin:miter;stroke-miterlimit:38.37685394;stroke-dasharray:none;stroke-dashoffset:0;stroke-opacity:1;paint-order:markers fill stroke" id="circle7423" cx="225.425" cy="-84.137596" r="4.7625003"/>
    </g>
    </g></svg>
