<?xml version='1.0' encoding='UTF-8'?>
<!-- Created with Inkscape (http://www.inkscape.org/) and export_objects.py -->
<svg xmlns:cc="http://creativecommons.org/ns#" xmlns:dc="http://purl.org/dc/elements/1.1/" xmlns:inkscape="http://www.inkscape.org/namespaces/inkscape" xmlns:rdf="http://www.w3.org/1999/02/22-rdf-syntax-ns#" xmlns:sodipodi="http://sodipodi.sourceforge.net/DTD/sodipodi-0.dtd" xmlns:xlink="http://www.w3.org/1999/xlink" xmlns="http://www.w3.org/2000/svg" version="1.1" width="2.25in" height="3.5in" viewBox="0 0 57.15 88.9" id="svg8" sodipodi:docname="crescent-05.svg" inkscape:version="0.92.3 (2405546, 2018-03-11)"><sodipodi:namedview id="base" pagecolor="#ffffff" bordercolor="#666666" borderopacity="1.0" inkscape:pageopacity="0.0" inkscape:pageshadow="2" inkscape:zoom="0.42916667" inkscape:cx="1600.029" inkscape:cy="840" inkscape:document-units="in" inkscape:current-layer="layer10" showgrid="false" units="in" inkscape:measure-start="96,426" inkscape:measure-end="132,426" inkscape:snap-bbox="false" inkscape:snap-nodes="true" inkscape:snap-others="true" inkscape:bbox-nodes="true" inkscape:snap-bbox-edge-midpoints="true" inkscape:snap-text-baseline="true" inkscape:snap-center="true" inkscape:snap-object-midpoints="true" showguides="true" inkscape:snap-smooth-nodes="false" inkscape:snap-bbox-midpoints="true" inkscape:window-width="1920" inkscape:window-height="986" inkscape:window-x="-11" inkscape:window-y="-11" inkscape:window-maximized="1" inkscape:object-nodes="true" inkscape:guide-bbox="true" inkscape:snap-intersection-paths="false" fit-margin-top="0" fit-margin-left="0" fit-margin-right="0" fit-margin-bottom="0">
    <inkscape:grid type="xygrid" id="grid10" units="pt" spacingx="0.79375002" spacingy="0.79375002" originx="-25.4" originy="-25.39999"/>
  </sodipodi:namedview>
  <metadata id="metadata5">
    <rdf:RDF>
      <cc:Work rdf:about="">
        <dc:format>image/svg+xml</dc:format>
        <dc:type rdf:resource="http://purl.org/dc/dcmitype/StillImage"/>
        <dc:title/>
      </cc:Work>
    </rdf:RDF>
  </metadata>
  <g inkscape:groupmode="layer" inkscape:label="crescent-" transform="matrix(1.000000,0.000000,0.000000,1.000000,-228.599995,-266.700000)"><g transform="translate(-25.400002,254)" style="display:inline" id="g896" inkscape:label="05">
      <rect style="display:inline;opacity:1;fill:#ffffff;fill-opacity:1;stroke:none;stroke-width:0.1763889;stroke-linecap:butt;stroke-linejoin:miter;stroke-miterlimit:38.37685394;stroke-dasharray:none;stroke-dashoffset:0;stroke-opacity:1;paint-order:markers fill stroke" id="rect5947" width="57.150002" height="88.900002" x="254" y="12.700001"/>
      <g id="text5977" style="font-style:normal;font-variant:normal;font-weight:normal;font-stretch:normal;font-size:11.28888988px;line-height:125%;font-family:Paddington;-inkscape-font-specification:'Paddington, Normal';font-variant-ligatures:normal;font-variant-caps:normal;font-variant-numeric:normal;font-feature-settings:normal;text-align:center;letter-spacing:0px;word-spacing:0px;writing-mode:lr-tb;text-anchor:middle;display:inline;fill:#827a00;fill-opacity:1;stroke:none;stroke-width:0.26458335" aria-label="4">
        <path id="path8435" style="font-size:16.93333435px;fill:#827a00;fill-opacity:1;stroke:none;stroke-width:0.26458335" d="m 264.97373,22.436657 h -2.52306 v 2.963333 h -1.94734 v -2.963333 h -5.3848 l 7.24747,-8.669868 h 0.0847 v 6.925734 h 2.52306 z m -4.50426,-1.744134 v -2.3368 l -1.94734,2.3368 z" inkscape:connector-curvature="0"/>
      </g>
      <g id="text6017" style="font-style:normal;font-variant:normal;font-weight:normal;font-stretch:normal;font-size:11.28888988px;line-height:125%;font-family:Paddington;-inkscape-font-specification:'Paddington, Normal';font-variant-ligatures:normal;font-variant-caps:normal;font-variant-numeric:normal;font-feature-settings:normal;text-align:center;letter-spacing:0px;word-spacing:0px;writing-mode:lr-tb;text-anchor:middle;display:inline;fill:#827a00;fill-opacity:1;stroke:none;stroke-width:0.26458335" aria-label="4">
        <path id="path8405" style="font-size:16.93333435px;fill:#827a00;fill-opacity:1;stroke:none;stroke-width:0.26458335" d="m 310.21742,81.174217 h -2.52307 v 2.963333 h -1.94733 v -2.963333 h -5.38481 l 7.24747,-8.669867 h 0.0847 v 6.925733 h 2.52307 z m -4.50427,-1.744134 v -2.3368 l -1.94734,2.3368 z" inkscape:connector-curvature="0"/>
      </g>
      <g id="text6057" style="font-style:normal;font-variant:normal;font-weight:normal;font-stretch:normal;font-size:33.8666687px;line-height:125%;font-family:Paddington;-inkscape-font-specification:'Paddington, Normal';font-variant-ligatures:normal;font-variant-caps:normal;font-variant-numeric:normal;font-feature-settings:normal;text-align:center;letter-spacing:0px;word-spacing:0px;writing-mode:lr-tb;text-anchor:middle;display:inline;fill:#827a00;fill-opacity:1;stroke:none;stroke-width:0.26458335" aria-label="4">
        <path id="path8375" style="font-size:50.80000305px;fill:#827a00;fill-opacity:1;stroke:none;stroke-width:0.26458335" d="m 296.44619,41.909983 h -7.5692 v 8.890001 h -5.842 v -8.890001 h -16.1544 l 21.7424,-26.009601 h 0.254 v 20.777201 h 7.5692 z m -13.5128,-5.2324 v -7.0104 l -5.842,7.0104 z" inkscape:connector-curvature="0"/>
      </g>
      <path style="display:inline;opacity:1;fill:#827a00;fill-opacity:1;stroke:none;stroke-width:0.70555568;stroke-linecap:butt;stroke-linejoin:miter;stroke-miterlimit:4;stroke-dasharray:none;stroke-dashoffset:0;stroke-opacity:1;paint-order:fill markers stroke" d="m 260.48304,27.219117 a 4.7625049,4.7625049 0 0 0 -3.05771,6.00106 4.7625049,4.7625049 0 0 0 6.00108,3.05768 4.7625049,4.7625049 0 0 0 0.0814,-0.0296 4.7625049,4.7625049 0 0 1 -2.98753,-3.02808 4.7625049,4.7625049 0 0 1 2.97659,-5.97148 4.7625049,4.7625049 0 0 0 -3.01367,-0.0296 z" id="path6147" inkscape:connector-curvature="0"/>
      <path inkscape:connector-curvature="0" id="path6167" d="m 305.72675,85.956707 a 4.7625049,4.7625049 0 0 0 -3.05771,6.00106 4.7625049,4.7625049 0 0 0 6.00108,3.05768 4.7625049,4.7625049 0 0 0 0.0814,-0.0296 4.7625049,4.7625049 0 0 1 -2.98753,-3.02808 4.7625049,4.7625049 0 0 1 2.97659,-5.97148 4.7625049,4.7625049 0 0 0 -3.01367,-0.0296 z" style="display:inline;opacity:1;fill:#827a00;fill-opacity:1;stroke:none;stroke-width:0.70555568;stroke-linecap:butt;stroke-linejoin:miter;stroke-miterlimit:4;stroke-dasharray:none;stroke-dashoffset:0;stroke-opacity:1;paint-order:fill markers stroke"/>
      <path inkscape:connector-curvature="0" id="path6187" d="m 282.97414,56.257377 a 14.287515,14.287515 0 0 0 -9.17313,18.00318 14.287515,14.287515 0 0 0 18.00324,9.17304 14.287515,14.287515 0 0 0 0.2442,-0.0888 14.287515,14.287515 0 0 1 -8.96259,-9.08424 14.287515,14.287515 0 0 1 8.92977,-17.91444 14.287515,14.287515 0 0 0 -9.04101,-0.0888 z" style="display:inline;opacity:1;fill:#827a00;fill-opacity:1;stroke:none;stroke-width:0.70555568;stroke-linecap:butt;stroke-linejoin:miter;stroke-miterlimit:4;stroke-dasharray:none;stroke-dashoffset:0;stroke-opacity:1;paint-order:fill markers stroke"/>
      <circle r="1.5875001" cy="39.687466" cx="260.35001" id="circle6385" style="opacity:1;fill:#808080;fill-opacity:1;stroke:none;stroke-width:0.1763889;stroke-linecap:butt;stroke-linejoin:miter;stroke-miterlimit:38.37685394;stroke-dasharray:none;stroke-dashoffset:0;stroke-opacity:1;paint-order:markers fill stroke"/>
      <circle style="opacity:1;fill:#808080;fill-opacity:1;stroke:none;stroke-width:0.1763889;stroke-linecap:butt;stroke-linejoin:miter;stroke-miterlimit:38.37685394;stroke-dasharray:none;stroke-dashoffset:0;stroke-opacity:1;paint-order:markers fill stroke" id="circle6405" cx="305.59369" cy="98.425026" r="1.5875001"/>
      <circle style="opacity:1;fill:#808080;fill-opacity:1;stroke:none;stroke-width:0.1763889;stroke-linecap:butt;stroke-linejoin:miter;stroke-miterlimit:38.37685394;stroke-dasharray:none;stroke-dashoffset:0;stroke-opacity:1;paint-order:markers fill stroke" id="circle6425" cx="282.57501" cy="93.662407" r="4.7625003"/>
    </g>
    </g></svg>
