<?xml version='1.0' encoding='UTF-8'?>
<!-- Created with Inkscape (http://www.inkscape.org/) and export_objects.py -->
<svg xmlns:cc="http://creativecommons.org/ns#" xmlns:dc="http://purl.org/dc/elements/1.1/" xmlns:inkscape="http://www.inkscape.org/namespaces/inkscape" xmlns:rdf="http://www.w3.org/1999/02/22-rdf-syntax-ns#" xmlns:sodipodi="http://sodipodi.sourceforge.net/DTD/sodipodi-0.dtd" xmlns:xlink="http://www.w3.org/1999/xlink" xmlns="http://www.w3.org/2000/svg" version="1.1" width="2.25in" height="3.5in" viewBox="0 0 57.15 88.9" id="svg8" sodipodi:docname="crescent-04.svg" inkscape:version="0.92.3 (2405546, 2018-03-11)"><sodipodi:namedview id="base" pagecolor="#ffffff" bordercolor="#666666" borderopacity="1.0" inkscape:pageopacity="0.0" inkscape:pageshadow="2" inkscape:zoom="0.42916667" inkscape:cx="1600.029" inkscape:cy="840" inkscape:document-units="in" inkscape:current-layer="layer10" showgrid="false" units="in" inkscape:measure-start="96,426" inkscape:measure-end="132,426" inkscape:snap-bbox="false" inkscape:snap-nodes="true" inkscape:snap-others="true" inkscape:bbox-nodes="true" inkscape:snap-bbox-edge-midpoints="true" inkscape:snap-text-baseline="true" inkscape:snap-center="true" inkscape:snap-object-midpoints="true" showguides="true" inkscape:snap-smooth-nodes="false" inkscape:snap-bbox-midpoints="true" inkscape:window-width="1920" inkscape:window-height="986" inkscape:window-x="-11" inkscape:window-y="-11" inkscape:window-maximized="1" inkscape:object-nodes="true" inkscape:guide-bbox="true" inkscape:snap-intersection-paths="false" fit-margin-top="0" fit-margin-left="0" fit-margin-right="0" fit-margin-bottom="0">
    <inkscape:grid type="xygrid" id="grid10" units="pt" spacingx="0.79375002" spacingy="0.79375002" originx="-25.4" originy="-25.39999"/>
  </sodipodi:namedview>
  <metadata id="metadata5">
    <rdf:RDF>
      <cc:Work rdf:about="">
        <dc:format>image/svg+xml</dc:format>
        <dc:type rdf:resource="http://purl.org/dc/dcmitype/StillImage"/>
        <dc:title/>
      </cc:Work>
    </rdf:RDF>
  </metadata>
  <g inkscape:groupmode="layer" inkscape:label="crescent-" transform="matrix(1.000000,0.000000,0.000000,1.000000,-285.750026,-266.700000)"><g transform="translate(-25.400002,254)" style="display:inline" id="g857" inkscape:label="04">
      <rect y="12.700001" x="311.15002" height="88.900002" width="57.150002" id="rect5949" style="display:inline;opacity:1;fill:#ffffff;fill-opacity:1;stroke:none;stroke-width:0.1763889;stroke-linecap:butt;stroke-linejoin:miter;stroke-miterlimit:38.37685394;stroke-dasharray:none;stroke-dashoffset:0;stroke-opacity:1;paint-order:markers fill stroke"/>
      <g id="text5981" style="font-style:normal;font-variant:normal;font-weight:normal;font-stretch:normal;font-size:11.28888988px;line-height:125%;font-family:Paddington;-inkscape-font-specification:'Paddington, Normal';font-variant-ligatures:normal;font-variant-caps:normal;font-variant-numeric:normal;font-feature-settings:normal;text-align:center;letter-spacing:0px;word-spacing:0px;writing-mode:lr-tb;text-anchor:middle;display:inline;fill:#827a00;fill-opacity:1;stroke:none;stroke-width:0.26458335" aria-label="5">
        <path id="path8432" style="font-size:16.93333435px;fill:#827a00;fill-opacity:1;stroke:none;stroke-width:0.26458335" d="m 320.91855,14.461056 -0.82973,1.6764 h -2.98027 l -0.23707,1.998134 q 1.74414,0.08467 2.86174,1.049866 1.1684,1.032934 1.1684,2.692401 0,1.591733 -1.13454,2.6416 -1.13453,1.032933 -2.82786,1.032933 -1.6764,0 -2.92947,-1.659467 l 1.15147,-1.4732 h 0.1016 q 0.77893,1.337734 1.86266,1.337734 0.67734,0 1.18534,-0.541867 0.52493,-0.5588 0.52493,-1.303867 0,-0.880533 -0.74507,-1.4732 -0.67733,-0.541867 -1.5748,-0.541867 -0.57573,0 -1.89653,0.389467 l 0.72813,-5.825067 z" inkscape:connector-curvature="0"/>
      </g>
      <g id="text6021" style="font-style:normal;font-variant:normal;font-weight:normal;font-stretch:normal;font-size:11.28888988px;line-height:125%;font-family:Paddington;-inkscape-font-specification:'Paddington, Normal';font-variant-ligatures:normal;font-variant-caps:normal;font-variant-numeric:normal;font-feature-settings:normal;text-align:center;letter-spacing:0px;word-spacing:0px;writing-mode:lr-tb;text-anchor:middle;display:inline;fill:#827a00;fill-opacity:1;stroke:none;stroke-width:0.26458335" aria-label="5">
        <path id="path8402" style="font-size:16.93333435px;fill:#827a00;fill-opacity:1;stroke:none;stroke-width:0.26458335" d="m 366.16223,73.198616 -0.82973,1.6764 h -2.98027 l -0.23706,1.998134 q 1.74413,0.08467 2.86173,1.049867 1.1684,1.032933 1.1684,2.6924 0,1.591733 -1.13453,2.6416 -1.13454,1.032933 -2.82787,1.032933 -1.6764,0 -2.92947,-1.659466 l 1.15147,-1.4732 h 0.1016 q 0.77893,1.337733 1.86267,1.337733 0.67733,0 1.18533,-0.541867 0.52493,-0.5588 0.52493,-1.303867 0,-0.880533 -0.74506,-1.4732 -0.67734,-0.541866 -1.5748,-0.541866 -0.57574,0 -1.89654,0.389466 l 0.72814,-5.825067 z" inkscape:connector-curvature="0"/>
      </g>
      <g id="text6061" style="font-style:normal;font-variant:normal;font-weight:normal;font-stretch:normal;font-size:33.8666687px;line-height:125%;font-family:Paddington;-inkscape-font-specification:'Paddington, Normal';font-variant-ligatures:normal;font-variant-caps:normal;font-variant-numeric:normal;font-feature-settings:normal;text-align:center;letter-spacing:0px;word-spacing:0px;writing-mode:lr-tb;text-anchor:middle;display:inline;fill:#827a00;fill-opacity:1;stroke:none;stroke-width:0.26458335" aria-label="5">
        <path id="path8372" style="font-size:50.80000305px;fill:#827a00;fill-opacity:1;stroke:none;stroke-width:0.26458335" d="m 349.98065,17.983182 -2.4892,5.0292 h -8.9408 l -0.7112,5.994401 q 5.2324,0.254 8.5852,3.1496 3.5052,3.0988 3.5052,8.0772 0,4.775201 -3.4036,7.924801 -3.4036,3.0988 -8.4836,3.0988 -5.0292,0 -8.7884,-4.9784 l 3.4544,-4.419601 h 0.3048 q 2.3368,4.013201 5.588,4.013201 2.032,0 3.556,-1.6256 1.5748,-1.676401 1.5748,-3.911601 0,-2.6416 -2.2352,-4.4196 -2.032,-1.6256 -4.7244,-1.6256 -1.7272,0 -5.6896,1.1684 l 2.1844,-17.475201 z" inkscape:connector-curvature="0"/>
      </g>
      <path inkscape:connector-curvature="0" id="path6149" d="m 317.63303,27.219107 a 4.7625049,4.7625049 0 0 0 -3.0577,6.00106 4.7625049,4.7625049 0 0 0 6.00107,3.05768 4.7625049,4.7625049 0 0 0 0.0814,-0.0296 4.7625049,4.7625049 0 0 1 -2.98753,-3.02808 4.7625049,4.7625049 0 0 1 2.97659,-5.97148 4.7625049,4.7625049 0 0 0 -3.01367,-0.0296 z" style="display:inline;opacity:1;fill:#827a00;fill-opacity:1;stroke:none;stroke-width:0.70555568;stroke-linecap:butt;stroke-linejoin:miter;stroke-miterlimit:4;stroke-dasharray:none;stroke-dashoffset:0;stroke-opacity:1;paint-order:fill markers stroke"/>
      <path style="display:inline;opacity:1;fill:#827a00;fill-opacity:1;stroke:none;stroke-width:0.70555568;stroke-linecap:butt;stroke-linejoin:miter;stroke-miterlimit:4;stroke-dasharray:none;stroke-dashoffset:0;stroke-opacity:1;paint-order:fill markers stroke" d="m 362.87674,85.956697 a 4.7625049,4.7625049 0 0 0 -3.0577,6.00106 4.7625049,4.7625049 0 0 0 6.00107,3.05768 4.7625049,4.7625049 0 0 0 0.0814,-0.0296 4.7625049,4.7625049 0 0 1 -2.98753,-3.02808 4.7625049,4.7625049 0 0 1 2.97659,-5.97148 4.7625049,4.7625049 0 0 0 -3.01367,-0.0296 z" id="path6169" inkscape:connector-curvature="0"/>
      <path style="display:inline;opacity:1;fill:#827a00;fill-opacity:1;stroke:none;stroke-width:0.70555568;stroke-linecap:butt;stroke-linejoin:miter;stroke-miterlimit:4;stroke-dasharray:none;stroke-dashoffset:0;stroke-opacity:1;paint-order:fill markers stroke" d="m 340.12414,56.257307 a 14.287515,14.287515 0 0 0 -9.1731,18.00318 14.287515,14.287515 0 0 0 18.00321,9.17304 14.287515,14.287515 0 0 0 0.2442,-0.0888 14.287515,14.287515 0 0 1 -8.96259,-9.08424 14.287515,14.287515 0 0 1 8.92977,-17.91444 14.287515,14.287515 0 0 0 -9.04101,-0.0888 z" id="path6189" inkscape:connector-curvature="0"/>
      <circle style="opacity:1;fill:#808080;fill-opacity:1;stroke:none;stroke-width:0.1763889;stroke-linecap:butt;stroke-linejoin:miter;stroke-miterlimit:38.37685394;stroke-dasharray:none;stroke-dashoffset:0;stroke-opacity:1;paint-order:markers fill stroke" id="circle6387" cx="317.5" cy="39.68745" r="1.5875001"/>
      <circle r="1.5875001" cy="98.425011" cx="362.74368" id="circle6407" style="opacity:1;fill:#808080;fill-opacity:1;stroke:none;stroke-width:0.1763889;stroke-linecap:butt;stroke-linejoin:miter;stroke-miterlimit:38.37685394;stroke-dasharray:none;stroke-dashoffset:0;stroke-opacity:1;paint-order:markers fill stroke"/>
      <circle r="4.7625003" cy="93.662361" cx="339.72501" id="circle6427" style="opacity:1;fill:#808080;fill-opacity:1;stroke:none;stroke-width:0.1763889;stroke-linecap:butt;stroke-linejoin:miter;stroke-miterlimit:38.37685394;stroke-dasharray:none;stroke-dashoffset:0;stroke-opacity:1;paint-order:markers fill stroke"/>
    </g>
    </g></svg>
