<?xml version='1.0' encoding='UTF-8'?>
<!-- Created with Inkscape (http://www.inkscape.org/) and export_objects.py -->
<svg xmlns:cc="http://creativecommons.org/ns#" xmlns:dc="http://purl.org/dc/elements/1.1/" xmlns:inkscape="http://www.inkscape.org/namespaces/inkscape" xmlns:rdf="http://www.w3.org/1999/02/22-rdf-syntax-ns#" xmlns:sodipodi="http://sodipodi.sourceforge.net/DTD/sodipodi-0.dtd" xmlns:xlink="http://www.w3.org/1999/xlink" xmlns="http://www.w3.org/2000/svg" version="1.1" width="2.25in" height="3.5in" viewBox="0 0 57.15 88.9" id="svg8" sodipodi:docname="crescent-06.svg" inkscape:version="0.92.3 (2405546, 2018-03-11)"><sodipodi:namedview id="base" pagecolor="#ffffff" bordercolor="#666666" borderopacity="1.0" inkscape:pageopacity="0.0" inkscape:pageshadow="2" inkscape:zoom="0.42916667" inkscape:cx="1600.029" inkscape:cy="840" inkscape:document-units="in" inkscape:current-layer="layer10" showgrid="false" units="in" inkscape:measure-start="96,426" inkscape:measure-end="132,426" inkscape:snap-bbox="false" inkscape:snap-nodes="true" inkscape:snap-others="true" inkscape:bbox-nodes="true" inkscape:snap-bbox-edge-midpoints="true" inkscape:snap-text-baseline="true" inkscape:snap-center="true" inkscape:snap-object-midpoints="true" showguides="true" inkscape:snap-smooth-nodes="false" inkscape:snap-bbox-midpoints="true" inkscape:window-width="1920" inkscape:window-height="986" inkscape:window-x="-11" inkscape:window-y="-11" inkscape:window-maximized="1" inkscape:object-nodes="true" inkscape:guide-bbox="true" inkscape:snap-intersection-paths="false" fit-margin-top="0" fit-margin-left="0" fit-margin-right="0" fit-margin-bottom="0">
    <inkscape:grid type="xygrid" id="grid10" units="pt" spacingx="0.79375002" spacingy="0.79375002" originx="-25.4" originy="-25.39999"/>
  </sodipodi:namedview>
  <metadata id="metadata5">
    <rdf:RDF>
      <cc:Work rdf:about="">
        <dc:format>image/svg+xml</dc:format>
        <dc:type rdf:resource="http://purl.org/dc/dcmitype/StillImage"/>
        <dc:title/>
      </cc:Work>
    </rdf:RDF>
  </metadata>
  <g inkscape:groupmode="layer" inkscape:label="crescent-" transform="matrix(1.000000,0.000000,0.000000,1.000000,-171.450003,-266.700000)"><g transform="translate(-25.400002,254)" style="display:inline" id="g935" inkscape:label="06">
      <rect style="display:inline;opacity:1;fill:#ffffff;fill-opacity:1;stroke:none;stroke-width:0.1763889;stroke-linecap:butt;stroke-linejoin:miter;stroke-miterlimit:38.37685394;stroke-dasharray:none;stroke-dashoffset:0;stroke-opacity:1;paint-order:markers fill stroke" id="rect5945" width="57.150002" height="88.900002" x="196.85001" y="12.700001"/>
      <g id="text5973" style="font-style:normal;font-variant:normal;font-weight:normal;font-stretch:normal;font-size:11.28888988px;line-height:125%;font-family:Paddington;-inkscape-font-specification:'Paddington, Normal';font-variant-ligatures:normal;font-variant-caps:normal;font-variant-numeric:normal;font-feature-settings:normal;text-align:center;letter-spacing:0px;word-spacing:0px;writing-mode:lr-tb;text-anchor:middle;display:inline;fill:#827a00;fill-opacity:1;stroke:none;stroke-width:0.26458335" aria-label="3">
        <path id="path8438" style="font-size:16.93333435px;fill:#827a00;fill-opacity:1;stroke:none;stroke-width:0.26458335" d="m 207.11515,14.461056 -2.42146,4.233334 q 0.99906,0.3556 1.59173,1.388533 0.5588,0.931333 0.5588,1.9812 0,1.507067 -1.13453,2.4892 -1.13454,0.9652 -2.72627,0.9652 -0.62653,0 -1.1684,-0.186266 -0.69427,-0.237067 -1.3208,-0.728134 -0.79587,-0.6096 -0.93133,-1.253066 l 1.27,-1.337734 h 0.1016 q 0.8636,1.659467 2.1844,1.659467 0.64346,0 1.13453,-0.4572 0.49107,-0.4572 0.49107,-1.1176 0,-1.1684 -0.8128,-1.659467 -0.7112,-0.423333 -2.1844,-0.423333 l 2.21826,-3.826934 h -4.25026 v -1.7272 z" inkscape:connector-curvature="0"/>
      </g>
      <g id="text6013" style="font-style:normal;font-variant:normal;font-weight:normal;font-stretch:normal;font-size:11.28888988px;line-height:125%;font-family:Paddington;-inkscape-font-specification:'Paddington, Normal';font-variant-ligatures:normal;font-variant-caps:normal;font-variant-numeric:normal;font-feature-settings:normal;text-align:center;letter-spacing:0px;word-spacing:0px;writing-mode:lr-tb;text-anchor:middle;display:inline;fill:#827a00;fill-opacity:1;stroke:none;stroke-width:0.26458335" aria-label="3">
        <path id="path8408" style="font-size:16.93333435px;fill:#827a00;fill-opacity:1;stroke:none;stroke-width:0.26458335" d="m 252.35888,73.198616 -2.42146,4.233334 q 0.99906,0.3556 1.59173,1.388533 0.5588,0.931334 0.5588,1.9812 0,1.507067 -1.13453,2.489201 -1.13454,0.9652 -2.72627,0.9652 -0.62653,0 -1.1684,-0.186267 -0.69427,-0.237067 -1.3208,-0.728133 -0.79587,-0.6096 -0.93133,-1.253067 l 1.27,-1.337734 h 0.1016 q 0.8636,1.659467 2.1844,1.659467 0.64346,0 1.13453,-0.4572 0.49107,-0.4572 0.49107,-1.1176 0,-1.1684 -0.8128,-1.659467 -0.7112,-0.423333 -2.1844,-0.423333 l 2.21826,-3.826934 h -4.25026 v -1.7272 z" inkscape:connector-curvature="0"/>
      </g>
      <g id="text6053" style="font-style:normal;font-variant:normal;font-weight:normal;font-stretch:normal;font-size:33.8666687px;line-height:125%;font-family:Paddington;-inkscape-font-specification:'Paddington, Normal';font-variant-ligatures:normal;font-variant-caps:normal;font-variant-numeric:normal;font-feature-settings:normal;text-align:center;letter-spacing:0px;word-spacing:0px;writing-mode:lr-tb;text-anchor:middle;display:inline;fill:#827a00;fill-opacity:1;stroke:none;stroke-width:0.26458335" aria-label="3">
        <path id="path8378" style="font-size:50.80000305px;fill:#827a00;fill-opacity:1;stroke:none;stroke-width:0.26458335" d="m 237.17052,17.983182 -7.2644,12.700001 q 2.9972,1.0668 4.7752,4.1656 1.6764,2.794 1.6764,5.9436 0,4.521201 -3.4036,7.467601 -3.4036,2.8956 -8.1788,2.8956 -1.8796,0 -3.5052,-0.5588 -2.0828,-0.7112 -3.9624,-2.1844 -2.3876,-1.8288 -2.794,-3.7592 l 3.81,-4.013201 h 0.3048 q 2.5908,4.978401 6.5532,4.978401 1.9304,0 3.4036,-1.3716 1.4732,-1.3716 1.4732,-3.352801 0,-3.5052 -2.4384,-4.9784 -2.1336,-1.27 -6.5532,-1.27 l 6.6548,-11.480801 h -12.7508 v -5.1816 z" inkscape:connector-curvature="0"/>
      </g>
      <path style="display:inline;opacity:1;fill:#827a00;fill-opacity:1;stroke:none;stroke-width:0.70555568;stroke-linecap:butt;stroke-linejoin:miter;stroke-miterlimit:4;stroke-dasharray:none;stroke-dashoffset:0;stroke-opacity:1;paint-order:fill markers stroke" d="m 203.33302,27.219117 a 4.7625049,4.7625049 0 0 0 -3.0577,6.00106 4.7625049,4.7625049 0 0 0 6.00107,3.05768 4.7625049,4.7625049 0 0 0 0.0814,-0.0296 4.7625049,4.7625049 0 0 1 -2.98753,-3.02808 4.7625049,4.7625049 0 0 1 2.97659,-5.97148 4.7625049,4.7625049 0 0 0 -3.01367,-0.0296 z" id="path6145" inkscape:connector-curvature="0"/>
      <path inkscape:connector-curvature="0" id="path6165" d="m 248.57673,85.956707 a 4.7625049,4.7625049 0 0 0 -3.0577,6.00106 4.7625049,4.7625049 0 0 0 6.00107,3.05768 4.7625049,4.7625049 0 0 0 0.0814,-0.0296 4.7625049,4.7625049 0 0 1 -2.98753,-3.02808 4.7625049,4.7625049 0 0 1 2.97659,-5.97148 4.7625049,4.7625049 0 0 0 -3.01367,-0.0296 z" style="display:inline;opacity:1;fill:#827a00;fill-opacity:1;stroke:none;stroke-width:0.70555568;stroke-linecap:butt;stroke-linejoin:miter;stroke-miterlimit:4;stroke-dasharray:none;stroke-dashoffset:0;stroke-opacity:1;paint-order:fill markers stroke"/>
      <path inkscape:connector-curvature="0" id="path6185" d="m 225.82412,56.257367 a 14.287515,14.287515 0 0 0 -9.1731,18.00318 14.287515,14.287515 0 0 0 18.00321,9.17304 14.287515,14.287515 0 0 0 0.2442,-0.0888 14.287515,14.287515 0 0 1 -8.96259,-9.08424 14.287515,14.287515 0 0 1 8.92977,-17.91444 14.287515,14.287515 0 0 0 -9.04101,-0.0888 z" style="display:inline;opacity:1;fill:#827a00;fill-opacity:1;stroke:none;stroke-width:0.70555568;stroke-linecap:butt;stroke-linejoin:miter;stroke-miterlimit:4;stroke-dasharray:none;stroke-dashoffset:0;stroke-opacity:1;paint-order:fill markers stroke"/>
      <circle r="1.5875001" cy="39.687466" cx="203.19998" id="circle6383" style="opacity:1;fill:#808080;fill-opacity:1;stroke:none;stroke-width:0.1763889;stroke-linecap:butt;stroke-linejoin:miter;stroke-miterlimit:38.37685394;stroke-dasharray:none;stroke-dashoffset:0;stroke-opacity:1;paint-order:markers fill stroke"/>
      <circle style="opacity:1;fill:#808080;fill-opacity:1;stroke:none;stroke-width:0.1763889;stroke-linecap:butt;stroke-linejoin:miter;stroke-miterlimit:38.37685394;stroke-dasharray:none;stroke-dashoffset:0;stroke-opacity:1;paint-order:markers fill stroke" id="circle6403" cx="248.44371" cy="98.425026" r="1.5875001"/>
      <circle style="opacity:1;fill:#808080;fill-opacity:1;stroke:none;stroke-width:0.1763889;stroke-linecap:butt;stroke-linejoin:miter;stroke-miterlimit:38.37685394;stroke-dasharray:none;stroke-dashoffset:0;stroke-opacity:1;paint-order:markers fill stroke" id="circle6423" cx="225.425" cy="93.662407" r="4.7625003"/>
    </g>
    </g></svg>
