<?xml version='1.0' encoding='UTF-8'?>
<!-- Created with Inkscape (http://www.inkscape.org/) and export_objects.py -->
<svg xmlns:cc="http://creativecommons.org/ns#" xmlns:dc="http://purl.org/dc/elements/1.1/" xmlns:inkscape="http://www.inkscape.org/namespaces/inkscape" xmlns:rdf="http://www.w3.org/1999/02/22-rdf-syntax-ns#" xmlns:sodipodi="http://sodipodi.sourceforge.net/DTD/sodipodi-0.dtd" xmlns:xlink="http://www.w3.org/1999/xlink" xmlns="http://www.w3.org/2000/svg" version="1.1" width="2.25in" height="3.5in" viewBox="0 0 57.15 88.9" id="svg8" sodipodi:docname="crescent-09.svg" inkscape:version="0.92.3 (2405546, 2018-03-11)"><sodipodi:namedview id="base" pagecolor="#ffffff" bordercolor="#666666" borderopacity="1.0" inkscape:pageopacity="0.0" inkscape:pageshadow="2" inkscape:zoom="0.42916667" inkscape:cx="1600.029" inkscape:cy="840" inkscape:document-units="in" inkscape:current-layer="layer10" showgrid="false" units="in" inkscape:measure-start="96,426" inkscape:measure-end="132,426" inkscape:snap-bbox="false" inkscape:snap-nodes="true" inkscape:snap-others="true" inkscape:bbox-nodes="true" inkscape:snap-bbox-edge-midpoints="true" inkscape:snap-text-baseline="true" inkscape:snap-center="true" inkscape:snap-object-midpoints="true" showguides="true" inkscape:snap-smooth-nodes="false" inkscape:snap-bbox-midpoints="true" inkscape:window-width="1920" inkscape:window-height="986" inkscape:window-x="-11" inkscape:window-y="-11" inkscape:window-maximized="1" inkscape:object-nodes="true" inkscape:guide-bbox="true" inkscape:snap-intersection-paths="false" fit-margin-top="0" fit-margin-left="0" fit-margin-right="0" fit-margin-bottom="0">
    <inkscape:grid type="xygrid" id="grid10" units="pt" spacingx="0.79375002" spacingy="0.79375002" originx="-25.4" originy="-25.39999"/>
  </sodipodi:namedview>
  <metadata id="metadata5">
    <rdf:RDF>
      <cc:Work rdf:about="">
        <dc:format>image/svg+xml</dc:format>
        <dc:type rdf:resource="http://purl.org/dc/dcmitype/StillImage"/>
        <dc:title/>
      </cc:Work>
    </rdf:RDF>
  </metadata>
  <g inkscape:groupmode="layer" inkscape:label="crescent-" transform="matrix(1.000000,0.000000,0.000000,1.000000,0.000000,-266.700000)"><g transform="translate(-25.400002,254)" style="display:inline" id="g1087" inkscape:label="09">
      <rect style="display:inline;opacity:1;fill:#ffffff;fill-opacity:1;stroke:none;stroke-width:0.1763889;stroke-linecap:butt;stroke-linejoin:miter;stroke-miterlimit:38.37685394;stroke-dasharray:none;stroke-dashoffset:0;stroke-opacity:1;paint-order:markers fill stroke" id="rect5939" width="57.150002" height="88.900002" x="25.400002" y="12.700001"/>
      <g id="text5961" style="font-style:normal;font-variant:normal;font-weight:normal;font-stretch:normal;font-size:11.28888988px;line-height:125%;font-family:Paddington;-inkscape-font-specification:'Paddington, Normal';font-variant-ligatures:normal;font-variant-caps:normal;font-variant-numeric:normal;font-feature-settings:normal;text-align:center;letter-spacing:0px;word-spacing:0px;writing-mode:lr-tb;text-anchor:middle;display:inline;fill:#827a00;fill-opacity:1;stroke:none;stroke-width:0.26458335" aria-label="0">
        <path id="path8447" style="font-size:16.93333435px;fill:#827a00;fill-opacity:1;stroke:none;stroke-width:0.26458335" d="m 35.443451,19.91359 q 0,1.998133 -0.778933,3.556 -1.016,2.015067 -2.9464,2.015067 -1.913467,0 -2.929467,-2.015067 -0.778934,-1.557867 -0.778934,-3.556 0,-1.998134 0.778934,-3.556 1.016,-2.015067 2.929467,-2.015067 1.947333,0 2.9464,1.998133 0.778933,1.557867 0.778933,3.572934 z m -1.896533,0 q 0,-1.236134 -0.3556,-2.3368 -0.491067,-1.524 -1.439334,-1.524 -0.592666,0 -1.0668,0.8128 -0.389466,0.643466 -0.5588,1.507066 -0.1524,0.762 -0.1524,1.540934 0,1.27 0.338667,2.3368 0.474133,1.507067 1.439333,1.507067 0.982134,0 1.456267,-1.507067 0.338667,-1.0668 0.338667,-2.3368 z" inkscape:connector-curvature="0"/>
      </g>
      <g id="text6001" style="font-style:normal;font-variant:normal;font-weight:normal;font-stretch:normal;font-size:11.28888988px;line-height:125%;font-family:Paddington;-inkscape-font-specification:'Paddington, Normal';font-variant-ligatures:normal;font-variant-caps:normal;font-variant-numeric:normal;font-feature-settings:normal;text-align:center;letter-spacing:0px;word-spacing:0px;writing-mode:lr-tb;text-anchor:middle;display:inline;fill:#827a00;fill-opacity:1;stroke:none;stroke-width:0.26458335" aria-label="0">
        <path id="path8417" style="font-size:16.93333435px;fill:#827a00;fill-opacity:1;stroke:none;stroke-width:0.26458335" d="m 80.687172,78.65115 q 0,1.998133 -0.778933,3.556 -1.016,2.015067 -2.9464,2.015067 -1.913467,0 -2.929467,-2.015067 -0.778934,-1.557867 -0.778934,-3.556 0,-1.998133 0.778934,-3.556 1.016,-2.015067 2.929467,-2.015067 1.947333,0 2.9464,1.998133 0.778933,1.557867 0.778933,3.572934 z m -1.896533,0 q 0,-1.236133 -0.3556,-2.3368 -0.491067,-1.524 -1.439334,-1.524 -0.592666,0 -1.0668,0.8128 -0.389466,0.643467 -0.5588,1.507067 -0.1524,0.762 -0.1524,1.540933 0,1.27 0.338667,2.3368 0.474133,1.507067 1.439333,1.507067 0.982134,0 1.456267,-1.507067 0.338667,-1.0668 0.338667,-2.3368 z" inkscape:connector-curvature="0"/>
      </g>
      <g id="text6041" style="font-style:normal;font-variant:normal;font-weight:normal;font-stretch:normal;font-size:33.8666687px;line-height:125%;font-family:Paddington;-inkscape-font-specification:'Paddington, Normal';font-variant-ligatures:normal;font-variant-caps:normal;font-variant-numeric:normal;font-feature-settings:normal;text-align:center;letter-spacing:0px;word-spacing:0px;writing-mode:lr-tb;text-anchor:middle;display:inline;fill:#827a00;fill-opacity:1;stroke:none;stroke-width:0.26458335" aria-label="0">
        <path id="path8387" style="font-size:50.80000305px;fill:#827a00;fill-opacity:1;stroke:none;stroke-width:0.26458335" d="m 65.055356,34.340783 q 0,5.9944 -2.3368,10.668001 -3.048,6.0452 -8.839201,6.0452 -5.7404,0 -8.7884,-6.0452 -2.3368,-4.673601 -2.3368,-10.668001 0,-5.9944 2.3368,-10.668001 3.048,-6.0452 8.7884,-6.0452 5.842001,0 8.839201,5.9944 2.3368,4.673601 2.3368,10.718801 z m -5.6896,0 q 0,-3.7084 -1.0668,-7.0104 -1.4732,-4.572001 -4.318001,-4.572001 -1.778,0 -3.2004,2.4384 -1.1684,1.930401 -1.6764,4.521201 -0.4572,2.286 -0.4572,4.6228 0,3.81 1.016,7.0104 1.4224,4.521201 4.318,4.521201 2.946401,0 4.368801,-4.521201 1.016,-3.2004 1.016,-7.0104 z" inkscape:connector-curvature="0"/>
      </g>
      <path style="display:inline;opacity:1;fill:#827a00;fill-opacity:1;stroke:none;stroke-width:0.70555568;stroke-linecap:butt;stroke-linejoin:miter;stroke-miterlimit:4;stroke-dasharray:none;stroke-dashoffset:0;stroke-opacity:1;paint-order:fill markers stroke" d="m 31.883031,27.219137 a 4.7625049,4.7625049 0 0 0 -3.05771,6.00106 4.7625049,4.7625049 0 0 0 6.001081,3.05768 4.7625049,4.7625049 0 0 0 0.08136,-0.0296 4.7625049,4.7625049 0 0 1 -2.987531,-3.02808 4.7625049,4.7625049 0 0 1 2.976587,-5.97148 4.7625049,4.7625049 0 0 0 -3.013667,-0.0296 z" id="path6139" inkscape:connector-curvature="0"/>
      <path inkscape:connector-curvature="0" id="path6159" d="m 77.126752,85.956727 a 4.7625049,4.7625049 0 0 0 -3.05771,6.00106 4.7625049,4.7625049 0 0 0 6.001081,3.05768 4.7625049,4.7625049 0 0 0 0.08136,-0.0296 4.7625049,4.7625049 0 0 1 -2.987531,-3.02808 4.7625049,4.7625049 0 0 1 2.976587,-5.97148 4.7625049,4.7625049 0 0 0 -3.013667,-0.0296 z" style="display:inline;opacity:1;fill:#827a00;fill-opacity:1;stroke:none;stroke-width:0.70555568;stroke-linecap:butt;stroke-linejoin:miter;stroke-miterlimit:4;stroke-dasharray:none;stroke-dashoffset:0;stroke-opacity:1;paint-order:fill markers stroke"/>
      <path inkscape:connector-curvature="0" id="path6179" d="m 54.374095,56.257437 a 14.287515,14.287515 0 0 0 -9.17313,18.00318 14.287515,14.287515 0 0 0 18.003243,9.17304 14.287515,14.287515 0 0 0 0.24408,-0.0888 14.287515,14.287515 0 0 1 -8.962593,-9.08424 14.287515,14.287515 0 0 1 8.929761,-17.91444 14.287515,14.287515 0 0 0 -9.041001,-0.0888 z" style="display:inline;opacity:1;fill:#827a00;fill-opacity:1;stroke:none;stroke-width:0.70555568;stroke-linecap:butt;stroke-linejoin:miter;stroke-miterlimit:4;stroke-dasharray:none;stroke-dashoffset:0;stroke-opacity:1;paint-order:fill markers stroke"/>
      <circle r="1.5875001" cy="39.687496" cx="31.75" id="circle6379" style="opacity:1;fill:#808080;fill-opacity:1;stroke:none;stroke-width:0.1763889;stroke-linecap:butt;stroke-linejoin:miter;stroke-miterlimit:38.37685394;stroke-dasharray:none;stroke-dashoffset:0;stroke-opacity:1;paint-order:markers fill stroke"/>
      <circle style="opacity:1;fill:#808080;fill-opacity:1;stroke:none;stroke-width:0.1763889;stroke-linecap:butt;stroke-linejoin:miter;stroke-miterlimit:38.37685394;stroke-dasharray:none;stroke-dashoffset:0;stroke-opacity:1;paint-order:markers fill stroke" id="circle6399" cx="76.993721" cy="98.425056" r="1.5875001"/>
      <circle style="opacity:1;fill:#808080;fill-opacity:1;stroke:none;stroke-width:0.1763889;stroke-linecap:butt;stroke-linejoin:miter;stroke-miterlimit:38.37685394;stroke-dasharray:none;stroke-dashoffset:0;stroke-opacity:1;paint-order:markers fill stroke" id="circle6419" cx="53.975002" cy="93.662498" r="4.7625003"/>
    </g>
    </g></svg>
