<?xml version='1.0' encoding='UTF-8'?>
<!-- Created with Inkscape (http://www.inkscape.org/) and export_objects.py -->
<svg xmlns:cc="http://creativecommons.org/ns#" xmlns:dc="http://purl.org/dc/elements/1.1/" xmlns:inkscape="http://www.inkscape.org/namespaces/inkscape" xmlns:rdf="http://www.w3.org/1999/02/22-rdf-syntax-ns#" xmlns:sodipodi="http://sodipodi.sourceforge.net/DTD/sodipodi-0.dtd" xmlns:xlink="http://www.w3.org/1999/xlink" xmlns="http://www.w3.org/2000/svg" version="1.1" width="2.25in" height="3.5in" viewBox="0 0 57.15 88.9" id="svg8" sodipodi:docname="crescent-00.svg" inkscape:version="0.92.3 (2405546, 2018-03-11)"><sodipodi:namedview id="base" pagecolor="#ffffff" bordercolor="#666666" borderopacity="1.0" inkscape:pageopacity="0.0" inkscape:pageshadow="2" inkscape:zoom="0.42916667" inkscape:cx="1600.029" inkscape:cy="840" inkscape:document-units="in" inkscape:current-layer="layer10" showgrid="false" units="in" inkscape:measure-start="96,426" inkscape:measure-end="132,426" inkscape:snap-bbox="false" inkscape:snap-nodes="true" inkscape:snap-others="true" inkscape:bbox-nodes="true" inkscape:snap-bbox-edge-midpoints="true" inkscape:snap-text-baseline="true" inkscape:snap-center="true" inkscape:snap-object-midpoints="true" showguides="true" inkscape:snap-smooth-nodes="false" inkscape:snap-bbox-midpoints="true" inkscape:window-width="1920" inkscape:window-height="986" inkscape:window-x="-11" inkscape:window-y="-11" inkscape:window-maximized="1" inkscape:object-nodes="true" inkscape:guide-bbox="true" inkscape:snap-intersection-paths="false" fit-margin-top="0" fit-margin-left="0" fit-margin-right="0" fit-margin-bottom="0">
    <inkscape:grid type="xygrid" id="grid10" units="pt" spacingx="0.79375002" spacingy="0.79375002" originx="-25.4" originy="-25.39999"/>
  </sodipodi:namedview>
  <metadata id="metadata5">
    <rdf:RDF>
      <cc:Work rdf:about="">
        <dc:format>image/svg+xml</dc:format>
        <dc:type rdf:resource="http://purl.org/dc/dcmitype/StillImage"/>
        <dc:title/>
      </cc:Work>
    </rdf:RDF>
  </metadata>
  <g inkscape:groupmode="layer" inkscape:label="crescent-" transform="matrix(1.000000,0.000000,0.000000,1.000000,-514.350053,-266.700000)"><g id="g3138" inkscape:label="00">
      <rect y="12.700001" x="539.75006" height="88.900002" width="57.150002" id="rect5957" style="display:inline;opacity:1;fill:#ffffff;fill-opacity:1;stroke:none;stroke-width:0.1763889;stroke-linecap:butt;stroke-linejoin:miter;stroke-miterlimit:38.37685394;stroke-dasharray:none;stroke-dashoffset:0;stroke-opacity:1;paint-order:markers fill stroke" transform="translate(-25.400002,254)"/>
      <g id="text5997" style="font-style:normal;font-variant:normal;font-weight:normal;font-stretch:normal;font-size:11.28888988px;line-height:125%;font-family:Paddington;-inkscape-font-specification:'Paddington, Normal';font-variant-ligatures:normal;font-variant-caps:normal;font-variant-numeric:normal;font-feature-settings:normal;text-align:center;letter-spacing:0px;word-spacing:0px;writing-mode:lr-tb;text-anchor:middle;display:inline;fill:#827a00;fill-opacity:1;stroke:none;stroke-width:0.26458335" aria-label="9" transform="translate(-25.400002,254)">
        <path inkscape:connector-curvature="0" id="path8420" style="font-size:16.93333435px;fill:#827a00;fill-opacity:1;stroke:none;stroke-width:0.26458335" d="m 549.79547,18.660523 q 0,1.9304 -1.13453,3.793067 -1.0668,1.761067 -2.794,2.9464 h -2.60773 q 3.2512,-2.3368 4.1148,-4.572 -0.9652,0.4064 -1.60867,0.4064 -1.49013,0 -2.52307,-0.982134 -1.016,-0.982133 -1.016,-2.3876 0,-1.524 1.15147,-2.54 1.1684,-1.032933 2.794,-1.032933 1.74413,0 2.76013,1.439333 0.8636,1.236134 0.8636,2.929467 z m -1.89653,-0.0508 q -0.0339,-1.016 -0.47413,-1.744133 -0.52494,-0.829734 -1.3716,-0.829734 -0.72814,0 -1.3208,0.474134 -0.59267,0.474133 -0.59267,1.202266 0,0.7112 0.49107,1.253067 0.49106,0.541867 1.13453,0.541867 0.6604,0 1.13453,-0.220134 0.4064,-0.169333 0.99907,-0.677333 z"/>
      </g>
      <g id="text6037" style="font-style:normal;font-variant:normal;font-weight:normal;font-stretch:normal;font-size:11.28888988px;line-height:125%;font-family:Paddington;-inkscape-font-specification:'Paddington, Normal';font-variant-ligatures:normal;font-variant-caps:normal;font-variant-numeric:normal;font-feature-settings:normal;text-align:center;letter-spacing:0px;word-spacing:0px;writing-mode:lr-tb;text-anchor:middle;display:inline;fill:#827a00;fill-opacity:1;stroke:none;stroke-width:0.26458335" aria-label="9" transform="translate(-25.400002,254)">
        <path inkscape:connector-curvature="0" id="path8390" style="font-size:16.93333435px;fill:#827a00;fill-opacity:1;stroke:none;stroke-width:0.26458335" d="m 595.03919,77.398083 q 0,1.9304 -1.13454,3.793067 -1.0668,1.761067 -2.794,2.9464 h -2.60773 q 3.2512,-2.3368 4.1148,-4.572 -0.9652,0.4064 -1.60867,0.4064 -1.49013,0 -2.52306,-0.982133 -1.016,-0.982134 -1.016,-2.3876 0,-1.524001 1.15146,-2.540001 1.1684,-1.032933 2.794,-1.032933 1.74414,0 2.76014,1.439333 0.8636,1.236134 0.8636,2.929467 z m -1.89654,-0.0508 q -0.0339,-1.016 -0.47413,-1.744133 -0.52493,-0.829734 -1.3716,-0.829734 -0.72813,0 -1.3208,0.474134 -0.59267,0.474133 -0.59267,1.202267 0,0.7112 0.49107,1.253066 0.49107,0.541867 1.13453,0.541867 0.6604,0 1.13454,-0.220133 0.4064,-0.169334 0.99906,-0.677334 z"/>
      </g>
      <g id="text6077" style="font-style:normal;font-variant:normal;font-weight:normal;font-stretch:normal;font-size:33.8666687px;line-height:125%;font-family:Paddington;-inkscape-font-specification:'Paddington, Normal';font-variant-ligatures:normal;font-variant-caps:normal;font-variant-numeric:normal;font-feature-settings:normal;text-align:center;letter-spacing:0px;word-spacing:0px;writing-mode:lr-tb;text-anchor:middle;display:inline;fill:#827a00;fill-opacity:1;stroke:none;stroke-width:0.26458335" aria-label="9" transform="translate(-25.400002,254)">
        <path inkscape:connector-curvature="0" id="path8360" style="font-size:50.80000305px;fill:#827a00;fill-opacity:1;stroke:none;stroke-width:0.26458335" d="m 579.41132,30.581583 q 0,5.7912 -3.4036,11.3792 -3.2004,5.283201 -8.382,8.839201 h -7.8232 q 9.7536,-7.0104 12.3444,-13.716001 -2.8956,1.2192 -4.826,1.2192 -4.4704,0 -7.5692,-2.9464 -3.048,-2.9464 -3.048,-7.1628 0,-4.572001 3.4544,-7.620001 3.5052,-3.0988 8.382,-3.0988 5.2324,0 8.2804,4.318 2.5908,3.7084 2.5908,8.788401 z m -5.6896,-0.1524 q -0.1016,-3.048 -1.4224,-5.232401 -1.5748,-2.4892 -4.1148,-2.4892 -2.1844,0 -3.9624,1.4224 -1.778,1.4224 -1.778,3.606801 0,2.1336 1.4732,3.7592 1.4732,1.6256 3.4036,1.6256 1.9812,0 3.4036,-0.6604 1.2192,-0.508 2.9972,-2.032 z"/>
      </g>
      <path inkscape:connector-curvature="0" id="path6157" d="m 546.23303,27.219087 a 4.7625049,4.7625049 0 0 0 -3.0577,6.00106 4.7625049,4.7625049 0 0 0 6.00107,3.05768 4.7625049,4.7625049 0 0 0 0.0814,-0.0296 4.7625049,4.7625049 0 0 1 -2.98753,-3.02808 4.7625049,4.7625049 0 0 1 2.97659,-5.97148 4.7625049,4.7625049 0 0 0 -3.01367,-0.0296 z" style="display:inline;opacity:1;fill:#827a00;fill-opacity:1;stroke:none;stroke-width:0.70555568;stroke-linecap:butt;stroke-linejoin:miter;stroke-miterlimit:4;stroke-dasharray:none;stroke-dashoffset:0;stroke-opacity:1;paint-order:fill markers stroke" transform="translate(-25.400002,254)"/>
      <path style="display:inline;opacity:1;fill:#827a00;fill-opacity:1;stroke:none;stroke-width:0.70555568;stroke-linecap:butt;stroke-linejoin:miter;stroke-miterlimit:4;stroke-dasharray:none;stroke-dashoffset:0;stroke-opacity:1;paint-order:fill markers stroke" d="m 591.47674,85.956677 a 4.7625049,4.7625049 0 0 0 -3.0577,6.00106 4.7625049,4.7625049 0 0 0 6.00107,3.05768 4.7625049,4.7625049 0 0 0 0.0814,-0.0296 4.7625049,4.7625049 0 0 1 -2.98753,-3.02808 4.7625049,4.7625049 0 0 1 2.97659,-5.97148 4.7625049,4.7625049 0 0 0 -3.01367,-0.0296 z" id="path6177" inkscape:connector-curvature="0" transform="translate(-25.400002,254)"/>
      <path style="display:inline;opacity:1;fill:#827a00;fill-opacity:1;stroke:none;stroke-width:0.70555568;stroke-linecap:butt;stroke-linejoin:miter;stroke-miterlimit:4;stroke-dasharray:none;stroke-dashoffset:0;stroke-opacity:1;paint-order:fill markers stroke" d="m 568.72406,56.257277 a 14.287515,14.287515 0 0 0 -9.1731,18.00318 14.287515,14.287515 0 0 0 18.00321,9.17304 14.287515,14.287515 0 0 0 0.2442,-0.0888 14.287515,14.287515 0 0 1 -8.96259,-9.08424 14.287515,14.287515 0 0 1 8.92977,-17.91444 14.287515,14.287515 0 0 0 -9.04101,-0.0888 z" id="path6197" inkscape:connector-curvature="0" transform="translate(-25.400002,254)"/>
    </g>
    </g></svg>
