<?xml version='1.0' encoding='UTF-8'?>
<!-- Created with Inkscape (http://www.inkscape.org/) and export_objects.py -->
<svg xmlns:cc="http://creativecommons.org/ns#" xmlns:dc="http://purl.org/dc/elements/1.1/" xmlns:inkscape="http://www.inkscape.org/namespaces/inkscape" xmlns:rdf="http://www.w3.org/1999/02/22-rdf-syntax-ns#" xmlns:sodipodi="http://sodipodi.sourceforge.net/DTD/sodipodi-0.dtd" xmlns:xlink="http://www.w3.org/1999/xlink" xmlns="http://www.w3.org/2000/svg" version="1.1" width="2.25in" height="3.5in" viewBox="0 0 57.15 88.9" id="svg8" sodipodi:docname="crescent-03.svg" inkscape:version="0.92.3 (2405546, 2018-03-11)"><sodipodi:namedview id="base" pagecolor="#ffffff" bordercolor="#666666" borderopacity="1.0" inkscape:pageopacity="0.0" inkscape:pageshadow="2" inkscape:zoom="0.42916667" inkscape:cx="1600.029" inkscape:cy="840" inkscape:document-units="in" inkscape:current-layer="layer10" showgrid="false" units="in" inkscape:measure-start="96,426" inkscape:measure-end="132,426" inkscape:snap-bbox="false" inkscape:snap-nodes="true" inkscape:snap-others="true" inkscape:bbox-nodes="true" inkscape:snap-bbox-edge-midpoints="true" inkscape:snap-text-baseline="true" inkscape:snap-center="true" inkscape:snap-object-midpoints="true" showguides="true" inkscape:snap-smooth-nodes="false" inkscape:snap-bbox-midpoints="true" inkscape:window-width="1920" inkscape:window-height="986" inkscape:window-x="-11" inkscape:window-y="-11" inkscape:window-maximized="1" inkscape:object-nodes="true" inkscape:guide-bbox="true" inkscape:snap-intersection-paths="false" fit-margin-top="0" fit-margin-left="0" fit-margin-right="0" fit-margin-bottom="0">
    <inkscape:grid type="xygrid" id="grid10" units="pt" spacingx="0.79375002" spacingy="0.79375002" originx="-25.4" originy="-25.39999"/>
  </sodipodi:namedview>
  <metadata id="metadata5">
    <rdf:RDF>
      <cc:Work rdf:about="">
        <dc:format>image/svg+xml</dc:format>
        <dc:type rdf:resource="http://purl.org/dc/dcmitype/StillImage"/>
        <dc:title/>
      </cc:Work>
    </rdf:RDF>
  </metadata>
  <g inkscape:groupmode="layer" inkscape:label="crescent-" transform="matrix(1.000000,0.000000,0.000000,1.000000,-342.900000,-266.700000)"><g transform="translate(-25.400002,254)" style="display:inline" id="g815" inkscape:label="03">
      <rect y="12.700001" x="368.30002" height="88.900002" width="57.150002" id="rect5951" style="display:inline;opacity:1;fill:#ffffff;fill-opacity:1;stroke:none;stroke-width:0.1763889;stroke-linecap:butt;stroke-linejoin:miter;stroke-miterlimit:38.37685394;stroke-dasharray:none;stroke-dashoffset:0;stroke-opacity:1;paint-order:markers fill stroke"/>
      <g id="text5985" style="font-style:normal;font-variant:normal;font-weight:normal;font-stretch:normal;font-size:11.28888988px;line-height:125%;font-family:Paddington;-inkscape-font-specification:'Paddington, Normal';font-variant-ligatures:normal;font-variant-caps:normal;font-variant-numeric:normal;font-feature-settings:normal;text-align:center;letter-spacing:0px;word-spacing:0px;writing-mode:lr-tb;text-anchor:middle;display:inline;fill:#827a00;fill-opacity:1;stroke:none;stroke-width:0.26458335" aria-label="6">
        <path id="path8429" style="font-size:16.93333435px;fill:#827a00;fill-opacity:1;stroke:none;stroke-width:0.26458335" d="m 378.46201,21.99639 q 0,1.524 -1.10067,2.556933 -1.08373,1.016 -2.6924,1.016 -1.8288,0 -2.87866,-1.303866 -0.9652,-1.185334 -0.9652,-2.929467 0,-1.862667 1.03293,-3.826934 1.04987,-1.964267 2.62467,-3.064933 h 2.794 q -2.6416,1.3208 -3.99627,4.4704 0.74507,-0.338667 1.69333,-0.338667 1.49014,0 2.4892,1.016 0.99907,0.999067 0.99907,2.404534 z m -1.99813,0.118533 q 0,-0.694266 -0.49107,-1.2192 -0.49107,-0.541867 -1.13453,-0.541867 -1.27,0 -1.84574,0.728134 -0.16933,0.220133 -0.16933,0.8636 0,0.8128 0.6096,1.354667 0.6096,0.524933 1.40547,0.524933 0.6604,0 1.13453,-0.491067 0.49107,-0.508 0.49107,-1.2192 z" inkscape:connector-curvature="0"/>
      </g>
      <g id="text6025" style="font-style:normal;font-variant:normal;font-weight:normal;font-stretch:normal;font-size:11.28888988px;line-height:125%;font-family:Paddington;-inkscape-font-specification:'Paddington, Normal';font-variant-ligatures:normal;font-variant-caps:normal;font-variant-numeric:normal;font-feature-settings:normal;text-align:center;letter-spacing:0px;word-spacing:0px;writing-mode:lr-tb;text-anchor:middle;display:inline;fill:#827a00;fill-opacity:1;stroke:none;stroke-width:0.26458335" aria-label="6">
        <path id="path8399" style="font-size:16.93333435px;fill:#827a00;fill-opacity:1;stroke:none;stroke-width:0.26458335" d="m 423.70569,80.73395 q 0,1.524 -1.10066,2.556934 -1.08374,1.016 -2.69241,1.016 -1.8288,0 -2.87866,-1.303867 -0.9652,-1.185333 -0.9652,-2.929467 0,-1.862667 1.03293,-3.826933 1.04987,-1.964267 2.62467,-3.064934 h 2.794 q -2.6416,1.3208 -3.99627,4.4704 0.74507,-0.338666 1.69334,-0.338666 1.49013,0 2.4892,1.016 0.99906,0.999066 0.99906,2.404533 z m -1.99813,0.118533 q 0,-0.694266 -0.49107,-1.2192 -0.49106,-0.541866 -1.13453,-0.541866 -1.27,0 -1.84574,0.728133 -0.16933,0.220133 -0.16933,0.8636 0,0.8128 0.6096,1.354667 0.6096,0.524933 1.40547,0.524933 0.6604,0 1.13453,-0.491066 0.49107,-0.508 0.49107,-1.219201 z" inkscape:connector-curvature="0"/>
      </g>
      <g id="text6065" style="font-style:normal;font-variant:normal;font-weight:normal;font-stretch:normal;font-size:33.8666687px;line-height:125%;font-family:Paddington;-inkscape-font-specification:'Paddington, Normal';font-variant-ligatures:normal;font-variant-caps:normal;font-variant-numeric:normal;font-feature-settings:normal;text-align:center;letter-spacing:0px;word-spacing:0px;writing-mode:lr-tb;text-anchor:middle;display:inline;fill:#827a00;fill-opacity:1;stroke:none;stroke-width:0.26458335" aria-label="6">
        <path id="path8369" style="font-size:50.80000305px;fill:#827a00;fill-opacity:1;stroke:none;stroke-width:0.26458335" d="m 408.31095,40.589183 q 0,4.572001 -3.302,7.670801 -3.2512,3.048 -8.0772,3.048 -5.4864,0 -8.636,-3.9116 -2.8956,-3.556 -2.8956,-8.788401 0,-5.588 3.0988,-11.4808 3.1496,-5.892801 7.874,-9.194801 h 8.382 q -7.9248,3.9624 -11.9888,13.411201 2.2352,-1.016 5.08,-1.016 4.4704,0 7.4676,3.048 2.9972,2.9972 2.9972,7.2136 z m -5.9944,0.3556 q 0,-2.0828 -1.4732,-3.6576 -1.4732,-1.6256 -3.4036,-1.6256 -3.81,0 -5.5372,2.1844 -0.508,0.6604 -0.508,2.5908 0,2.438401 1.8288,4.064001 1.8288,1.5748 4.2164,1.5748 1.9812,0 3.4036,-1.4732 1.4732,-1.524 1.4732,-3.657601 z" inkscape:connector-curvature="0"/>
      </g>
      <path inkscape:connector-curvature="0" id="path6151" d="m 374.78305,27.219107 a 4.7625049,4.7625049 0 0 0 -3.05771,6.00106 4.7625049,4.7625049 0 0 0 6.00108,3.05768 4.7625049,4.7625049 0 0 0 0.0814,-0.0296 4.7625049,4.7625049 0 0 1 -2.98753,-3.02808 4.7625049,4.7625049 0 0 1 2.97659,-5.97148 4.7625049,4.7625049 0 0 0 -3.01367,-0.0296 z" style="display:inline;opacity:1;fill:#827a00;fill-opacity:1;stroke:none;stroke-width:0.70555568;stroke-linecap:butt;stroke-linejoin:miter;stroke-miterlimit:4;stroke-dasharray:none;stroke-dashoffset:0;stroke-opacity:1;paint-order:fill markers stroke"/>
      <path style="display:inline;opacity:1;fill:#827a00;fill-opacity:1;stroke:none;stroke-width:0.70555568;stroke-linecap:butt;stroke-linejoin:miter;stroke-miterlimit:4;stroke-dasharray:none;stroke-dashoffset:0;stroke-opacity:1;paint-order:fill markers stroke" d="m 420.02676,85.956697 a 4.7625049,4.7625049 0 0 0 -3.05771,6.00106 4.7625049,4.7625049 0 0 0 6.00108,3.05768 4.7625049,4.7625049 0 0 0 0.0814,-0.0296 4.7625049,4.7625049 0 0 1 -2.98753,-3.02808 4.7625049,4.7625049 0 0 1 2.97659,-5.97148 4.7625049,4.7625049 0 0 0 -3.01367,-0.0296 z" id="path6171" inkscape:connector-curvature="0"/>
      <path style="display:inline;opacity:1;fill:#827a00;fill-opacity:1;stroke:none;stroke-width:0.70555568;stroke-linecap:butt;stroke-linejoin:miter;stroke-miterlimit:4;stroke-dasharray:none;stroke-dashoffset:0;stroke-opacity:1;paint-order:fill markers stroke" d="m 397.2741,56.257327 a 14.287515,14.287515 0 0 0 -9.17313,18.00318 14.287515,14.287515 0 0 0 18.00324,9.17304 14.287515,14.287515 0 0 0 0.2442,-0.0888 14.287515,14.287515 0 0 1 -8.96259,-9.08424 14.287515,14.287515 0 0 1 8.92977,-17.91444 14.287515,14.287515 0 0 0 -9.04101,-0.0888 z" id="path6191" inkscape:connector-curvature="0"/>
      <circle r="1.5875001" cy="39.68745" cx="372.26877" id="circle6389" style="opacity:1;fill:#808080;fill-opacity:1;stroke:none;stroke-width:0.1763889;stroke-linecap:butt;stroke-linejoin:miter;stroke-miterlimit:38.37685394;stroke-dasharray:none;stroke-dashoffset:0;stroke-opacity:1;paint-order:markers fill stroke"/>
      <circle r="1.5875001" cy="39.68745" cx="377.03128" id="circle6391" style="opacity:1;fill:#808080;fill-opacity:1;stroke:none;stroke-width:0.1763889;stroke-linecap:butt;stroke-linejoin:miter;stroke-miterlimit:38.37685394;stroke-dasharray:none;stroke-dashoffset:0;stroke-opacity:1;paint-order:markers fill stroke"/>
      <circle style="opacity:1;fill:#808080;fill-opacity:1;stroke:none;stroke-width:0.1763889;stroke-linecap:butt;stroke-linejoin:miter;stroke-miterlimit:38.37685394;stroke-dasharray:none;stroke-dashoffset:0;stroke-opacity:1;paint-order:markers fill stroke" id="circle6409" cx="417.51245" cy="98.425011" r="1.5875001"/>
      <circle style="opacity:1;fill:#808080;fill-opacity:1;stroke:none;stroke-width:0.1763889;stroke-linecap:butt;stroke-linejoin:miter;stroke-miterlimit:38.37685394;stroke-dasharray:none;stroke-dashoffset:0;stroke-opacity:1;paint-order:markers fill stroke" id="circle6411" cx="422.27496" cy="98.425011" r="1.5875001"/>
      <circle style="opacity:1;fill:#808080;fill-opacity:1;stroke:none;stroke-width:0.1763889;stroke-linecap:butt;stroke-linejoin:miter;stroke-miterlimit:38.37685394;stroke-dasharray:none;stroke-dashoffset:0;stroke-opacity:1;paint-order:markers fill stroke" id="circle6429" cx="389.73123" cy="93.662361" r="4.7625003"/>
      <circle style="opacity:1;fill:#808080;fill-opacity:1;stroke:none;stroke-width:0.1763889;stroke-linecap:butt;stroke-linejoin:miter;stroke-miterlimit:38.37685394;stroke-dasharray:none;stroke-dashoffset:0;stroke-opacity:1;paint-order:markers fill stroke" id="circle6431" cx="404.01877" cy="93.662361" r="4.7625003"/>
    </g>
    </g></svg>
