<?xml version='1.0' encoding='UTF-8'?>
<!-- Created with Inkscape (http://www.inkscape.org/) and export_objects.py -->
<svg xmlns:cc="http://creativecommons.org/ns#" xmlns:dc="http://purl.org/dc/elements/1.1/" xmlns:inkscape="http://www.inkscape.org/namespaces/inkscape" xmlns:rdf="http://www.w3.org/1999/02/22-rdf-syntax-ns#" xmlns:sodipodi="http://sodipodi.sourceforge.net/DTD/sodipodi-0.dtd" xmlns:xlink="http://www.w3.org/1999/xlink" xmlns="http://www.w3.org/2000/svg" version="1.1" width="2.25in" height="3.5in" viewBox="0 0 57.15 88.9" id="svg8" sodipodi:docname="droplet-3.svg" inkscape:version="0.92.3 (2405546, 2018-03-11)"><sodipodi:namedview id="base" pagecolor="#ffffff" bordercolor="#666666" borderopacity="1.0" inkscape:pageopacity="0.0" inkscape:pageshadow="2" inkscape:zoom="0.42916667" inkscape:cx="1600.029" inkscape:cy="840" inkscape:document-units="in" inkscape:current-layer="layer10" showgrid="false" units="in" inkscape:measure-start="96,426" inkscape:measure-end="132,426" inkscape:snap-bbox="false" inkscape:snap-nodes="true" inkscape:snap-others="true" inkscape:bbox-nodes="true" inkscape:snap-bbox-edge-midpoints="true" inkscape:snap-text-baseline="true" inkscape:snap-center="true" inkscape:snap-object-midpoints="true" showguides="true" inkscape:snap-smooth-nodes="false" inkscape:snap-bbox-midpoints="true" inkscape:window-width="1920" inkscape:window-height="986" inkscape:window-x="-11" inkscape:window-y="-11" inkscape:window-maximized="1" inkscape:object-nodes="true" inkscape:guide-bbox="true" inkscape:snap-intersection-paths="false" fit-margin-top="0" fit-margin-left="0" fit-margin-right="0" fit-margin-bottom="0">
    <inkscape:grid type="xygrid" id="grid10" units="pt" spacingx="0.79375002" spacingy="0.79375002" originx="-25.4" originy="-25.39999"/>
  </sodipodi:namedview>
  <metadata id="metadata5">
    <rdf:RDF>
      <cc:Work rdf:about="">
        <dc:format>image/svg+xml</dc:format>
        <dc:type rdf:resource="http://purl.org/dc/dcmitype/StillImage"/>
        <dc:title/>
      </cc:Work>
    </rdf:RDF>
  </metadata>
  <g inkscape:groupmode="layer" inkscape:label="droplet-" transform="matrix(1.000000,0.000000,0.000000,1.000000,-171.450003,-355.600000)"><g transform="translate(-25.400002,254)" style="display:inline" id="g8755" inkscape:label="3">
      <rect y="101.60001" x="196.85001" height="88.900002" width="57.150002" id="rect1348" style="display:inline;opacity:1;fill:#ffffff;fill-opacity:1;stroke:none;stroke-width:0.1763889;stroke-linecap:butt;stroke-linejoin:miter;stroke-miterlimit:38.37685394;stroke-dasharray:none;stroke-dashoffset:0;stroke-opacity:1;paint-order:markers fill stroke"/>
      <g id="text1356" style="font-style:normal;font-variant:normal;font-weight:normal;font-stretch:normal;font-size:11.28888988px;line-height:125%;font-family:Paddington;-inkscape-font-specification:'Paddington, Normal';font-variant-ligatures:normal;font-variant-caps:normal;font-variant-numeric:normal;font-feature-settings:normal;text-align:center;letter-spacing:0px;word-spacing:0px;writing-mode:lr-tb;text-anchor:middle;display:inline;fill:#a5180e;fill-opacity:1;stroke:none;stroke-width:0.26458335" aria-label="3">
        <path id="path8528" style="font-size:16.93333435px;fill:#a5180e;fill-opacity:1;stroke:none;stroke-width:0.26458335" d="m 207.11515,103.36106 -2.42146,4.23334 q 0.99906,0.3556 1.59173,1.38853 0.5588,0.93133 0.5588,1.9812 0,1.50707 -1.13453,2.4892 -1.13454,0.9652 -2.72627,0.9652 -0.62653,0 -1.1684,-0.18627 -0.69427,-0.23706 -1.3208,-0.72813 -0.79587,-0.6096 -0.93133,-1.25307 l 1.27,-1.33773 h 0.1016 q 0.8636,1.65947 2.1844,1.65947 0.64346,0 1.13453,-0.4572 0.49107,-0.4572 0.49107,-1.1176 0,-1.1684 -0.8128,-1.65947 -0.7112,-0.42333 -2.1844,-0.42333 l 2.21826,-3.82694 h -4.25026 v -1.7272 z" inkscape:connector-curvature="0"/>
      </g>
      <g id="text1538" style="font-style:normal;font-variant:normal;font-weight:normal;font-stretch:normal;font-size:11.28888988px;line-height:125%;font-family:Paddington;-inkscape-font-specification:'Paddington, Normal';font-variant-ligatures:normal;font-variant-caps:normal;font-variant-numeric:normal;font-feature-settings:normal;text-align:center;letter-spacing:0px;word-spacing:0px;writing-mode:lr-tb;text-anchor:middle;display:inline;fill:#a5180e;fill-opacity:1;stroke:none;stroke-width:0.26458335" aria-label="3">
        <path id="path8498" style="font-size:16.93333435px;fill:#a5180e;fill-opacity:1;stroke:none;stroke-width:0.26458335" d="m 252.35888,162.09863 -2.42146,4.23334 q 0.99906,0.3556 1.59173,1.38853 0.5588,0.93133 0.5588,1.9812 0,1.50707 -1.13453,2.4892 -1.13454,0.9652 -2.72627,0.9652 -0.62653,0 -1.1684,-0.18627 -0.69427,-0.23706 -1.3208,-0.72813 -0.79587,-0.6096 -0.93133,-1.25307 l 1.27,-1.33773 h 0.1016 q 0.8636,1.65947 2.1844,1.65947 0.64346,0 1.13453,-0.4572 0.49107,-0.4572 0.49107,-1.1176 0,-1.1684 -0.8128,-1.65947 -0.7112,-0.42333 -2.1844,-0.42333 l 2.21826,-3.82694 h -4.25026 v -1.7272 z" inkscape:connector-curvature="0"/>
      </g>
      <g id="text1786" style="font-style:normal;font-variant:normal;font-weight:normal;font-stretch:normal;font-size:33.8666687px;line-height:125%;font-family:Paddington;-inkscape-font-specification:'Paddington, Normal';font-variant-ligatures:normal;font-variant-caps:normal;font-variant-numeric:normal;font-feature-settings:normal;text-align:center;letter-spacing:0px;word-spacing:0px;writing-mode:lr-tb;text-anchor:middle;display:inline;fill:#a5180e;fill-opacity:1;stroke:none;stroke-width:0.26458335" aria-label="3">
        <path id="path8468" style="font-size:50.80000305px;fill:#a5180e;fill-opacity:1;stroke:none;stroke-width:0.26458335" d="m 237.17052,106.88319 -7.2644,12.70001 q 2.9972,1.0668 4.7752,4.1656 1.6764,2.794 1.6764,5.9436 0,4.5212 -3.4036,7.4676 -3.4036,2.8956 -8.1788,2.8956 -1.8796,0 -3.5052,-0.5588 -2.0828,-0.7112 -3.9624,-2.1844 -2.3876,-1.8288 -2.794,-3.7592 l 3.81,-4.0132 h 0.3048 q 2.5908,4.9784 6.5532,4.9784 1.9304,0 3.4036,-1.3716 1.4732,-1.3716 1.4732,-3.3528 0,-3.5052 -2.4384,-4.9784 -2.1336,-1.27 -6.5532,-1.27 l 6.6548,-11.4808 h -12.7508 v -5.18161 z" inkscape:connector-curvature="0"/>
      </g>
      <path style="display:inline;opacity:1;fill:#a5180e;fill-opacity:1;stroke:none;stroke-width:0.35277781;stroke-linecap:butt;stroke-linejoin:miter;stroke-miterlimit:4;stroke-dasharray:none;stroke-dashoffset:0;stroke-opacity:1;paint-order:fill markers stroke" d="m 206.56759,122.82843 c -0.40841,1.5242 -1.78963,2.58405 -3.36761,2.58405 -1.57795,0 -2.95917,-1.05985 -3.36758,-2.58405 -0.40841,-1.52419 0.25786,-3.13267 1.6244,-3.92164 1.0787,-0.62278 1.7432,-1.77375 1.7432,-3.01931 -10e-6,1.24557 0.6645,2.39654 1.7432,3.01931 1.36654,0.78897 2.03279,2.39745 1.62439,3.92164 z" id="path1360" inkscape:connector-curvature="0" sodipodi:nodetypes="ccscccc"/>
      <path sodipodi:nodetypes="ccscccc" inkscape:connector-curvature="0" id="path1570" d="m 251.8113,181.56602 c -0.40841,1.5242 -1.78963,2.58405 -3.36761,2.58405 -1.57795,0 -2.95917,-1.05985 -3.36758,-2.58405 -0.40841,-1.52419 0.25786,-3.13267 1.6244,-3.92164 1.0787,-0.62278 1.7432,-1.77375 1.7432,-3.01931 -1e-5,1.24557 0.6645,2.39654 1.7432,3.01931 1.36654,0.78897 2.03279,2.39745 1.62439,3.92164 z" style="display:inline;opacity:1;fill:#a5180e;fill-opacity:1;stroke:none;stroke-width:0.35277781;stroke-linecap:butt;stroke-linejoin:miter;stroke-miterlimit:4;stroke-dasharray:none;stroke-dashoffset:0;stroke-opacity:1;paint-order:fill markers stroke"/>
      <path sodipodi:nodetypes="ccscccc" inkscape:connector-curvature="0" id="path1788" d="m 235.52783,165.28528 c -1.22523,4.5726 -5.36889,7.75215 -10.10283,7.75215 -4.73385,0 -8.87751,-3.17955 -10.10274,-7.75215 -1.22523,-4.57257 0.77358,-9.39801 4.8732,-11.76492 3.2361,-1.86834 5.2296,-5.32125 5.2296,-9.05793 -3e-5,3.73671 1.9935,7.18962 5.2296,9.05793 4.09962,2.36691 6.09837,7.19235 4.87317,11.76492 z" style="display:inline;opacity:1;fill:#a5180e;fill-opacity:1;stroke:none;stroke-width:0.35277781;stroke-linecap:butt;stroke-linejoin:miter;stroke-miterlimit:4;stroke-dasharray:none;stroke-dashoffset:0;stroke-opacity:1;paint-order:fill markers stroke"/>
      <circle style="opacity:1;fill:#808080;fill-opacity:1;stroke:none;stroke-width:0.1763889;stroke-linecap:butt;stroke-linejoin:miter;stroke-miterlimit:38.37685394;stroke-dasharray:none;stroke-dashoffset:0;stroke-opacity:1;paint-order:markers fill stroke" id="circle1388" cx="203.19998" cy="128.58748" r="1.5875001"/>
      <circle r="1.5875001" cy="187.32504" cx="248.44371" id="circle1686" style="opacity:1;fill:#808080;fill-opacity:1;stroke:none;stroke-width:0.1763889;stroke-linecap:butt;stroke-linejoin:miter;stroke-miterlimit:38.37685394;stroke-dasharray:none;stroke-dashoffset:0;stroke-opacity:1;paint-order:markers fill stroke"/>
      <circle r="4.7625003" cy="182.56242" cx="225.425" id="circle1802" style="opacity:1;fill:#808080;fill-opacity:1;stroke:none;stroke-width:0.1763889;stroke-linecap:butt;stroke-linejoin:miter;stroke-miterlimit:38.37685394;stroke-dasharray:none;stroke-dashoffset:0;stroke-opacity:1;paint-order:markers fill stroke"/>
    </g>
    </g></svg>
