<?xml version='1.0' encoding='UTF-8'?>
<!-- Created with Inkscape (http://www.inkscape.org/) and export_objects.py -->
<svg xmlns:cc="http://creativecommons.org/ns#" xmlns:dc="http://purl.org/dc/elements/1.1/" xmlns:inkscape="http://www.inkscape.org/namespaces/inkscape" xmlns:rdf="http://www.w3.org/1999/02/22-rdf-syntax-ns#" xmlns:sodipodi="http://sodipodi.sourceforge.net/DTD/sodipodi-0.dtd" xmlns:xlink="http://www.w3.org/1999/xlink" xmlns="http://www.w3.org/2000/svg" version="1.1" width="2.25in" height="3.5in" viewBox="0 0 57.15 88.9" id="svg8" sodipodi:docname="droplet-6.svg" inkscape:version="0.92.3 (2405546, 2018-03-11)"><sodipodi:namedview id="base" pagecolor="#ffffff" bordercolor="#666666" borderopacity="1.0" inkscape:pageopacity="0.0" inkscape:pageshadow="2" inkscape:zoom="0.42916667" inkscape:cx="1600.029" inkscape:cy="840" inkscape:document-units="in" inkscape:current-layer="layer10" showgrid="false" units="in" inkscape:measure-start="96,426" inkscape:measure-end="132,426" inkscape:snap-bbox="false" inkscape:snap-nodes="true" inkscape:snap-others="true" inkscape:bbox-nodes="true" inkscape:snap-bbox-edge-midpoints="true" inkscape:snap-text-baseline="true" inkscape:snap-center="true" inkscape:snap-object-midpoints="true" showguides="true" inkscape:snap-smooth-nodes="false" inkscape:snap-bbox-midpoints="true" inkscape:window-width="1920" inkscape:window-height="986" inkscape:window-x="-11" inkscape:window-y="-11" inkscape:window-maximized="1" inkscape:object-nodes="true" inkscape:guide-bbox="true" inkscape:snap-intersection-paths="false" fit-margin-top="0" fit-margin-left="0" fit-margin-right="0" fit-margin-bottom="0">
    <inkscape:grid type="xygrid" id="grid10" units="pt" spacingx="0.79375002" spacingy="0.79375002" originx="-25.4" originy="-25.39999"/>
  </sodipodi:namedview>
  <metadata id="metadata5">
    <rdf:RDF>
      <cc:Work rdf:about="">
        <dc:format>image/svg+xml</dc:format>
        <dc:type rdf:resource="http://purl.org/dc/dcmitype/StillImage"/>
        <dc:title/>
      </cc:Work>
    </rdf:RDF>
  </metadata>
  <g inkscape:groupmode="layer" inkscape:label="droplet-" transform="matrix(1.000000,0.000000,0.000000,1.000000,-342.900000,-355.600000)"><g transform="translate(-25.400002,254)" style="display:inline" id="g8875" inkscape:label="6">
      <rect style="display:inline;opacity:1;fill:#ffffff;fill-opacity:1;stroke:none;stroke-width:0.1763889;stroke-linecap:butt;stroke-linejoin:miter;stroke-miterlimit:38.37685394;stroke-dasharray:none;stroke-dashoffset:0;stroke-opacity:1;paint-order:markers fill stroke" id="rect1434" width="57.150002" height="88.900002" x="368.30002" y="101.60001"/>
      <g id="text1440" style="font-style:normal;font-variant:normal;font-weight:normal;font-stretch:normal;font-size:11.28888988px;line-height:125%;font-family:Paddington;-inkscape-font-specification:'Paddington, Normal';font-variant-ligatures:normal;font-variant-caps:normal;font-variant-numeric:normal;font-feature-settings:normal;text-align:center;letter-spacing:0px;word-spacing:0px;writing-mode:lr-tb;text-anchor:middle;display:inline;fill:#a5180e;fill-opacity:1;stroke:none;stroke-width:0.26458335" aria-label="6">
        <path id="path8519" style="font-size:16.93333435px;fill:#a5180e;fill-opacity:1;stroke:none;stroke-width:0.26458335" d="m 378.46201,110.8964 q 0,1.524 -1.10067,2.55693 -1.08373,1.016 -2.6924,1.016 -1.8288,0 -2.87866,-1.30387 -0.9652,-1.18533 -0.9652,-2.92946 0,-1.86267 1.03293,-3.82694 1.04987,-1.96427 2.62467,-3.06493 h 2.794 q -2.6416,1.3208 -3.99627,4.4704 0.74507,-0.33867 1.69333,-0.33867 1.49014,0 2.4892,1.016 0.99907,0.99907 0.99907,2.40454 z m -1.99813,0.11853 q 0,-0.69427 -0.49107,-1.2192 -0.49107,-0.54187 -1.13453,-0.54187 -1.27,0 -1.84574,0.72814 -0.16933,0.22013 -0.16933,0.8636 0,0.8128 0.6096,1.35466 0.6096,0.52494 1.40547,0.52494 0.6604,0 1.13453,-0.49107 0.49107,-0.508 0.49107,-1.2192 z" inkscape:connector-curvature="0"/>
      </g>
      <g id="text1550" style="font-style:normal;font-variant:normal;font-weight:normal;font-stretch:normal;font-size:11.28888988px;line-height:125%;font-family:Paddington;-inkscape-font-specification:'Paddington, Normal';font-variant-ligatures:normal;font-variant-caps:normal;font-variant-numeric:normal;font-feature-settings:normal;text-align:center;letter-spacing:0px;word-spacing:0px;writing-mode:lr-tb;text-anchor:middle;display:inline;fill:#a5180e;fill-opacity:1;stroke:none;stroke-width:0.26458335" aria-label="6">
        <path id="path8489" style="font-size:16.93333435px;fill:#a5180e;fill-opacity:1;stroke:none;stroke-width:0.26458335" d="m 423.70569,169.63397 q 0,1.524 -1.10066,2.55693 -1.08374,1.016 -2.69241,1.016 -1.8288,0 -2.87866,-1.30387 -0.9652,-1.18533 -0.9652,-2.92946 0,-1.86267 1.03293,-3.82694 1.04987,-1.96426 2.62467,-3.06493 h 2.794 q -2.6416,1.3208 -3.99627,4.4704 0.74507,-0.33867 1.69334,-0.33867 1.49013,0 2.4892,1.016 0.99906,0.99907 0.99906,2.40454 z m -1.99813,0.11853 q 0,-0.69427 -0.49107,-1.2192 -0.49106,-0.54187 -1.13453,-0.54187 -1.27,0 -1.84574,0.72814 -0.16933,0.22013 -0.16933,0.8636 0,0.8128 0.6096,1.35466 0.6096,0.52494 1.40547,0.52494 0.6604,0 1.13453,-0.49107 0.49107,-0.508 0.49107,-1.2192 z" inkscape:connector-curvature="0"/>
      </g>
      <g id="text1846" style="font-style:normal;font-variant:normal;font-weight:normal;font-stretch:normal;font-size:33.8666687px;line-height:125%;font-family:Paddington;-inkscape-font-specification:'Paddington, Normal';font-variant-ligatures:normal;font-variant-caps:normal;font-variant-numeric:normal;font-feature-settings:normal;text-align:center;letter-spacing:0px;word-spacing:0px;writing-mode:lr-tb;text-anchor:middle;display:inline;fill:#a5180e;fill-opacity:1;stroke:none;stroke-width:0.26458335" aria-label="6">
        <path id="path8459" style="font-size:50.80000305px;fill:#a5180e;fill-opacity:1;stroke:none;stroke-width:0.26458335" d="m 408.31095,129.4892 q 0,4.572 -3.302,7.6708 -3.2512,3.048 -8.0772,3.048 -5.4864,0 -8.636,-3.9116 -2.8956,-3.556 -2.8956,-8.7884 0,-5.588 3.0988,-11.4808 3.1496,-5.8928 7.874,-9.19481 h 8.382 q -7.9248,3.96241 -11.9888,13.41121 2.2352,-1.016 5.08,-1.016 4.4704,0 7.4676,3.048 2.9972,2.9972 2.9972,7.2136 z m -5.9944,0.3556 q 0,-2.0828 -1.4732,-3.6576 -1.4732,-1.6256 -3.4036,-1.6256 -3.81,0 -5.5372,2.1844 -0.508,0.6604 -0.508,2.5908 0,2.4384 1.8288,4.064 1.8288,1.5748 4.2164,1.5748 1.9812,0 3.4036,-1.4732 1.4732,-1.524 1.4732,-3.6576 z" inkscape:connector-curvature="0"/>
      </g>
      <path sodipodi:nodetypes="ccscccc" inkscape:connector-curvature="0" id="path1446" d="m 378.01762,122.82842 c -0.40841,1.5242 -1.78963,2.58405 -3.36761,2.58405 -1.57795,0 -2.95917,-1.05985 -3.36758,-2.58405 -0.40841,-1.52419 0.25785,-3.13267 1.6244,-3.92164 1.07871,-0.62278 1.74321,-1.77375 1.74321,-3.01931 -2e-5,1.24557 0.6645,2.39654 1.74319,3.01931 1.36654,0.78897 2.0328,2.39745 1.62439,3.92164 z" style="display:inline;opacity:1;fill:#a5180e;fill-opacity:1;stroke:none;stroke-width:0.35277781;stroke-linecap:butt;stroke-linejoin:miter;stroke-miterlimit:4;stroke-dasharray:none;stroke-dashoffset:0;stroke-opacity:1;paint-order:fill markers stroke"/>
      <path style="display:inline;opacity:1;fill:#a5180e;fill-opacity:1;stroke:none;stroke-width:0.35277781;stroke-linecap:butt;stroke-linejoin:miter;stroke-miterlimit:4;stroke-dasharray:none;stroke-dashoffset:0;stroke-opacity:1;paint-order:fill markers stroke" d="m 423.26133,181.56601 c -0.40841,1.5242 -1.78963,2.58405 -3.36761,2.58405 -1.57795,0 -2.95917,-1.05985 -3.36758,-2.58405 -0.40841,-1.52419 0.25785,-3.13267 1.6244,-3.92164 1.07871,-0.62278 1.74321,-1.77375 1.74321,-3.01931 -2e-5,1.24557 0.6645,2.39654 1.74319,3.01931 1.36654,0.78897 2.0328,2.39745 1.62439,3.92164 z" id="path1576" inkscape:connector-curvature="0" sodipodi:nodetypes="ccscccc"/>
      <path style="display:inline;opacity:1;fill:#a5180e;fill-opacity:1;stroke:none;stroke-width:0.35277781;stroke-linecap:butt;stroke-linejoin:miter;stroke-miterlimit:4;stroke-dasharray:none;stroke-dashoffset:0;stroke-opacity:1;paint-order:fill markers stroke" d="m 406.97781,165.28524 c -1.22523,4.5726 -5.36889,7.75215 -10.10283,7.75215 -4.73385,0 -8.87751,-3.17955 -10.10274,-7.75215 -1.22523,-4.57257 0.77355,-9.39801 4.8732,-11.76492 3.23613,-1.86834 5.22963,-5.32125 5.22963,-9.05793 -6e-5,3.73671 1.9935,7.18962 5.22957,9.05793 4.09962,2.36691 6.0984,7.19235 4.87317,11.76492 z" id="path1848" inkscape:connector-curvature="0" sodipodi:nodetypes="ccscccc"/>
      <circle style="opacity:1;fill:#808080;fill-opacity:1;stroke:none;stroke-width:0.1763889;stroke-linecap:butt;stroke-linejoin:miter;stroke-miterlimit:38.37685394;stroke-dasharray:none;stroke-dashoffset:0;stroke-opacity:1;paint-order:markers fill stroke" id="circle1466" cx="372.26877" cy="128.58746" r="1.5875001"/>
      <circle style="opacity:1;fill:#808080;fill-opacity:1;stroke:none;stroke-width:0.1763889;stroke-linecap:butt;stroke-linejoin:miter;stroke-miterlimit:38.37685394;stroke-dasharray:none;stroke-dashoffset:0;stroke-opacity:1;paint-order:markers fill stroke" id="circle1468" cx="377.03128" cy="128.58746" r="1.5875001"/>
      <circle r="1.5875001" cy="187.32503" cx="417.51245" id="circle1700" style="opacity:1;fill:#808080;fill-opacity:1;stroke:none;stroke-width:0.1763889;stroke-linecap:butt;stroke-linejoin:miter;stroke-miterlimit:38.37685394;stroke-dasharray:none;stroke-dashoffset:0;stroke-opacity:1;paint-order:markers fill stroke"/>
      <circle r="1.5875001" cy="187.32503" cx="422.27496" id="circle1702" style="opacity:1;fill:#808080;fill-opacity:1;stroke:none;stroke-width:0.1763889;stroke-linecap:butt;stroke-linejoin:miter;stroke-miterlimit:38.37685394;stroke-dasharray:none;stroke-dashoffset:0;stroke-opacity:1;paint-order:markers fill stroke"/>
      <circle r="4.7625003" cy="182.56238" cx="389.73123" id="circle1858" style="opacity:1;fill:#808080;fill-opacity:1;stroke:none;stroke-width:0.1763889;stroke-linecap:butt;stroke-linejoin:miter;stroke-miterlimit:38.37685394;stroke-dasharray:none;stroke-dashoffset:0;stroke-opacity:1;paint-order:markers fill stroke"/>
      <circle r="4.7625003" cy="182.56238" cx="404.01877" id="circle1860" style="opacity:1;fill:#808080;fill-opacity:1;stroke:none;stroke-width:0.1763889;stroke-linecap:butt;stroke-linejoin:miter;stroke-miterlimit:38.37685394;stroke-dasharray:none;stroke-dashoffset:0;stroke-opacity:1;paint-order:markers fill stroke"/>
    </g>
    </g></svg>
