<?xml version='1.0' encoding='UTF-8'?>
<!-- Created with Inkscape (http://www.inkscape.org/) and export_objects.py -->
<svg xmlns:cc="http://creativecommons.org/ns#" xmlns:dc="http://purl.org/dc/elements/1.1/" xmlns:inkscape="http://www.inkscape.org/namespaces/inkscape" xmlns:rdf="http://www.w3.org/1999/02/22-rdf-syntax-ns#" xmlns:sodipodi="http://sodipodi.sourceforge.net/DTD/sodipodi-0.dtd" xmlns:xlink="http://www.w3.org/1999/xlink" xmlns="http://www.w3.org/2000/svg" version="1.1" width="2.25in" height="3.5in" viewBox="0 0 57.15 88.9" id="svg8" sodipodi:docname="droplet-8.svg" inkscape:version="0.92.3 (2405546, 2018-03-11)"><sodipodi:namedview id="base" pagecolor="#ffffff" bordercolor="#666666" borderopacity="1.0" inkscape:pageopacity="0.0" inkscape:pageshadow="2" inkscape:zoom="0.42916667" inkscape:cx="1600.029" inkscape:cy="840" inkscape:document-units="in" inkscape:current-layer="layer10" showgrid="false" units="in" inkscape:measure-start="96,426" inkscape:measure-end="132,426" inkscape:snap-bbox="false" inkscape:snap-nodes="true" inkscape:snap-others="true" inkscape:bbox-nodes="true" inkscape:snap-bbox-edge-midpoints="true" inkscape:snap-text-baseline="true" inkscape:snap-center="true" inkscape:snap-object-midpoints="true" showguides="true" inkscape:snap-smooth-nodes="false" inkscape:snap-bbox-midpoints="true" inkscape:window-width="1920" inkscape:window-height="986" inkscape:window-x="-11" inkscape:window-y="-11" inkscape:window-maximized="1" inkscape:object-nodes="true" inkscape:guide-bbox="true" inkscape:snap-intersection-paths="false" fit-margin-top="0" fit-margin-left="0" fit-margin-right="0" fit-margin-bottom="0">
    <inkscape:grid type="xygrid" id="grid10" units="pt" spacingx="0.79375002" spacingy="0.79375002" originx="-25.4" originy="-25.39999"/>
  </sodipodi:namedview>
  <metadata id="metadata5">
    <rdf:RDF>
      <cc:Work rdf:about="">
        <dc:format>image/svg+xml</dc:format>
        <dc:type rdf:resource="http://purl.org/dc/dcmitype/StillImage"/>
        <dc:title/>
      </cc:Work>
    </rdf:RDF>
  </metadata>
  <g inkscape:groupmode="layer" inkscape:label="droplet-" transform="matrix(1.000000,0.000000,0.000000,1.000000,-457.200000,-355.600000)"><g transform="translate(-25.400002,254)" style="display:inline" id="g8962" inkscape:label="8">
      <rect y="101.60001" x="482.60001" height="88.900002" width="57.150002" id="rect1478" style="display:inline;opacity:1;fill:#ffffff;fill-opacity:1;stroke:none;stroke-width:0.1763889;stroke-linecap:butt;stroke-linejoin:miter;stroke-miterlimit:38.37685394;stroke-dasharray:none;stroke-dashoffset:0;stroke-opacity:1;paint-order:markers fill stroke"/>
      <g id="text1484" style="font-style:normal;font-variant:normal;font-weight:normal;font-stretch:normal;font-size:11.28888988px;line-height:125%;font-family:Paddington;-inkscape-font-specification:'Paddington, Normal';font-variant-ligatures:normal;font-variant-caps:normal;font-variant-numeric:normal;font-feature-settings:normal;text-align:center;letter-spacing:0px;word-spacing:0px;writing-mode:lr-tb;text-anchor:middle;display:inline;fill:#a5180e;fill-opacity:1;stroke:none;stroke-width:0.26458335" aria-label="8">
        <path id="path8513" style="font-size:16.93333435px;fill:#a5180e;fill-opacity:1;stroke:none;stroke-width:0.26458335" d="m 492.41341,111.08266 q 0,1.33774 -1.03294,2.35374 -1.03293,1.016 -2.45533,1.016 -1.55787,0 -2.52307,-0.82974 -0.94826,-0.84666 -0.94826,-2.31986 0,-1.81187 1.81186,-3.06494 -1.33773,-1.10067 -1.33773,-2.50613 0,-1.1684 0.9144,-1.86267 0.84667,-0.64347 2.09973,-0.64347 1.25307,0 2.0828,0.6604 0.84667,0.7112 0.84667,1.8796 0,1.4224 -1.28693,2.50614 1.8288,1.18533 1.8288,2.81093 z m -2.37067,-5.30013 q 0,-0.44027 -0.3556,-0.77894 -0.3556,-0.33866 -0.74507,-0.33866 -0.44026,0 -0.762,0.254 -0.37253,0.28786 -0.37253,0.72813 0,0.94827 1.15147,1.71027 1.08373,-0.762 1.08373,-1.5748 z m 0.49107,5.2832 q 0,-0.77893 -1.71027,-1.79493 -1.4732,0.93133 -1.4732,1.94733 0,0.6096 0.47413,1.0668 0.49107,0.44027 1.0668,0.44027 0.59267,0 1.1176,-0.508 0.52494,-0.508 0.52494,-1.15147 z" inkscape:connector-curvature="0"/>
      </g>
      <g id="text1558" style="font-style:normal;font-variant:normal;font-weight:normal;font-stretch:normal;font-size:11.28888988px;line-height:125%;font-family:Paddington;-inkscape-font-specification:'Paddington, Normal';font-variant-ligatures:normal;font-variant-caps:normal;font-variant-numeric:normal;font-feature-settings:normal;text-align:center;letter-spacing:0px;word-spacing:0px;writing-mode:lr-tb;text-anchor:middle;display:inline;fill:#a5180e;fill-opacity:1;stroke:none;stroke-width:0.26458335" aria-label="8">
        <path id="path8483" style="font-size:16.93333435px;fill:#a5180e;fill-opacity:1;stroke:none;stroke-width:0.26458335" d="m 537.65712,169.82023 q 0,1.33774 -1.03293,2.35374 -1.03294,1.016 -2.45534,1.016 -1.55786,0 -2.52306,-0.82974 -0.94827,-0.84666 -0.94827,-2.31986 0,-1.81187 1.81187,-3.06494 -1.33774,-1.10066 -1.33774,-2.50613 0,-1.1684 0.9144,-1.86267 0.84667,-0.64346 2.09974,-0.64346 1.25306,0 2.0828,0.6604 0.84666,0.7112 0.84666,1.8796 0,1.4224 -1.28693,2.50613 1.8288,1.18533 1.8288,2.81093 z m -2.37067,-5.30013 q 0,-0.44027 -0.3556,-0.77893 -0.3556,-0.33867 -0.74506,-0.33867 -0.44027,0 -0.762,0.254 -0.37254,0.28787 -0.37254,0.72813 0,0.94827 1.15147,1.71027 1.08373,-0.762 1.08373,-1.5748 z m 0.49107,5.2832 q 0,-0.77893 -1.71027,-1.79493 -1.4732,0.93133 -1.4732,1.94733 0,0.6096 0.47414,1.0668 0.49106,0.44027 1.0668,0.44027 0.59266,0 1.1176,-0.508 0.52493,-0.508 0.52493,-1.15147 z" inkscape:connector-curvature="0"/>
      </g>
      <g id="text1886" style="font-style:normal;font-variant:normal;font-weight:normal;font-stretch:normal;font-size:33.8666687px;line-height:125%;font-family:Paddington;-inkscape-font-specification:'Paddington, Normal';font-variant-ligatures:normal;font-variant-caps:normal;font-variant-numeric:normal;font-feature-settings:normal;text-align:center;letter-spacing:0px;word-spacing:0px;writing-mode:lr-tb;text-anchor:middle;display:inline;fill:#a5180e;fill-opacity:1;stroke:none;stroke-width:0.26458335" aria-label="8">
        <path id="path8453" style="font-size:50.80000305px;fill:#a5180e;fill-opacity:1;stroke:none;stroke-width:0.26458335" d="m 521.56521,130.048 q 0,4.0132 -3.0988,7.0612 -3.0988,3.048 -7.366,3.048 -4.6736,0 -7.5692,-2.4892 -2.8448,-2.54 -2.8448,-6.9596 0,-5.4356 5.4356,-9.1948 -4.0132,-3.302 -4.0132,-7.5184 0,-3.5052 2.7432,-5.588 2.54,-1.93041 6.2992,-1.93041 3.7592,0 6.2484,1.98121 2.54,2.1336 2.54,5.6388 0,4.2672 -3.8608,7.5184 5.4864,3.556 5.4864,8.4328 z m -7.112,-15.9004 q 0,-1.3208 -1.0668,-2.3368 -1.0668,-1.016 -2.2352,-1.016 -1.3208,0 -2.286,0.762 -1.1176,0.8636 -1.1176,2.1844 0,2.8448 3.4544,5.1308 3.2512,-2.286 3.2512,-4.7244 z m 1.4732,15.8496 q 0,-2.3368 -5.1308,-5.3848 -4.4196,2.794 -4.4196,5.842 0,1.8288 1.4224,3.2004 1.4732,1.3208 3.2004,1.3208 1.778,0 3.3528,-1.524 1.5748,-1.524 1.5748,-3.4544 z" inkscape:connector-curvature="0"/>
      </g>
      <path style="display:inline;opacity:1;fill:#a5180e;fill-opacity:1;stroke:none;stroke-width:0.35277781;stroke-linecap:butt;stroke-linejoin:miter;stroke-miterlimit:4;stroke-dasharray:none;stroke-dashoffset:0;stroke-opacity:1;paint-order:fill markers stroke" d="m 492.31761,122.82841 c -0.40841,1.5242 -1.78963,2.58405 -3.36761,2.58405 -1.57795,0 -2.95917,-1.05985 -3.36758,-2.58405 -0.40841,-1.52419 0.25785,-3.13267 1.6244,-3.92164 1.07871,-0.62278 1.74321,-1.77375 1.74321,-3.01931 -2e-5,1.24557 0.6645,2.39654 1.74319,3.01931 1.36654,0.78897 2.0328,2.39745 1.62439,3.92164 z" id="path1490" inkscape:connector-curvature="0" sodipodi:nodetypes="ccscccc"/>
      <path sodipodi:nodetypes="ccscccc" inkscape:connector-curvature="0" id="path1580" d="m 537.56132,181.566 c -0.40841,1.5242 -1.78963,2.58405 -3.36761,2.58405 -1.57795,0 -2.95917,-1.05985 -3.36758,-2.58405 -0.40841,-1.52419 0.25785,-3.13267 1.6244,-3.92164 1.07871,-0.62278 1.74321,-1.77375 1.74321,-3.01931 -2e-5,1.24557 0.6645,2.39654 1.74319,3.01931 1.36654,0.78897 2.0328,2.39745 1.62439,3.92164 z" style="display:inline;opacity:1;fill:#a5180e;fill-opacity:1;stroke:none;stroke-width:0.35277781;stroke-linecap:butt;stroke-linejoin:miter;stroke-miterlimit:4;stroke-dasharray:none;stroke-dashoffset:0;stroke-opacity:1;paint-order:fill markers stroke"/>
      <path sodipodi:nodetypes="ccscccc" inkscape:connector-curvature="0" id="path1888" d="m 521.27779,165.28523 c -1.22523,4.5726 -5.36889,7.75215 -10.10283,7.75215 -4.73385,0 -8.87751,-3.17955 -10.10274,-7.75215 -1.22523,-4.57257 0.77355,-9.39801 4.8732,-11.76492 3.23613,-1.86834 5.22963,-5.32125 5.22963,-9.05793 -6e-5,3.73671 1.9935,7.18962 5.22957,9.05793 4.09962,2.36691 6.0984,7.19235 4.87317,11.76492 z" style="display:inline;opacity:1;fill:#a5180e;fill-opacity:1;stroke:none;stroke-width:0.35277781;stroke-linecap:butt;stroke-linejoin:miter;stroke-miterlimit:4;stroke-dasharray:none;stroke-dashoffset:0;stroke-opacity:1;paint-order:fill markers stroke"/>
      <circle style="opacity:1;fill:#808080;fill-opacity:1;stroke:none;stroke-width:0.1763889;stroke-linecap:butt;stroke-linejoin:miter;stroke-miterlimit:38.37685394;stroke-dasharray:none;stroke-dashoffset:0;stroke-opacity:1;paint-order:markers fill stroke" id="circle1514" cx="488.95001" cy="128.58745" r="1.5875001"/>
      <circle r="1.5875001" cy="187.32501" cx="534.19373" id="circle1716" style="opacity:1;fill:#808080;fill-opacity:1;stroke:none;stroke-width:0.1763889;stroke-linecap:butt;stroke-linejoin:miter;stroke-miterlimit:38.37685394;stroke-dasharray:none;stroke-dashoffset:0;stroke-opacity:1;paint-order:markers fill stroke"/>
      <circle r="4.7625003" cy="182.56233" cx="511.17502" id="circle1902" style="opacity:1;fill:#808080;fill-opacity:1;stroke:none;stroke-width:0.1763889;stroke-linecap:butt;stroke-linejoin:miter;stroke-miterlimit:38.37685394;stroke-dasharray:none;stroke-dashoffset:0;stroke-opacity:1;paint-order:markers fill stroke"/>
    </g>
    </g></svg>
