<?xml version='1.0' encoding='UTF-8'?>
<!-- Created with Inkscape (http://www.inkscape.org/) and export_objects.py -->
<svg xmlns:cc="http://creativecommons.org/ns#" xmlns:dc="http://purl.org/dc/elements/1.1/" xmlns:inkscape="http://www.inkscape.org/namespaces/inkscape" xmlns:rdf="http://www.w3.org/1999/02/22-rdf-syntax-ns#" xmlns:sodipodi="http://sodipodi.sourceforge.net/DTD/sodipodi-0.dtd" xmlns:xlink="http://www.w3.org/1999/xlink" xmlns="http://www.w3.org/2000/svg" version="1.1" width="2.25in" height="3.5in" viewBox="0 0 57.15 88.9" id="svg8" sodipodi:docname="droplet-9.svg" inkscape:version="0.92.3 (2405546, 2018-03-11)"><sodipodi:namedview id="base" pagecolor="#ffffff" bordercolor="#666666" borderopacity="1.0" inkscape:pageopacity="0.0" inkscape:pageshadow="2" inkscape:zoom="0.42916667" inkscape:cx="1600.029" inkscape:cy="840" inkscape:document-units="in" inkscape:current-layer="layer10" showgrid="false" units="in" inkscape:measure-start="96,426" inkscape:measure-end="132,426" inkscape:snap-bbox="false" inkscape:snap-nodes="true" inkscape:snap-others="true" inkscape:bbox-nodes="true" inkscape:snap-bbox-edge-midpoints="true" inkscape:snap-text-baseline="true" inkscape:snap-center="true" inkscape:snap-object-midpoints="true" showguides="true" inkscape:snap-smooth-nodes="false" inkscape:snap-bbox-midpoints="true" inkscape:window-width="1920" inkscape:window-height="986" inkscape:window-x="-11" inkscape:window-y="-11" inkscape:window-maximized="1" inkscape:object-nodes="true" inkscape:guide-bbox="true" inkscape:snap-intersection-paths="false" fit-margin-top="0" fit-margin-left="0" fit-margin-right="0" fit-margin-bottom="0">
    <inkscape:grid type="xygrid" id="grid10" units="pt" spacingx="0.79375002" spacingy="0.79375002" originx="-25.4" originy="-25.39999"/>
  </sodipodi:namedview>
  <metadata id="metadata5">
    <rdf:RDF>
      <cc:Work rdf:about="">
        <dc:format>image/svg+xml</dc:format>
        <dc:type rdf:resource="http://purl.org/dc/dcmitype/StillImage"/>
        <dc:title/>
      </cc:Work>
    </rdf:RDF>
  </metadata>
  <g inkscape:groupmode="layer" inkscape:label="droplet-" transform="matrix(1.000000,0.000000,0.000000,1.000000,-514.350053,-355.600000)"><g transform="translate(-25.400002,254)" style="display:inline" id="g8995" inkscape:label="9">
      <rect style="display:inline;opacity:1;fill:#ffffff;fill-opacity:1;stroke:none;stroke-width:0.1763889;stroke-linecap:butt;stroke-linejoin:miter;stroke-miterlimit:38.37685394;stroke-dasharray:none;stroke-dashoffset:0;stroke-opacity:1;paint-order:markers fill stroke" id="rect1480" width="57.150002" height="88.900002" x="539.75006" y="101.60001"/>
      <g id="text1488" style="font-style:normal;font-variant:normal;font-weight:normal;font-stretch:normal;font-size:11.28888988px;line-height:125%;font-family:Paddington;-inkscape-font-specification:'Paddington, Normal';font-variant-ligatures:normal;font-variant-caps:normal;font-variant-numeric:normal;font-feature-settings:normal;text-align:center;letter-spacing:0px;word-spacing:0px;writing-mode:lr-tb;text-anchor:middle;display:inline;fill:#a5180e;fill-opacity:1;stroke:none;stroke-width:0.26458335" aria-label="9">
        <path id="path8510" style="font-size:16.93333435px;fill:#a5180e;fill-opacity:1;stroke:none;stroke-width:0.26458335" d="m 549.79547,107.56053 q 0,1.9304 -1.13453,3.79307 -1.0668,1.76106 -2.794,2.9464 h -2.60773 q 3.2512,-2.3368 4.1148,-4.572 -0.9652,0.4064 -1.60867,0.4064 -1.49013,0 -2.52307,-0.98214 -1.016,-0.98213 -1.016,-2.3876 0,-1.524 1.15147,-2.54 1.1684,-1.03293 2.794,-1.03293 1.74413,0 2.76013,1.43933 0.8636,1.23613 0.8636,2.92947 z m -1.89653,-0.0508 q -0.0339,-1.016 -0.47413,-1.74414 -0.52494,-0.82973 -1.3716,-0.82973 -0.72814,0 -1.3208,0.47413 -0.59267,0.47414 -0.59267,1.20227 0,0.7112 0.49107,1.25307 0.49106,0.54187 1.13453,0.54187 0.6604,0 1.13453,-0.22014 0.4064,-0.16933 0.99907,-0.67733 z" inkscape:connector-curvature="0"/>
      </g>
      <g id="text1562" style="font-style:normal;font-variant:normal;font-weight:normal;font-stretch:normal;font-size:11.28888988px;line-height:125%;font-family:Paddington;-inkscape-font-specification:'Paddington, Normal';font-variant-ligatures:normal;font-variant-caps:normal;font-variant-numeric:normal;font-feature-settings:normal;text-align:center;letter-spacing:0px;word-spacing:0px;writing-mode:lr-tb;text-anchor:middle;display:inline;fill:#a5180e;fill-opacity:1;stroke:none;stroke-width:0.26458335" aria-label="9">
        <path id="path8480" style="font-size:16.93333435px;fill:#a5180e;fill-opacity:1;stroke:none;stroke-width:0.26458335" d="m 595.03919,166.2981 q 0,1.9304 -1.13454,3.79307 -1.0668,1.76106 -2.794,2.9464 h -2.60773 q 3.2512,-2.3368 4.1148,-4.572 -0.9652,0.4064 -1.60867,0.4064 -1.49013,0 -2.52306,-0.98214 -1.016,-0.98213 -1.016,-2.3876 0,-1.524 1.15146,-2.54 1.1684,-1.03293 2.794,-1.03293 1.74414,0 2.76014,1.43933 0.8636,1.23614 0.8636,2.92947 z m -1.89654,-0.0508 q -0.0339,-1.016 -0.47413,-1.74413 -0.52493,-0.82974 -1.3716,-0.82974 -0.72813,0 -1.3208,0.47414 -0.59267,0.47413 -0.59267,1.20226 0,0.7112 0.49107,1.25307 0.49107,0.54187 1.13453,0.54187 0.6604,0 1.13454,-0.22014 0.4064,-0.16933 0.99906,-0.67733 z" inkscape:connector-curvature="0"/>
      </g>
      <g id="text1906" style="font-style:normal;font-variant:normal;font-weight:normal;font-stretch:normal;font-size:33.8666687px;line-height:125%;font-family:Paddington;-inkscape-font-specification:'Paddington, Normal';font-variant-ligatures:normal;font-variant-caps:normal;font-variant-numeric:normal;font-feature-settings:normal;text-align:center;letter-spacing:0px;word-spacing:0px;writing-mode:lr-tb;text-anchor:middle;display:inline;fill:#a5180e;fill-opacity:1;stroke:none;stroke-width:0.26458335" aria-label="9">
        <path id="path8450" style="font-size:50.80000305px;fill:#a5180e;fill-opacity:1;stroke:none;stroke-width:0.26458335" d="m 579.41132,119.4816 q 0,5.7912 -3.4036,11.3792 -3.2004,5.2832 -8.382,8.8392 h -7.8232 q 9.7536,-7.0104 12.3444,-13.716 -2.8956,1.2192 -4.826,1.2192 -4.4704,0 -7.5692,-2.9464 -3.048,-2.9464 -3.048,-7.1628 0,-4.572 3.4544,-7.62 3.5052,-3.09881 8.382,-3.09881 5.2324,0 8.2804,4.31801 2.5908,3.7084 2.5908,8.7884 z m -5.6896,-0.1524 q -0.1016,-3.048 -1.4224,-5.2324 -1.5748,-2.4892 -4.1148,-2.4892 -2.1844,0 -3.9624,1.4224 -1.778,1.4224 -1.778,3.6068 0,2.1336 1.4732,3.7592 1.4732,1.6256 3.4036,1.6256 1.9812,0 3.4036,-0.6604 1.2192,-0.508 2.9972,-2.032 z" inkscape:connector-curvature="0"/>
      </g>
      <path sodipodi:nodetypes="ccscccc" inkscape:connector-curvature="0" id="path1492" d="m 549.4676,122.8284 c -0.40841,1.5242 -1.78963,2.58405 -3.36761,2.58405 -1.57795,0 -2.95917,-1.05985 -3.36758,-2.58405 -0.40841,-1.52419 0.25786,-3.13267 1.6244,-3.92164 1.0787,-0.62278 1.7432,-1.77375 1.7432,-3.01931 -10e-6,1.24557 0.6645,2.39654 1.7432,3.01931 1.36654,0.78897 2.03279,2.39745 1.62439,3.92164 z" style="display:inline;opacity:1;fill:#a5180e;fill-opacity:1;stroke:none;stroke-width:0.35277781;stroke-linecap:butt;stroke-linejoin:miter;stroke-miterlimit:4;stroke-dasharray:none;stroke-dashoffset:0;stroke-opacity:1;paint-order:fill markers stroke"/>
      <path style="display:inline;opacity:1;fill:#a5180e;fill-opacity:1;stroke:none;stroke-width:0.35277781;stroke-linecap:butt;stroke-linejoin:miter;stroke-miterlimit:4;stroke-dasharray:none;stroke-dashoffset:0;stroke-opacity:1;paint-order:fill markers stroke" d="m 594.71131,181.56599 c -0.40841,1.5242 -1.78963,2.58405 -3.36761,2.58405 -1.57795,0 -2.95917,-1.05985 -3.36758,-2.58405 -0.40841,-1.52419 0.25786,-3.13267 1.6244,-3.92164 1.0787,-0.62278 1.7432,-1.77375 1.7432,-3.01931 -10e-6,1.24557 0.6645,2.39654 1.7432,3.01931 1.36654,0.78897 2.03279,2.39745 1.62439,3.92164 z" id="path1582" inkscape:connector-curvature="0" sodipodi:nodetypes="ccscccc"/>
      <path style="display:inline;opacity:1;fill:#a5180e;fill-opacity:1;stroke:none;stroke-width:0.35277781;stroke-linecap:butt;stroke-linejoin:miter;stroke-miterlimit:4;stroke-dasharray:none;stroke-dashoffset:0;stroke-opacity:1;paint-order:fill markers stroke" d="m 578.42777,165.28519 c -1.22523,4.5726 -5.36889,7.75215 -10.10283,7.75215 -4.73385,0 -8.87751,-3.17955 -10.10274,-7.75215 -1.22523,-4.57257 0.77358,-9.39801 4.8732,-11.76492 3.2361,-1.86834 5.2296,-5.32125 5.2296,-9.05793 -3e-5,3.73671 1.9935,7.18962 5.2296,9.05793 4.09962,2.36691 6.09837,7.19235 4.87317,11.76492 z" id="path1908" inkscape:connector-curvature="0" sodipodi:nodetypes="ccscccc"/>
    </g>
    </g></svg>
