<?xml version='1.0' encoding='UTF-8'?>
<!-- Created with Inkscape (http://www.inkscape.org/) and export_objects.py -->
<svg xmlns:cc="http://creativecommons.org/ns#" xmlns:dc="http://purl.org/dc/elements/1.1/" xmlns:inkscape="http://www.inkscape.org/namespaces/inkscape" xmlns:rdf="http://www.w3.org/1999/02/22-rdf-syntax-ns#" xmlns:sodipodi="http://sodipodi.sourceforge.net/DTD/sodipodi-0.dtd" xmlns:xlink="http://www.w3.org/1999/xlink" xmlns="http://www.w3.org/2000/svg" version="1.1" width="2.25in" height="3.5in" viewBox="0 0 57.15 88.9" id="svg8" sodipodi:docname="droplet-0.svg" inkscape:version="0.92.3 (2405546, 2018-03-11)"><sodipodi:namedview id="base" pagecolor="#ffffff" bordercolor="#666666" borderopacity="1.0" inkscape:pageopacity="0.0" inkscape:pageshadow="2" inkscape:zoom="0.42916667" inkscape:cx="1600.029" inkscape:cy="840" inkscape:document-units="in" inkscape:current-layer="layer10" showgrid="false" units="in" inkscape:measure-start="96,426" inkscape:measure-end="132,426" inkscape:snap-bbox="false" inkscape:snap-nodes="true" inkscape:snap-others="true" inkscape:bbox-nodes="true" inkscape:snap-bbox-edge-midpoints="true" inkscape:snap-text-baseline="true" inkscape:snap-center="true" inkscape:snap-object-midpoints="true" showguides="true" inkscape:snap-smooth-nodes="false" inkscape:snap-bbox-midpoints="true" inkscape:window-width="1920" inkscape:window-height="986" inkscape:window-x="-11" inkscape:window-y="-11" inkscape:window-maximized="1" inkscape:object-nodes="true" inkscape:guide-bbox="true" inkscape:snap-intersection-paths="false" fit-margin-top="0" fit-margin-left="0" fit-margin-right="0" fit-margin-bottom="0">
    <inkscape:grid type="xygrid" id="grid10" units="pt" spacingx="0.79375002" spacingy="0.79375002" originx="-25.4" originy="-25.39999"/>
  </sodipodi:namedview>
  <metadata id="metadata5">
    <rdf:RDF>
      <cc:Work rdf:about="">
        <dc:format>image/svg+xml</dc:format>
        <dc:type rdf:resource="http://purl.org/dc/dcmitype/StillImage"/>
        <dc:title/>
      </cc:Work>
    </rdf:RDF>
  </metadata>
  <g inkscape:groupmode="layer" inkscape:label="droplet-" transform="matrix(1.000000,0.000000,0.000000,1.000000,0.000000,-355.600000)"><g transform="translate(-25.400002,254)" style="display:inline" id="g8564" inkscape:label="0">
      <rect y="101.60001" x="25.400002" height="88.900002" width="57.150002" id="rect13" style="display:inline;opacity:1;fill:#ffffff;fill-opacity:1;stroke:none;stroke-width:0.1763889;stroke-linecap:butt;stroke-linejoin:miter;stroke-miterlimit:38.37685394;stroke-dasharray:none;stroke-dashoffset:0;stroke-opacity:1;paint-order:markers fill stroke"/>
      <g id="text25564-8" style="font-style:normal;font-variant:normal;font-weight:normal;font-stretch:normal;font-size:11.28888988px;line-height:125%;font-family:Paddington;-inkscape-font-specification:'Paddington, Normal';font-variant-ligatures:normal;font-variant-caps:normal;font-variant-numeric:normal;font-feature-settings:normal;text-align:center;letter-spacing:0px;word-spacing:0px;writing-mode:lr-tb;text-anchor:middle;display:inline;fill:#a5180e;fill-opacity:1;stroke:none;stroke-width:0.26458335" aria-label="0">
        <path id="path8537" style="font-size:16.93333435px;fill:#a5180e;fill-opacity:1;stroke:none;stroke-width:0.26458335" d="m 35.443451,108.8136 q 0,1.99814 -0.778933,3.556 -1.016,2.01507 -2.9464,2.01507 -1.913467,0 -2.929467,-2.01507 -0.778934,-1.55786 -0.778934,-3.556 0,-1.99813 0.778934,-3.556 1.016,-2.01506 2.929467,-2.01506 1.947333,0 2.9464,1.99813 0.778933,1.55787 0.778933,3.57293 z m -1.896533,0 q 0,-1.23613 -0.3556,-2.3368 -0.491067,-1.524 -1.439334,-1.524 -0.592666,0 -1.0668,0.8128 -0.389466,0.64347 -0.5588,1.50707 -0.1524,0.762 -0.1524,1.54093 0,1.27 0.338667,2.3368 0.474133,1.50707 1.439333,1.50707 0.982134,0 1.456267,-1.50707 0.338667,-1.0668 0.338667,-2.3368 z" inkscape:connector-curvature="0"/>
      </g>
      <g id="text1526" style="font-style:normal;font-variant:normal;font-weight:normal;font-stretch:normal;font-size:11.28888988px;line-height:125%;font-family:Paddington;-inkscape-font-specification:'Paddington, Normal';font-variant-ligatures:normal;font-variant-caps:normal;font-variant-numeric:normal;font-feature-settings:normal;text-align:center;letter-spacing:0px;word-spacing:0px;writing-mode:lr-tb;text-anchor:middle;display:inline;fill:#a5180e;fill-opacity:1;stroke:none;stroke-width:0.26458335" aria-label="0">
        <path id="path8507" style="font-size:16.93333435px;fill:#a5180e;fill-opacity:1;stroke:none;stroke-width:0.26458335" d="m 80.687172,167.55117 q 0,1.99813 -0.778933,3.556 -1.016,2.01506 -2.9464,2.01506 -1.913467,0 -2.929467,-2.01506 -0.778934,-1.55787 -0.778934,-3.556 0,-1.99814 0.778934,-3.556 1.016,-2.01507 2.929467,-2.01507 1.947333,0 2.9464,1.99813 0.778933,1.55787 0.778933,3.57294 z m -1.896533,0 q 0,-1.23614 -0.3556,-2.3368 -0.491067,-1.524 -1.439334,-1.524 -0.592666,0 -1.0668,0.8128 -0.389466,0.64346 -0.5588,1.50706 -0.1524,0.762 -0.1524,1.54094 0,1.27 0.338667,2.3368 0.474133,1.50706 1.439333,1.50706 0.982134,0 1.456267,-1.50706 0.338667,-1.0668 0.338667,-2.3368 z" inkscape:connector-curvature="0"/>
      </g>
      <g id="text1726" style="font-style:normal;font-variant:normal;font-weight:normal;font-stretch:normal;font-size:33.8666687px;line-height:125%;font-family:Paddington;-inkscape-font-specification:'Paddington, Normal';font-variant-ligatures:normal;font-variant-caps:normal;font-variant-numeric:normal;font-feature-settings:normal;text-align:center;letter-spacing:0px;word-spacing:0px;writing-mode:lr-tb;text-anchor:middle;display:inline;fill:#a5180e;fill-opacity:1;stroke:none;stroke-width:0.26458335" aria-label="0">
        <path id="path8477" style="font-size:50.80000305px;fill:#a5180e;fill-opacity:1;stroke:none;stroke-width:0.26458335" d="m 65.055356,123.2408 q 0,5.9944 -2.3368,10.668 -3.048,6.0452 -8.839201,6.0452 -5.7404,0 -8.7884,-6.0452 -2.3368,-4.6736 -2.3368,-10.668 0,-5.9944 2.3368,-10.668 3.048,-6.04521 8.7884,-6.04521 5.842001,0 8.839201,5.99441 2.3368,4.6736 2.3368,10.7188 z m -5.6896,0 q 0,-3.7084 -1.0668,-7.0104 -1.4732,-4.572 -4.318001,-4.572 -1.778,0 -3.2004,2.4384 -1.1684,1.9304 -1.6764,4.5212 -0.4572,2.286 -0.4572,4.6228 0,3.81 1.016,7.0104 1.4224,4.5212 4.318,4.5212 2.946401,0 4.368801,-4.5212 1.016,-3.2004 1.016,-7.0104 z" inkscape:connector-curvature="0"/>
      </g>
      <path style="display:inline;opacity:1;fill:#a5180e;fill-opacity:1;stroke:none;stroke-width:0.35277781;stroke-linecap:butt;stroke-linejoin:miter;stroke-miterlimit:4;stroke-dasharray:none;stroke-dashoffset:0;stroke-opacity:1;paint-order:fill markers stroke" d="m 35.117597,122.82845 c -0.408408,1.5242 -1.789631,2.58405 -3.367607,2.58405 -1.577952,0 -2.959175,-1.05985 -3.367583,-2.58405 -0.408408,-1.52419 0.257856,-3.13267 1.624403,-3.92164 1.078704,-0.62278 1.743204,-1.77375 1.743204,-3.01931 -1.2e-5,1.24557 0.6645,2.39654 1.743192,3.01931 1.366547,0.78897 2.032798,2.39745 1.624391,3.92164 z" id="path698" inkscape:connector-curvature="0" sodipodi:nodetypes="ccscccc"/>
      <path sodipodi:nodetypes="ccscccc" inkscape:connector-curvature="0" id="path1564" d="m 80.361318,181.56604 c -0.408408,1.5242 -1.789631,2.58405 -3.367607,2.58405 -1.577952,0 -2.959175,-1.05985 -3.367583,-2.58405 -0.408408,-1.52419 0.257856,-3.13267 1.624403,-3.92164 1.078704,-0.62278 1.743204,-1.77375 1.743204,-3.01931 -1.2e-5,1.24557 0.6645,2.39654 1.743192,3.01931 1.366547,0.78897 2.032798,2.39745 1.624391,3.92164 z" style="display:inline;opacity:1;fill:#a5180e;fill-opacity:1;stroke:none;stroke-width:0.35277781;stroke-linecap:butt;stroke-linejoin:miter;stroke-miterlimit:4;stroke-dasharray:none;stroke-dashoffset:0;stroke-opacity:1;paint-order:fill markers stroke"/>
      <path sodipodi:nodetypes="ccscccc" inkscape:connector-curvature="0" id="path1728" d="m 64.077791,165.28535 c -1.225224,4.5726 -5.368893,7.75215 -10.102821,7.75215 -4.733856,0 -8.877525,-3.17955 -10.102749,-7.75215 -1.225224,-4.57257 0.773568,-9.39801 4.873209,-11.76492 3.236112,-1.86834 5.229612,-5.32125 5.229612,-9.05793 -3.6e-5,3.73671 1.9935,7.18962 5.229576,9.05793 4.099641,2.36691 6.098394,7.19235 4.873173,11.76492 z" style="display:inline;opacity:1;fill:#a5180e;fill-opacity:1;stroke:none;stroke-width:0.35277781;stroke-linecap:butt;stroke-linejoin:miter;stroke-miterlimit:4;stroke-dasharray:none;stroke-dashoffset:0;stroke-opacity:1;paint-order:fill markers stroke"/>
      <circle style="opacity:1;fill:#808080;fill-opacity:1;stroke:none;stroke-width:0.1763889;stroke-linecap:butt;stroke-linejoin:miter;stroke-miterlimit:38.37685394;stroke-dasharray:none;stroke-dashoffset:0;stroke-opacity:1;paint-order:markers fill stroke" id="circle214" cx="31.75" cy="128.58751" r="1.5875001"/>
      <circle r="1.5875001" cy="187.32507" cx="76.993721" id="circle1668" style="opacity:1;fill:#808080;fill-opacity:1;stroke:none;stroke-width:0.1763889;stroke-linecap:butt;stroke-linejoin:miter;stroke-miterlimit:38.37685394;stroke-dasharray:none;stroke-dashoffset:0;stroke-opacity:1;paint-order:markers fill stroke"/>
      <circle r="4.7625003" cy="182.56252" cx="53.975002" id="circle1742" style="opacity:1;fill:#808080;fill-opacity:1;stroke:none;stroke-width:0.1763889;stroke-linecap:butt;stroke-linejoin:miter;stroke-miterlimit:38.37685394;stroke-dasharray:none;stroke-dashoffset:0;stroke-opacity:1;paint-order:markers fill stroke"/>
    </g>
    </g></svg>
