<?xml version='1.0' encoding='UTF-8'?>
<!-- Created with Inkscape (http://www.inkscape.org/) and export_objects.py -->
<svg xmlns:cc="http://creativecommons.org/ns#" xmlns:dc="http://purl.org/dc/elements/1.1/" xmlns:inkscape="http://www.inkscape.org/namespaces/inkscape" xmlns:rdf="http://www.w3.org/1999/02/22-rdf-syntax-ns#" xmlns:sodipodi="http://sodipodi.sourceforge.net/DTD/sodipodi-0.dtd" xmlns:xlink="http://www.w3.org/1999/xlink" xmlns="http://www.w3.org/2000/svg" version="1.1" width="2.25in" height="3.5in" viewBox="0 0 57.15 88.9" id="svg8" sodipodi:docname="droplet-5.svg" inkscape:version="0.92.3 (2405546, 2018-03-11)"><sodipodi:namedview id="base" pagecolor="#ffffff" bordercolor="#666666" borderopacity="1.0" inkscape:pageopacity="0.0" inkscape:pageshadow="2" inkscape:zoom="0.42916667" inkscape:cx="1600.029" inkscape:cy="840" inkscape:document-units="in" inkscape:current-layer="layer10" showgrid="false" units="in" inkscape:measure-start="96,426" inkscape:measure-end="132,426" inkscape:snap-bbox="false" inkscape:snap-nodes="true" inkscape:snap-others="true" inkscape:bbox-nodes="true" inkscape:snap-bbox-edge-midpoints="true" inkscape:snap-text-baseline="true" inkscape:snap-center="true" inkscape:snap-object-midpoints="true" showguides="true" inkscape:snap-smooth-nodes="false" inkscape:snap-bbox-midpoints="true" inkscape:window-width="1920" inkscape:window-height="986" inkscape:window-x="-11" inkscape:window-y="-11" inkscape:window-maximized="1" inkscape:object-nodes="true" inkscape:guide-bbox="true" inkscape:snap-intersection-paths="false" fit-margin-top="0" fit-margin-left="0" fit-margin-right="0" fit-margin-bottom="0">
    <inkscape:grid type="xygrid" id="grid10" units="pt" spacingx="0.79375002" spacingy="0.79375002" originx="-25.4" originy="-25.39999"/>
  </sodipodi:namedview>
  <metadata id="metadata5">
    <rdf:RDF>
      <cc:Work rdf:about="">
        <dc:format>image/svg+xml</dc:format>
        <dc:type rdf:resource="http://purl.org/dc/dcmitype/StillImage"/>
        <dc:title/>
      </cc:Work>
    </rdf:RDF>
  </metadata>
  <g inkscape:groupmode="layer" inkscape:label="droplet-" transform="matrix(1.000000,0.000000,0.000000,1.000000,-285.750026,-355.600000)"><g transform="translate(-25.400002,254)" style="display:inline" id="g8833" inkscape:label="5">
      <rect style="display:inline;opacity:1;fill:#ffffff;fill-opacity:1;stroke:none;stroke-width:0.1763889;stroke-linecap:butt;stroke-linejoin:miter;stroke-miterlimit:38.37685394;stroke-dasharray:none;stroke-dashoffset:0;stroke-opacity:1;paint-order:markers fill stroke" id="rect1392" width="57.150002" height="88.900002" x="311.15002" y="101.60001"/>
      <g id="text1400" style="font-style:normal;font-variant:normal;font-weight:normal;font-stretch:normal;font-size:11.28888988px;line-height:125%;font-family:Paddington;-inkscape-font-specification:'Paddington, Normal';font-variant-ligatures:normal;font-variant-caps:normal;font-variant-numeric:normal;font-feature-settings:normal;text-align:center;letter-spacing:0px;word-spacing:0px;writing-mode:lr-tb;text-anchor:middle;display:inline;fill:#a5180e;fill-opacity:1;stroke:none;stroke-width:0.26458335" aria-label="5">
        <path id="path8522" style="font-size:16.93333435px;fill:#a5180e;fill-opacity:1;stroke:none;stroke-width:0.26458335" d="m 320.91855,103.36106 -0.82973,1.6764 h -2.98027 l -0.23707,1.99813 q 1.74414,0.0847 2.86174,1.04987 1.1684,1.03294 1.1684,2.6924 0,1.59174 -1.13454,2.6416 -1.13453,1.03294 -2.82786,1.03294 -1.6764,0 -2.92947,-1.65947 l 1.15147,-1.4732 h 0.1016 q 0.77893,1.33773 1.86266,1.33773 0.67734,0 1.18534,-0.54186 0.52493,-0.5588 0.52493,-1.30387 0,-0.88053 -0.74507,-1.4732 -0.67733,-0.54187 -1.5748,-0.54187 -0.57573,0 -1.89653,0.38947 l 0.72813,-5.82507 z" inkscape:connector-curvature="0"/>
      </g>
      <g id="text1546" style="font-style:normal;font-variant:normal;font-weight:normal;font-stretch:normal;font-size:11.28888988px;line-height:125%;font-family:Paddington;-inkscape-font-specification:'Paddington, Normal';font-variant-ligatures:normal;font-variant-caps:normal;font-variant-numeric:normal;font-feature-settings:normal;text-align:center;letter-spacing:0px;word-spacing:0px;writing-mode:lr-tb;text-anchor:middle;display:inline;fill:#a5180e;fill-opacity:1;stroke:none;stroke-width:0.26458335" aria-label="5">
        <path id="path8492" style="font-size:16.93333435px;fill:#a5180e;fill-opacity:1;stroke:none;stroke-width:0.26458335" d="m 366.16223,162.09863 -0.82973,1.6764 h -2.98027 l -0.23706,1.99814 q 1.74413,0.0847 2.86173,1.04986 1.1684,1.03294 1.1684,2.6924 0,1.59174 -1.13453,2.6416 -1.13454,1.03294 -2.82787,1.03294 -1.6764,0 -2.92947,-1.65947 l 1.15147,-1.4732 h 0.1016 q 0.77893,1.33773 1.86267,1.33773 0.67733,0 1.18533,-0.54186 0.52493,-0.5588 0.52493,-1.30387 0,-0.88053 -0.74506,-1.4732 -0.67734,-0.54187 -1.5748,-0.54187 -0.57574,0 -1.89654,0.38947 l 0.72814,-5.82507 z" inkscape:connector-curvature="0"/>
      </g>
      <g id="text1826" style="font-style:normal;font-variant:normal;font-weight:normal;font-stretch:normal;font-size:33.8666687px;line-height:125%;font-family:Paddington;-inkscape-font-specification:'Paddington, Normal';font-variant-ligatures:normal;font-variant-caps:normal;font-variant-numeric:normal;font-feature-settings:normal;text-align:center;letter-spacing:0px;word-spacing:0px;writing-mode:lr-tb;text-anchor:middle;display:inline;fill:#a5180e;fill-opacity:1;stroke:none;stroke-width:0.26458335" aria-label="5">
        <path id="path8462" style="font-size:50.80000305px;fill:#a5180e;fill-opacity:1;stroke:none;stroke-width:0.26458335" d="m 349.98065,106.88319 -2.4892,5.02921 h -8.9408 l -0.7112,5.9944 q 5.2324,0.254 8.5852,3.1496 3.5052,3.0988 3.5052,8.0772 0,4.7752 -3.4036,7.9248 -3.4036,3.0988 -8.4836,3.0988 -5.0292,0 -8.7884,-4.9784 l 3.4544,-4.4196 h 0.3048 q 2.3368,4.0132 5.588,4.0132 2.032,0 3.556,-1.6256 1.5748,-1.6764 1.5748,-3.9116 0,-2.6416 -2.2352,-4.4196 -2.032,-1.6256 -4.7244,-1.6256 -1.7272,0 -5.6896,1.1684 l 2.1844,-17.47521 z" inkscape:connector-curvature="0"/>
      </g>
      <path sodipodi:nodetypes="ccscccc" inkscape:connector-curvature="0" id="path1404" d="m 320.8676,122.82842 c -0.40841,1.5242 -1.78963,2.58405 -3.36761,2.58405 -1.57795,0 -2.95917,-1.05985 -3.36758,-2.58405 -0.40841,-1.52419 0.25786,-3.13267 1.6244,-3.92164 1.0787,-0.62278 1.7432,-1.77375 1.7432,-3.01931 -10e-6,1.24557 0.6645,2.39654 1.7432,3.01931 1.36654,0.78897 2.03279,2.39745 1.62439,3.92164 z" style="display:inline;opacity:1;fill:#a5180e;fill-opacity:1;stroke:none;stroke-width:0.35277781;stroke-linecap:butt;stroke-linejoin:miter;stroke-miterlimit:4;stroke-dasharray:none;stroke-dashoffset:0;stroke-opacity:1;paint-order:fill markers stroke"/>
      <path style="display:inline;opacity:1;fill:#a5180e;fill-opacity:1;stroke:none;stroke-width:0.35277781;stroke-linecap:butt;stroke-linejoin:miter;stroke-miterlimit:4;stroke-dasharray:none;stroke-dashoffset:0;stroke-opacity:1;paint-order:fill markers stroke" d="m 366.11131,181.56601 c -0.40841,1.5242 -1.78963,2.58405 -3.36761,2.58405 -1.57795,0 -2.95917,-1.05985 -3.36758,-2.58405 -0.40841,-1.52419 0.25786,-3.13267 1.6244,-3.92164 1.0787,-0.62278 1.7432,-1.77375 1.7432,-3.01931 -10e-6,1.24557 0.6645,2.39654 1.7432,3.01931 1.36654,0.78897 2.03279,2.39745 1.62439,3.92164 z" id="path1574" inkscape:connector-curvature="0" sodipodi:nodetypes="ccscccc"/>
      <path style="display:inline;opacity:1;fill:#a5180e;fill-opacity:1;stroke:none;stroke-width:0.35277781;stroke-linecap:butt;stroke-linejoin:miter;stroke-miterlimit:4;stroke-dasharray:none;stroke-dashoffset:0;stroke-opacity:1;paint-order:fill markers stroke" d="m 349.82785,165.28522 c -1.22523,4.5726 -5.36889,7.75215 -10.10283,7.75215 -4.73385,0 -8.87751,-3.17955 -10.10274,-7.75215 -1.22523,-4.57257 0.77358,-9.39801 4.8732,-11.76492 3.2361,-1.86834 5.2296,-5.32125 5.2296,-9.05793 -3e-5,3.73671 1.9935,7.18962 5.2296,9.05793 4.09962,2.36691 6.09837,7.19235 4.87317,11.76492 z" id="path1828" inkscape:connector-curvature="0" sodipodi:nodetypes="ccscccc"/>
      <circle r="1.5875001" cy="128.58746" cx="317.5" id="circle1432" style="opacity:1;fill:#808080;fill-opacity:1;stroke:none;stroke-width:0.1763889;stroke-linecap:butt;stroke-linejoin:miter;stroke-miterlimit:38.37685394;stroke-dasharray:none;stroke-dashoffset:0;stroke-opacity:1;paint-order:markers fill stroke"/>
      <circle style="opacity:1;fill:#808080;fill-opacity:1;stroke:none;stroke-width:0.1763889;stroke-linecap:butt;stroke-linejoin:miter;stroke-miterlimit:38.37685394;stroke-dasharray:none;stroke-dashoffset:0;stroke-opacity:1;paint-order:markers fill stroke" id="circle1698" cx="362.74368" cy="187.32503" r="1.5875001"/>
      <circle style="opacity:1;fill:#808080;fill-opacity:1;stroke:none;stroke-width:0.1763889;stroke-linecap:butt;stroke-linejoin:miter;stroke-miterlimit:38.37685394;stroke-dasharray:none;stroke-dashoffset:0;stroke-opacity:1;paint-order:markers fill stroke" id="circle1842" cx="339.72501" cy="182.56238" r="4.7625003"/>
    </g>
    </g></svg>
