<?xml version='1.0' encoding='UTF-8'?>
<!-- Created with Inkscape (http://www.inkscape.org/) and export_objects.py -->
<svg xmlns:cc="http://creativecommons.org/ns#" xmlns:dc="http://purl.org/dc/elements/1.1/" xmlns:inkscape="http://www.inkscape.org/namespaces/inkscape" xmlns:rdf="http://www.w3.org/1999/02/22-rdf-syntax-ns#" xmlns:sodipodi="http://sodipodi.sourceforge.net/DTD/sodipodi-0.dtd" xmlns:xlink="http://www.w3.org/1999/xlink" xmlns="http://www.w3.org/2000/svg" version="1.1" width="2.25in" height="3.5in" viewBox="0 0 57.15 88.9" id="svg8" sodipodi:docname="star-6.svg" inkscape:version="0.92.3 (2405546, 2018-03-11)"><sodipodi:namedview id="base" pagecolor="#ffffff" bordercolor="#666666" borderopacity="1.0" inkscape:pageopacity="0.0" inkscape:pageshadow="2" inkscape:zoom="0.42916667" inkscape:cx="1600.029" inkscape:cy="840" inkscape:document-units="in" inkscape:current-layer="layer10" showgrid="false" units="in" inkscape:measure-start="96,426" inkscape:measure-end="132,426" inkscape:snap-bbox="false" inkscape:snap-nodes="true" inkscape:snap-others="true" inkscape:bbox-nodes="true" inkscape:snap-bbox-edge-midpoints="true" inkscape:snap-text-baseline="true" inkscape:snap-center="true" inkscape:snap-object-midpoints="true" showguides="true" inkscape:snap-smooth-nodes="false" inkscape:snap-bbox-midpoints="true" inkscape:window-width="1920" inkscape:window-height="986" inkscape:window-x="-11" inkscape:window-y="-11" inkscape:window-maximized="1" inkscape:object-nodes="true" inkscape:guide-bbox="true" inkscape:snap-intersection-paths="false" fit-margin-top="0" fit-margin-left="0" fit-margin-right="0" fit-margin-bottom="0">
    <inkscape:grid type="xygrid" id="grid10" units="pt" spacingx="0.79375002" spacingy="0.79375002" originx="-25.4" originy="-25.39999"/>
  </sodipodi:namedview>
  <metadata id="metadata5">
    <rdf:RDF>
      <cc:Work rdf:about="">
        <dc:format>image/svg+xml</dc:format>
        <dc:type rdf:resource="http://purl.org/dc/dcmitype/StillImage"/>
        <dc:title/>
      </cc:Work>
    </rdf:RDF>
  </metadata>
  <g inkscape:groupmode="layer" inkscape:label="star-" transform="matrix(1.000000,0.000000,0.000000,1.000000,-342.900000,0.000000)"><g transform="translate(-25.400002,254)" style="display:inline" id="g2284" inkscape:label="6">
      <rect style="display:inline;opacity:1;fill:#ffffff;fill-opacity:1;stroke:none;stroke-width:0.1763889;stroke-linecap:butt;stroke-linejoin:miter;stroke-miterlimit:38.37685394;stroke-dasharray:none;stroke-dashoffset:0;stroke-opacity:1;paint-order:markers fill stroke" id="rect7451" width="57.150002" height="88.900002" x="368.30002" y="-254"/>
      <g id="text7485" style="font-style:normal;font-variant:normal;font-weight:normal;font-stretch:normal;font-size:11.28888988px;line-height:125%;font-family:Paddington;-inkscape-font-specification:'Paddington, Normal';font-variant-ligatures:normal;font-variant-caps:normal;font-variant-numeric:normal;font-feature-settings:normal;text-align:center;letter-spacing:0px;word-spacing:0px;writing-mode:lr-tb;text-anchor:middle;display:inline;fill:#4c0068;fill-opacity:1;stroke:none;stroke-width:0.26458335" aria-label="6">
        <path id="path8159" style="font-size:16.93333435px;fill:#4c0068;fill-opacity:1;stroke:none;stroke-width:0.26458335" d="m 378.46201,-244.7036 q 0,1.524 -1.10067,2.55693 -1.08373,1.016 -2.6924,1.016 -1.8288,0 -2.87866,-1.30387 -0.9652,-1.18533 -0.9652,-2.92946 0,-1.86267 1.03293,-3.82694 1.04987,-1.96426 2.62467,-3.06493 h 2.794 q -2.6416,1.3208 -3.99627,4.4704 0.74507,-0.33867 1.69333,-0.33867 1.49014,0 2.4892,1.016 0.99907,0.99907 0.99907,2.40454 z m -1.99813,0.11853 q 0,-0.69427 -0.49107,-1.2192 -0.49107,-0.54187 -1.13453,-0.54187 -1.27,0 -1.84574,0.72814 -0.16933,0.22013 -0.16933,0.8636 0,0.8128 0.6096,1.35466 0.6096,0.52494 1.40547,0.52494 0.6604,0 1.13453,-0.49107 0.49107,-0.508 0.49107,-1.2192 z" inkscape:connector-curvature="0"/>
      </g>
      <g id="text7525" style="font-style:normal;font-variant:normal;font-weight:normal;font-stretch:normal;font-size:11.28888988px;line-height:125%;font-family:Paddington;-inkscape-font-specification:'Paddington, Normal';font-variant-ligatures:normal;font-variant-caps:normal;font-variant-numeric:normal;font-feature-settings:normal;text-align:center;letter-spacing:0px;word-spacing:0px;writing-mode:lr-tb;text-anchor:middle;display:inline;fill:#4c0068;fill-opacity:1;stroke:none;stroke-width:0.26458335" aria-label="6">
        <path id="path8129" style="font-size:16.93333435px;fill:#4c0068;fill-opacity:1;stroke:none;stroke-width:0.26458335" d="m 423.70569,-185.96604 q 0,1.524 -1.10066,2.55693 -1.08374,1.016 -2.69241,1.016 -1.8288,0 -2.87866,-1.30386 -0.9652,-1.18534 -0.9652,-2.92947 0,-1.86267 1.03293,-3.82693 1.04987,-1.96427 2.62467,-3.06494 h 2.794 q -2.6416,1.3208 -3.99627,4.4704 0.74507,-0.33866 1.69334,-0.33866 1.49013,0 2.4892,1.016 0.99906,0.99906 0.99906,2.40453 z m -1.99813,0.11853 q 0,-0.69426 -0.49107,-1.2192 -0.49106,-0.54186 -1.13453,-0.54186 -1.27,0 -1.84574,0.72813 -0.16933,0.22013 -0.16933,0.8636 0,0.8128 0.6096,1.35467 0.6096,0.52493 1.40547,0.52493 0.6604,0 1.13453,-0.49107 0.49107,-0.508 0.49107,-1.2192 z" inkscape:connector-curvature="0"/>
      </g>
      <g id="text7565" style="font-style:normal;font-variant:normal;font-weight:normal;font-stretch:normal;font-size:33.8666687px;line-height:125%;font-family:Paddington;-inkscape-font-specification:'Paddington, Normal';font-variant-ligatures:normal;font-variant-caps:normal;font-variant-numeric:normal;font-feature-settings:normal;text-align:center;letter-spacing:0px;word-spacing:0px;writing-mode:lr-tb;text-anchor:middle;display:inline;fill:#4c0068;fill-opacity:1;stroke:none;stroke-width:0.26458335" aria-label="6">
        <path id="path8099" style="font-size:50.80000305px;fill:#4c0068;fill-opacity:1;stroke:none;stroke-width:0.26458335" d="m 408.31095,-226.11081 q 0,4.572 -3.302,7.6708 -3.2512,3.048 -8.0772,3.048 -5.4864,0 -8.636,-3.9116 -2.8956,-3.556 -2.8956,-8.7884 0,-5.588 3.0988,-11.4808 3.1496,-5.8928 7.874,-9.1948 h 8.382 q -7.9248,3.9624 -11.9888,13.4112 2.2352,-1.016 5.08,-1.016 4.4704,0 7.4676,3.048 2.9972,2.9972 2.9972,7.2136 z m -5.9944,0.3556 q 0,-2.0828 -1.4732,-3.6576 -1.4732,-1.6256 -3.4036,-1.6256 -3.81,0 -5.5372,2.1844 -0.508,0.6604 -0.508,2.5908 0,2.4384 1.8288,4.064 1.8288,1.5748 4.2164,1.5748 1.9812,0 3.4036,-1.4732 1.4732,-1.524 1.4732,-3.6576 z" inkscape:connector-curvature="0"/>
      </g>
      <path style="display:inline;opacity:1;fill:#4c0068;fill-opacity:1;stroke:none;stroke-width:0.70555562;stroke-linecap:butt;stroke-linejoin:miter;stroke-miterlimit:4;stroke-dasharray:none;stroke-dashoffset:0;stroke-opacity:1;paint-order:fill markers stroke" d="m 372.22341,-233.68339 c -0.35988,-1.10763 -1.22827,-1.97602 -2.33589,-2.33589 1.10762,0.35987 2.32058,0.16776 3.26277,-0.51678 0.9422,-0.68455 1.49972,-1.77878 1.49972,-2.94338 0,1.1646 0.55756,2.25883 1.49973,2.94338 0.9422,0.68454 2.15517,0.87665 3.26278,0.51678 -1.10761,0.35987 -1.97599,1.22826 -2.33588,2.33589 -0.35989,1.10761 -0.16777,2.32056 0.51676,3.26275 -0.68453,-0.94219 -1.77876,-1.49973 -2.94339,-1.49973 -1.1646,0 -2.25883,0.55754 -2.94338,1.49973 0.68455,-0.94219 0.87667,-2.15514 0.51678,-3.26275 z" id="path7831" inkscape:connector-curvature="0" sodipodi:nodetypes="scscscscscs"/>
      <path sodipodi:nodetypes="scscscscscs" inkscape:connector-curvature="0" id="path7851" d="m 417.46712,-174.9458 c -0.35988,-1.10763 -1.22827,-1.97602 -2.33589,-2.33589 1.10762,0.35987 2.32058,0.16776 3.26277,-0.51678 0.9422,-0.68455 1.49972,-1.77878 1.49972,-2.94338 0,1.1646 0.55756,2.25883 1.49973,2.94338 0.9422,0.68454 2.15517,0.87665 3.26278,0.51678 -1.10761,0.35987 -1.97599,1.22826 -2.33588,2.33589 -0.35989,1.10761 -0.16777,2.32056 0.51676,3.26275 -0.68453,-0.94219 -1.77876,-1.49973 -2.94339,-1.49973 -1.1646,0 -2.25883,0.55754 -2.94338,1.49973 0.68455,-0.94219 0.87667,-2.15514 0.51678,-3.26275 z" style="display:inline;opacity:1;fill:#4c0068;fill-opacity:1;stroke:none;stroke-width:0.70555562;stroke-linecap:butt;stroke-linejoin:miter;stroke-miterlimit:4;stroke-dasharray:none;stroke-dashoffset:0;stroke-opacity:1;paint-order:fill markers stroke"/>
      <path sodipodi:nodetypes="scscscscscs" inkscape:connector-curvature="0" id="path7871" d="m 389.59518,-193.05017 c -1.07964,-3.32289 -3.68481,-5.92806 -7.00767,-7.00767 3.32286,1.07961 6.96174,0.50328 9.78831,-1.55034 2.8266,-2.05365 4.49916,-5.33634 4.49916,-8.83014 0,3.4938 1.67268,6.77649 4.49919,8.83014 2.8266,2.05362 6.46551,2.62995 9.78834,1.55034 -3.32283,1.07961 -5.92797,3.68478 -7.00764,7.00767 -1.07967,3.32283 -0.50331,6.96168 1.55028,9.78825 -2.05359,-2.82657 -5.33628,-4.49919 -8.83017,-4.49919 -3.4938,0 -6.77649,1.67262 -8.83014,4.49919 2.05365,-2.82657 2.63001,-6.46542 1.55034,-9.78825 z" style="display:inline;opacity:1;fill:#4c0068;fill-opacity:1;stroke:none;stroke-width:0.70555562;stroke-linecap:butt;stroke-linejoin:miter;stroke-miterlimit:4;stroke-dasharray:none;stroke-dashoffset:0;stroke-opacity:1;paint-order:fill markers stroke"/>
      <circle style="opacity:1;fill:#808080;fill-opacity:1;stroke:none;stroke-width:0.1763889;stroke-linecap:butt;stroke-linejoin:miter;stroke-miterlimit:38.37685394;stroke-dasharray:none;stroke-dashoffset:0;stroke-opacity:1;paint-order:markers fill stroke" id="circle7889" cx="372.26877" cy="-227.01254" r="1.5875001"/>
      <circle style="opacity:1;fill:#808080;fill-opacity:1;stroke:none;stroke-width:0.1763889;stroke-linecap:butt;stroke-linejoin:miter;stroke-miterlimit:38.37685394;stroke-dasharray:none;stroke-dashoffset:0;stroke-opacity:1;paint-order:markers fill stroke" id="circle7891" cx="377.03128" cy="-227.01254" r="1.5875001"/>
      <circle r="1.5875001" cy="-168.27498" cx="417.51245" id="circle7909" style="opacity:1;fill:#808080;fill-opacity:1;stroke:none;stroke-width:0.1763889;stroke-linecap:butt;stroke-linejoin:miter;stroke-miterlimit:38.37685394;stroke-dasharray:none;stroke-dashoffset:0;stroke-opacity:1;paint-order:markers fill stroke"/>
      <circle r="1.5875001" cy="-168.27498" cx="422.27496" id="circle7911" style="opacity:1;fill:#808080;fill-opacity:1;stroke:none;stroke-width:0.1763889;stroke-linecap:butt;stroke-linejoin:miter;stroke-miterlimit:38.37685394;stroke-dasharray:none;stroke-dashoffset:0;stroke-opacity:1;paint-order:markers fill stroke"/>
      <circle r="4.7625003" cy="-173.03763" cx="389.73123" id="circle7929" style="opacity:1;fill:#808080;fill-opacity:1;stroke:none;stroke-width:0.1763889;stroke-linecap:butt;stroke-linejoin:miter;stroke-miterlimit:38.37685394;stroke-dasharray:none;stroke-dashoffset:0;stroke-opacity:1;paint-order:markers fill stroke"/>
      <circle r="4.7625003" cy="-173.03763" cx="404.01877" id="circle7931" style="opacity:1;fill:#808080;fill-opacity:1;stroke:none;stroke-width:0.1763889;stroke-linecap:butt;stroke-linejoin:miter;stroke-miterlimit:38.37685394;stroke-dasharray:none;stroke-dashoffset:0;stroke-opacity:1;paint-order:markers fill stroke"/>
    </g>
    </g></svg>
