<?xml version='1.0' encoding='UTF-8'?>
<!-- Created with Inkscape (http://www.inkscape.org/) and export_objects.py -->
<svg xmlns:cc="http://creativecommons.org/ns#" xmlns:dc="http://purl.org/dc/elements/1.1/" xmlns:inkscape="http://www.inkscape.org/namespaces/inkscape" xmlns:rdf="http://www.w3.org/1999/02/22-rdf-syntax-ns#" xmlns:sodipodi="http://sodipodi.sourceforge.net/DTD/sodipodi-0.dtd" xmlns:xlink="http://www.w3.org/1999/xlink" xmlns="http://www.w3.org/2000/svg" version="1.1" width="2.25in" height="3.5in" viewBox="0 0 57.15 88.9" id="svg8" sodipodi:docname="star-3.svg" inkscape:version="0.92.3 (2405546, 2018-03-11)"><sodipodi:namedview id="base" pagecolor="#ffffff" bordercolor="#666666" borderopacity="1.0" inkscape:pageopacity="0.0" inkscape:pageshadow="2" inkscape:zoom="0.42916667" inkscape:cx="1600.029" inkscape:cy="840" inkscape:document-units="in" inkscape:current-layer="layer10" showgrid="false" units="in" inkscape:measure-start="96,426" inkscape:measure-end="132,426" inkscape:snap-bbox="false" inkscape:snap-nodes="true" inkscape:snap-others="true" inkscape:bbox-nodes="true" inkscape:snap-bbox-edge-midpoints="true" inkscape:snap-text-baseline="true" inkscape:snap-center="true" inkscape:snap-object-midpoints="true" showguides="true" inkscape:snap-smooth-nodes="false" inkscape:snap-bbox-midpoints="true" inkscape:window-width="1920" inkscape:window-height="986" inkscape:window-x="-11" inkscape:window-y="-11" inkscape:window-maximized="1" inkscape:object-nodes="true" inkscape:guide-bbox="true" inkscape:snap-intersection-paths="false" fit-margin-top="0" fit-margin-left="0" fit-margin-right="0" fit-margin-bottom="0">
    <inkscape:grid type="xygrid" id="grid10" units="pt" spacingx="0.79375002" spacingy="0.79375002" originx="-25.4" originy="-25.39999"/>
  </sodipodi:namedview>
  <metadata id="metadata5">
    <rdf:RDF>
      <cc:Work rdf:about="">
        <dc:format>image/svg+xml</dc:format>
        <dc:type rdf:resource="http://purl.org/dc/dcmitype/StillImage"/>
        <dc:title/>
      </cc:Work>
    </rdf:RDF>
  </metadata>
  <g inkscape:groupmode="layer" inkscape:label="star-" transform="matrix(1.000000,0.000000,0.000000,1.000000,-171.450003,0.000000)"><g transform="translate(-25.400002,254)" style="display:inline" id="g2123" inkscape:label="3">
      <rect y="-254" x="196.85001" height="88.900002" width="57.150002" id="rect7445" style="display:inline;opacity:1;fill:#ffffff;fill-opacity:1;stroke:none;stroke-width:0.1763889;stroke-linecap:butt;stroke-linejoin:miter;stroke-miterlimit:38.37685394;stroke-dasharray:none;stroke-dashoffset:0;stroke-opacity:1;paint-order:markers fill stroke"/>
      <g id="text7473" style="font-style:normal;font-variant:normal;font-weight:normal;font-stretch:normal;font-size:11.28888988px;line-height:125%;font-family:Paddington;-inkscape-font-specification:'Paddington, Normal';font-variant-ligatures:normal;font-variant-caps:normal;font-variant-numeric:normal;font-feature-settings:normal;text-align:center;letter-spacing:0px;word-spacing:0px;writing-mode:lr-tb;text-anchor:middle;display:inline;fill:#4c0068;fill-opacity:1;stroke:none;stroke-width:0.26458335" aria-label="3">
        <path id="path8168" style="font-size:16.93333435px;fill:#4c0068;fill-opacity:1;stroke:none;stroke-width:0.26458335" d="m 207.11515,-252.23894 -2.42146,4.23334 q 0.99906,0.3556 1.59173,1.38853 0.5588,0.93133 0.5588,1.9812 0,1.50707 -1.13453,2.4892 -1.13454,0.9652 -2.72627,0.9652 -0.62653,0 -1.1684,-0.18627 -0.69427,-0.23706 -1.3208,-0.72813 -0.79587,-0.6096 -0.93133,-1.25307 l 1.27,-1.33773 h 0.1016 q 0.8636,1.65947 2.1844,1.65947 0.64346,0 1.13453,-0.4572 0.49107,-0.4572 0.49107,-1.1176 0,-1.1684 -0.8128,-1.65947 -0.7112,-0.42333 -2.1844,-0.42333 l 2.21826,-3.82694 h -4.25026 v -1.7272 z" inkscape:connector-curvature="0"/>
      </g>
      <g id="text7513" style="font-style:normal;font-variant:normal;font-weight:normal;font-stretch:normal;font-size:11.28888988px;line-height:125%;font-family:Paddington;-inkscape-font-specification:'Paddington, Normal';font-variant-ligatures:normal;font-variant-caps:normal;font-variant-numeric:normal;font-feature-settings:normal;text-align:center;letter-spacing:0px;word-spacing:0px;writing-mode:lr-tb;text-anchor:middle;display:inline;fill:#4c0068;fill-opacity:1;stroke:none;stroke-width:0.26458335" aria-label="3">
        <path id="path8138" style="font-size:16.93333435px;fill:#4c0068;fill-opacity:1;stroke:none;stroke-width:0.26458335" d="m 252.35888,-193.50137 -2.42146,4.23333 q 0.99906,0.3556 1.59173,1.38853 0.5588,0.93134 0.5588,1.9812 0,1.50707 -1.13453,2.4892 -1.13454,0.9652 -2.72627,0.9652 -0.62653,0 -1.1684,-0.18626 -0.69427,-0.23707 -1.3208,-0.72814 -0.79587,-0.6096 -0.93133,-1.25306 l 1.27,-1.33774 h 0.1016 q 0.8636,1.65947 2.1844,1.65947 0.64346,0 1.13453,-0.4572 0.49107,-0.4572 0.49107,-1.1176 0,-1.1684 -0.8128,-1.65947 -0.7112,-0.42333 -2.1844,-0.42333 l 2.21826,-3.82693 h -4.25026 v -1.7272 z" inkscape:connector-curvature="0"/>
      </g>
      <g id="text7553" style="font-style:normal;font-variant:normal;font-weight:normal;font-stretch:normal;font-size:33.8666687px;line-height:125%;font-family:Paddington;-inkscape-font-specification:'Paddington, Normal';font-variant-ligatures:normal;font-variant-caps:normal;font-variant-numeric:normal;font-feature-settings:normal;text-align:center;letter-spacing:0px;word-spacing:0px;writing-mode:lr-tb;text-anchor:middle;display:inline;fill:#4c0068;fill-opacity:1;stroke:none;stroke-width:0.26458335" aria-label="3">
        <path id="path8108" style="font-size:50.80000305px;fill:#4c0068;fill-opacity:1;stroke:none;stroke-width:0.26458335" d="m 237.17052,-248.71681 -7.2644,12.7 q 2.9972,1.0668 4.7752,4.1656 1.6764,2.794 1.6764,5.9436 0,4.5212 -3.4036,7.4676 -3.4036,2.8956 -8.1788,2.8956 -1.8796,0 -3.5052,-0.5588 -2.0828,-0.7112 -3.9624,-2.1844 -2.3876,-1.8288 -2.794,-3.7592 l 3.81,-4.0132 h 0.3048 q 2.5908,4.9784 6.5532,4.9784 1.9304,0 3.4036,-1.3716 1.4732,-1.3716 1.4732,-3.3528 0,-3.5052 -2.4384,-4.9784 -2.1336,-1.27 -6.5532,-1.27 l 6.6548,-11.4808 h -12.7508 v -5.1816 z" inkscape:connector-curvature="0"/>
      </g>
      <path sodipodi:nodetypes="scscscscscs" inkscape:connector-curvature="0" id="path7825" d="m 200.77338,-233.68338 c -0.35988,-1.10763 -1.22827,-1.97602 -2.33588,-2.33589 1.10761,0.35987 2.32057,0.16776 3.26276,-0.51678 0.9422,-0.68455 1.49972,-1.77878 1.49972,-2.94338 0,1.1646 0.55756,2.25883 1.49973,2.94338 0.9422,0.68454 2.15517,0.87665 3.26278,0.51678 -1.10761,0.35987 -1.97599,1.22826 -2.33588,2.33589 -0.35989,1.10761 -0.16777,2.32056 0.51676,3.26275 -0.68453,-0.94219 -1.77877,-1.49973 -2.94339,-1.49973 -1.1646,0 -2.25883,0.55754 -2.94338,1.49973 0.68455,-0.94219 0.87667,-2.15514 0.51678,-3.26275 z" style="display:inline;opacity:1;fill:#4c0068;fill-opacity:1;stroke:none;stroke-width:0.70555562;stroke-linecap:butt;stroke-linejoin:miter;stroke-miterlimit:4;stroke-dasharray:none;stroke-dashoffset:0;stroke-opacity:1;paint-order:fill markers stroke"/>
      <path style="display:inline;opacity:1;fill:#4c0068;fill-opacity:1;stroke:none;stroke-width:0.70555562;stroke-linecap:butt;stroke-linejoin:miter;stroke-miterlimit:4;stroke-dasharray:none;stroke-dashoffset:0;stroke-opacity:1;paint-order:fill markers stroke" d="m 246.01709,-174.94579 c -0.35988,-1.10763 -1.22827,-1.97602 -2.33588,-2.33589 1.10761,0.35987 2.32057,0.16776 3.26276,-0.51678 0.9422,-0.68455 1.49972,-1.77878 1.49972,-2.94338 0,1.1646 0.55756,2.25883 1.49973,2.94338 0.9422,0.68454 2.15517,0.87665 3.26278,0.51678 -1.10761,0.35987 -1.97599,1.22826 -2.33588,2.33589 -0.35989,1.10761 -0.16777,2.32056 0.51676,3.26275 -0.68453,-0.94219 -1.77877,-1.49973 -2.94339,-1.49973 -1.1646,0 -2.25883,0.55754 -2.94338,1.49973 0.68455,-0.94219 0.87667,-2.15514 0.51678,-3.26275 z" id="path7845" inkscape:connector-curvature="0" sodipodi:nodetypes="scscscscscs"/>
      <path style="display:inline;opacity:1;fill:#4c0068;fill-opacity:1;stroke:none;stroke-width:0.70555562;stroke-linecap:butt;stroke-linejoin:miter;stroke-miterlimit:4;stroke-dasharray:none;stroke-dashoffset:0;stroke-opacity:1;paint-order:fill markers stroke" d="m 218.1452,-193.05013 c -1.07964,-3.32289 -3.68481,-5.92806 -7.00764,-7.00767 3.32283,1.07961 6.96171,0.50328 9.78828,-1.55034 2.8266,-2.05365 4.49916,-5.33634 4.49916,-8.83014 0,3.4938 1.67268,6.77649 4.49919,8.83014 2.8266,2.05362 6.46551,2.62995 9.78834,1.55034 -3.32283,1.07961 -5.92797,3.68478 -7.00764,7.00767 -1.07967,3.32283 -0.50331,6.96168 1.55028,9.78825 -2.05359,-2.82657 -5.33631,-4.49919 -8.83017,-4.49919 -3.4938,0 -6.77649,1.67262 -8.83014,4.49919 2.05365,-2.82657 2.63001,-6.46542 1.55034,-9.78825 z" id="path7865" inkscape:connector-curvature="0" sodipodi:nodetypes="scscscscscs"/>
      <circle style="opacity:1;fill:#808080;fill-opacity:1;stroke:none;stroke-width:0.1763889;stroke-linecap:butt;stroke-linejoin:miter;stroke-miterlimit:38.37685394;stroke-dasharray:none;stroke-dashoffset:0;stroke-opacity:1;paint-order:markers fill stroke" id="circle7883" cx="203.19998" cy="-227.01253" r="1.5875001"/>
      <circle r="1.5875001" cy="-168.27496" cx="248.44371" id="circle7903" style="opacity:1;fill:#808080;fill-opacity:1;stroke:none;stroke-width:0.1763889;stroke-linecap:butt;stroke-linejoin:miter;stroke-miterlimit:38.37685394;stroke-dasharray:none;stroke-dashoffset:0;stroke-opacity:1;paint-order:markers fill stroke"/>
      <circle r="4.7625003" cy="-173.03758" cx="225.425" id="circle7923" style="opacity:1;fill:#808080;fill-opacity:1;stroke:none;stroke-width:0.1763889;stroke-linecap:butt;stroke-linejoin:miter;stroke-miterlimit:38.37685394;stroke-dasharray:none;stroke-dashoffset:0;stroke-opacity:1;paint-order:markers fill stroke"/>
    </g>
    </g></svg>
