<?xml version='1.0' encoding='UTF-8'?>
<!-- Created with Inkscape (http://www.inkscape.org/) and export_objects.py -->
<svg xmlns:cc="http://creativecommons.org/ns#" xmlns:dc="http://purl.org/dc/elements/1.1/" xmlns:inkscape="http://www.inkscape.org/namespaces/inkscape" xmlns:rdf="http://www.w3.org/1999/02/22-rdf-syntax-ns#" xmlns:sodipodi="http://sodipodi.sourceforge.net/DTD/sodipodi-0.dtd" xmlns:xlink="http://www.w3.org/1999/xlink" xmlns="http://www.w3.org/2000/svg" version="1.1" width="2.25in" height="3.5in" viewBox="0 0 57.15 88.9" id="svg8" sodipodi:docname="star-8.svg" inkscape:version="0.92.3 (2405546, 2018-03-11)"><sodipodi:namedview id="base" pagecolor="#ffffff" bordercolor="#666666" borderopacity="1.0" inkscape:pageopacity="0.0" inkscape:pageshadow="2" inkscape:zoom="0.42916667" inkscape:cx="1600.029" inkscape:cy="840" inkscape:document-units="in" inkscape:current-layer="layer10" showgrid="false" units="in" inkscape:measure-start="96,426" inkscape:measure-end="132,426" inkscape:snap-bbox="false" inkscape:snap-nodes="true" inkscape:snap-others="true" inkscape:bbox-nodes="true" inkscape:snap-bbox-edge-midpoints="true" inkscape:snap-text-baseline="true" inkscape:snap-center="true" inkscape:snap-object-midpoints="true" showguides="true" inkscape:snap-smooth-nodes="false" inkscape:snap-bbox-midpoints="true" inkscape:window-width="1920" inkscape:window-height="986" inkscape:window-x="-11" inkscape:window-y="-11" inkscape:window-maximized="1" inkscape:object-nodes="true" inkscape:guide-bbox="true" inkscape:snap-intersection-paths="false" fit-margin-top="0" fit-margin-left="0" fit-margin-right="0" fit-margin-bottom="0">
    <inkscape:grid type="xygrid" id="grid10" units="pt" spacingx="0.79375002" spacingy="0.79375002" originx="-25.4" originy="-25.39999"/>
  </sodipodi:namedview>
  <metadata id="metadata5">
    <rdf:RDF>
      <cc:Work rdf:about="">
        <dc:format>image/svg+xml</dc:format>
        <dc:type rdf:resource="http://purl.org/dc/dcmitype/StillImage"/>
        <dc:title/>
      </cc:Work>
    </rdf:RDF>
  </metadata>
  <g inkscape:groupmode="layer" inkscape:label="star-" transform="matrix(1.000000,0.000000,0.000000,1.000000,-457.200000,0.000000)"><g transform="translate(-25.400002,254)" style="display:inline" id="g2371" inkscape:label="8">
      <rect y="-254" x="482.60001" height="88.900002" width="57.150002" id="rect7455" style="display:inline;opacity:1;fill:#ffffff;fill-opacity:1;stroke:none;stroke-width:0.1763889;stroke-linecap:butt;stroke-linejoin:miter;stroke-miterlimit:38.37685394;stroke-dasharray:none;stroke-dashoffset:0;stroke-opacity:1;paint-order:markers fill stroke"/>
      <g id="text7493" style="font-style:normal;font-variant:normal;font-weight:normal;font-stretch:normal;font-size:11.28888988px;line-height:125%;font-family:Paddington;-inkscape-font-specification:'Paddington, Normal';font-variant-ligatures:normal;font-variant-caps:normal;font-variant-numeric:normal;font-feature-settings:normal;text-align:center;letter-spacing:0px;word-spacing:0px;writing-mode:lr-tb;text-anchor:middle;display:inline;fill:#4c0068;fill-opacity:1;stroke:none;stroke-width:0.26458335" aria-label="8">
        <path id="path8153" style="font-size:16.93333435px;fill:#4c0068;fill-opacity:1;stroke:none;stroke-width:0.26458335" d="m 492.41341,-244.51734 q 0,1.33774 -1.03294,2.35374 -1.03293,1.016 -2.45533,1.016 -1.55787,0 -2.52307,-0.82974 -0.94826,-0.84666 -0.94826,-2.31986 0,-1.81187 1.81186,-3.06494 -1.33773,-1.10066 -1.33773,-2.50613 0,-1.1684 0.9144,-1.86267 0.84667,-0.64346 2.09973,-0.64346 1.25307,0 2.0828,0.6604 0.84667,0.7112 0.84667,1.8796 0,1.4224 -1.28693,2.50613 1.8288,1.18533 1.8288,2.81093 z m -2.37067,-5.30013 q 0,-0.44027 -0.3556,-0.77893 -0.3556,-0.33867 -0.74507,-0.33867 -0.44026,0 -0.762,0.254 -0.37253,0.28787 -0.37253,0.72813 0,0.94827 1.15147,1.71027 1.08373,-0.762 1.08373,-1.5748 z m 0.49107,5.2832 q 0,-0.77893 -1.71027,-1.79493 -1.4732,0.93133 -1.4732,1.94733 0,0.6096 0.47413,1.0668 0.49107,0.44027 1.0668,0.44027 0.59267,0 1.1176,-0.508 0.52494,-0.508 0.52494,-1.15147 z" inkscape:connector-curvature="0"/>
      </g>
      <g id="text7533" style="font-style:normal;font-variant:normal;font-weight:normal;font-stretch:normal;font-size:11.28888988px;line-height:125%;font-family:Paddington;-inkscape-font-specification:'Paddington, Normal';font-variant-ligatures:normal;font-variant-caps:normal;font-variant-numeric:normal;font-feature-settings:normal;text-align:center;letter-spacing:0px;word-spacing:0px;writing-mode:lr-tb;text-anchor:middle;display:inline;fill:#4c0068;fill-opacity:1;stroke:none;stroke-width:0.26458335" aria-label="8">
        <path id="path8123" style="font-size:16.93333435px;fill:#4c0068;fill-opacity:1;stroke:none;stroke-width:0.26458335" d="m 537.65712,-185.77977 q 0,1.33773 -1.03293,2.35373 -1.03294,1.016 -2.45534,1.016 -1.55786,0 -2.52306,-0.82973 -0.94827,-0.84667 -0.94827,-2.31987 0,-1.81187 1.81187,-3.06493 -1.33774,-1.10067 -1.33774,-2.50614 0,-1.1684 0.9144,-1.86266 0.84667,-0.64347 2.09974,-0.64347 1.25306,0 2.0828,0.6604 0.84666,0.7112 0.84666,1.8796 0,1.4224 -1.28693,2.50613 1.8288,1.18534 1.8288,2.81094 z m -2.37067,-5.30014 q 0,-0.44026 -0.3556,-0.77893 -0.3556,-0.33867 -0.74506,-0.33867 -0.44027,0 -0.762,0.254 -0.37254,0.28787 -0.37254,0.72814 0,0.94826 1.15147,1.71026 1.08373,-0.762 1.08373,-1.5748 z m 0.49107,5.2832 q 0,-0.77893 -1.71027,-1.79493 -1.4732,0.93133 -1.4732,1.94733 0,0.6096 0.47414,1.0668 0.49106,0.44027 1.0668,0.44027 0.59266,0 1.1176,-0.508 0.52493,-0.508 0.52493,-1.15147 z" inkscape:connector-curvature="0"/>
      </g>
      <g id="text7573" style="font-style:normal;font-variant:normal;font-weight:normal;font-stretch:normal;font-size:33.8666687px;line-height:125%;font-family:Paddington;-inkscape-font-specification:'Paddington, Normal';font-variant-ligatures:normal;font-variant-caps:normal;font-variant-numeric:normal;font-feature-settings:normal;text-align:center;letter-spacing:0px;word-spacing:0px;writing-mode:lr-tb;text-anchor:middle;display:inline;fill:#4c0068;fill-opacity:1;stroke:none;stroke-width:0.26458335" aria-label="8">
        <path id="path8093" style="font-size:50.80000305px;fill:#4c0068;fill-opacity:1;stroke:none;stroke-width:0.26458335" d="m 521.56521,-225.55201 q 0,4.0132 -3.0988,7.0612 -3.0988,3.048 -7.366,3.048 -4.6736,0 -7.5692,-2.4892 -2.8448,-2.54 -2.8448,-6.9596 0,-5.4356 5.4356,-9.1948 -4.0132,-3.302 -4.0132,-7.5184 0,-3.5052 2.7432,-5.588 2.54,-1.9304 6.2992,-1.9304 3.7592,0 6.2484,1.9812 2.54,2.1336 2.54,5.6388 0,4.2672 -3.8608,7.5184 5.4864,3.556 5.4864,8.4328 z m -7.112,-15.9004 q 0,-1.3208 -1.0668,-2.3368 -1.0668,-1.016 -2.2352,-1.016 -1.3208,0 -2.286,0.762 -1.1176,0.8636 -1.1176,2.1844 0,2.8448 3.4544,5.1308 3.2512,-2.286 3.2512,-4.7244 z m 1.4732,15.8496 q 0,-2.3368 -5.1308,-5.3848 -4.4196,2.794 -4.4196,5.842 0,1.8288 1.4224,3.2004 1.4732,1.3208 3.2004,1.3208 1.778,0 3.3528,-1.524 1.5748,-1.524 1.5748,-3.4544 z" inkscape:connector-curvature="0"/>
      </g>
      <path sodipodi:nodetypes="scscscscscs" inkscape:connector-curvature="0" id="path7835" d="m 486.5234,-233.6834 c -0.35988,-1.10763 -1.22827,-1.97602 -2.33589,-2.33589 1.10762,0.35987 2.32058,0.16776 3.26277,-0.51678 0.9422,-0.68455 1.49972,-1.77878 1.49972,-2.94338 0,1.1646 0.55756,2.25883 1.49973,2.94338 0.9422,0.68454 2.15517,0.87665 3.26278,0.51678 -1.10761,0.35987 -1.97599,1.22826 -2.33588,2.33589 -0.35989,1.10761 -0.16777,2.32056 0.51676,3.26275 -0.68453,-0.94219 -1.77876,-1.49973 -2.94339,-1.49973 -1.1646,0 -2.25883,0.55754 -2.94338,1.49973 0.68455,-0.94219 0.87667,-2.15514 0.51678,-3.26275 z" style="display:inline;opacity:1;fill:#4c0068;fill-opacity:1;stroke:none;stroke-width:0.70555562;stroke-linecap:butt;stroke-linejoin:miter;stroke-miterlimit:4;stroke-dasharray:none;stroke-dashoffset:0;stroke-opacity:1;paint-order:fill markers stroke"/>
      <path style="display:inline;opacity:1;fill:#4c0068;fill-opacity:1;stroke:none;stroke-width:0.70555562;stroke-linecap:butt;stroke-linejoin:miter;stroke-miterlimit:4;stroke-dasharray:none;stroke-dashoffset:0;stroke-opacity:1;paint-order:fill markers stroke" d="m 531.76711,-174.94581 c -0.35988,-1.10763 -1.22827,-1.97602 -2.33589,-2.33589 1.10762,0.35987 2.32058,0.16776 3.26277,-0.51678 0.9422,-0.68455 1.49972,-1.77878 1.49972,-2.94338 0,1.1646 0.55756,2.25883 1.49973,2.94338 0.9422,0.68454 2.15517,0.87665 3.26278,0.51678 -1.10761,0.35987 -1.97599,1.22826 -2.33588,2.33589 -0.35989,1.10761 -0.16777,2.32056 0.51676,3.26275 -0.68453,-0.94219 -1.77876,-1.49973 -2.94339,-1.49973 -1.1646,0 -2.25883,0.55754 -2.94338,1.49973 0.68455,-0.94219 0.87667,-2.15514 0.51678,-3.26275 z" id="path7855" inkscape:connector-curvature="0" sodipodi:nodetypes="scscscscscs"/>
      <path style="display:inline;opacity:1;fill:#4c0068;fill-opacity:1;stroke:none;stroke-width:0.70555562;stroke-linecap:butt;stroke-linejoin:miter;stroke-miterlimit:4;stroke-dasharray:none;stroke-dashoffset:0;stroke-opacity:1;paint-order:fill markers stroke" d="m 503.89516,-193.05018 c -1.07964,-3.32289 -3.68481,-5.92806 -7.00767,-7.00767 3.32286,1.07961 6.96174,0.50328 9.78831,-1.55034 2.8266,-2.05365 4.49916,-5.33634 4.49916,-8.83014 0,3.4938 1.67268,6.77649 4.49919,8.83014 2.8266,2.05362 6.46551,2.62995 9.78834,1.55034 -3.32283,1.07961 -5.92797,3.68478 -7.00764,7.00767 -1.07967,3.32283 -0.50331,6.96168 1.55028,9.78825 -2.05359,-2.82657 -5.33628,-4.49919 -8.83017,-4.49919 -3.4938,0 -6.77649,1.67262 -8.83014,4.49919 2.05365,-2.82657 2.63001,-6.46542 1.55034,-9.78825 z" id="path7875" inkscape:connector-curvature="0" sodipodi:nodetypes="scscscscscs"/>
      <circle style="opacity:1;fill:#808080;fill-opacity:1;stroke:none;stroke-width:0.1763889;stroke-linecap:butt;stroke-linejoin:miter;stroke-miterlimit:38.37685394;stroke-dasharray:none;stroke-dashoffset:0;stroke-opacity:1;paint-order:markers fill stroke" id="circle7897" cx="488.95001" cy="-227.01256" r="1.5875001"/>
      <circle r="1.5875001" cy="-168.27499" cx="534.19373" id="circle7917" style="opacity:1;fill:#808080;fill-opacity:1;stroke:none;stroke-width:0.1763889;stroke-linecap:butt;stroke-linejoin:miter;stroke-miterlimit:38.37685394;stroke-dasharray:none;stroke-dashoffset:0;stroke-opacity:1;paint-order:markers fill stroke"/>
      <circle r="4.7625003" cy="-173.03767" cx="511.17502" id="circle7937" style="opacity:1;fill:#808080;fill-opacity:1;stroke:none;stroke-width:0.1763889;stroke-linecap:butt;stroke-linejoin:miter;stroke-miterlimit:38.37685394;stroke-dasharray:none;stroke-dashoffset:0;stroke-opacity:1;paint-order:markers fill stroke"/>
    </g>
    </g></svg>
