<?xml version='1.0' encoding='UTF-8'?>
<!-- Created with Inkscape (http://www.inkscape.org/) and export_objects.py -->
<svg xmlns:cc="http://creativecommons.org/ns#" xmlns:dc="http://purl.org/dc/elements/1.1/" xmlns:inkscape="http://www.inkscape.org/namespaces/inkscape" xmlns:rdf="http://www.w3.org/1999/02/22-rdf-syntax-ns#" xmlns:sodipodi="http://sodipodi.sourceforge.net/DTD/sodipodi-0.dtd" xmlns:xlink="http://www.w3.org/1999/xlink" xmlns="http://www.w3.org/2000/svg" version="1.1" width="2.25in" height="3.5in" viewBox="0 0 57.15 88.9" id="svg8" sodipodi:docname="star-0.svg" inkscape:version="0.92.3 (2405546, 2018-03-11)"><sodipodi:namedview id="base" pagecolor="#ffffff" bordercolor="#666666" borderopacity="1.0" inkscape:pageopacity="0.0" inkscape:pageshadow="2" inkscape:zoom="0.42916667" inkscape:cx="1600.029" inkscape:cy="840" inkscape:document-units="in" inkscape:current-layer="layer10" showgrid="false" units="in" inkscape:measure-start="96,426" inkscape:measure-end="132,426" inkscape:snap-bbox="false" inkscape:snap-nodes="true" inkscape:snap-others="true" inkscape:bbox-nodes="true" inkscape:snap-bbox-edge-midpoints="true" inkscape:snap-text-baseline="true" inkscape:snap-center="true" inkscape:snap-object-midpoints="true" showguides="true" inkscape:snap-smooth-nodes="false" inkscape:snap-bbox-midpoints="true" inkscape:window-width="1920" inkscape:window-height="986" inkscape:window-x="-11" inkscape:window-y="-11" inkscape:window-maximized="1" inkscape:object-nodes="true" inkscape:guide-bbox="true" inkscape:snap-intersection-paths="false" fit-margin-top="0" fit-margin-left="0" fit-margin-right="0" fit-margin-bottom="0">
    <inkscape:grid type="xygrid" id="grid10" units="pt" spacingx="0.79375002" spacingy="0.79375002" originx="-25.4" originy="-25.39999"/>
  </sodipodi:namedview>
  <metadata id="metadata5">
    <rdf:RDF>
      <cc:Work rdf:about="">
        <dc:format>image/svg+xml</dc:format>
        <dc:type rdf:resource="http://purl.org/dc/dcmitype/StillImage"/>
        <dc:title/>
      </cc:Work>
    </rdf:RDF>
  </metadata>
  <g inkscape:groupmode="layer" inkscape:label="star-" transform="matrix(1.000000,0.000000,0.000000,1.000000,0.000000,0.000000)"><g transform="translate(-25.400002,254)" style="display:inline" id="g2004" inkscape:label="0">
      <rect y="-254" x="25.400002" height="88.900002" width="57.150002" id="rect7439" style="display:inline;opacity:1;fill:#ffffff;fill-opacity:1;stroke:none;stroke-width:0.1763889;stroke-linecap:butt;stroke-linejoin:miter;stroke-miterlimit:38.37685394;stroke-dasharray:none;stroke-dashoffset:0;stroke-opacity:1;paint-order:markers fill stroke"/>
      <g id="text7461" style="font-style:normal;font-variant:normal;font-weight:normal;font-stretch:normal;font-size:11.28888988px;line-height:125%;font-family:Paddington;-inkscape-font-specification:'Paddington, Normal';font-variant-ligatures:normal;font-variant-caps:normal;font-variant-numeric:normal;font-feature-settings:normal;text-align:center;letter-spacing:0px;word-spacing:0px;writing-mode:lr-tb;text-anchor:middle;display:inline;fill:#4c0068;fill-opacity:1;stroke:none;stroke-width:0.26458335" aria-label="0">
        <path id="path8177" style="font-size:16.93333435px;fill:#4c0068;fill-opacity:1;stroke:none;stroke-width:0.26458335" d="m 35.443451,-246.7864 q 0,1.99813 -0.778933,3.556 -1.016,2.01506 -2.9464,2.01506 -1.913467,0 -2.929467,-2.01506 -0.778934,-1.55787 -0.778934,-3.556 0,-1.99814 0.778934,-3.556 1.016,-2.01507 2.929467,-2.01507 1.947333,0 2.9464,1.99813 0.778933,1.55787 0.778933,3.57294 z m -1.896533,0 q 0,-1.23614 -0.3556,-2.3368 -0.491067,-1.524 -1.439334,-1.524 -0.592666,0 -1.0668,0.8128 -0.389466,0.64346 -0.5588,1.50706 -0.1524,0.762 -0.1524,1.54094 0,1.27 0.338667,2.3368 0.474133,1.50706 1.439333,1.50706 0.982134,0 1.456267,-1.50706 0.338667,-1.0668 0.338667,-2.3368 z" inkscape:connector-curvature="0"/>
      </g>
      <g id="text7501" style="font-style:normal;font-variant:normal;font-weight:normal;font-stretch:normal;font-size:11.28888988px;line-height:125%;font-family:Paddington;-inkscape-font-specification:'Paddington, Normal';font-variant-ligatures:normal;font-variant-caps:normal;font-variant-numeric:normal;font-feature-settings:normal;text-align:center;letter-spacing:0px;word-spacing:0px;writing-mode:lr-tb;text-anchor:middle;display:inline;fill:#4c0068;fill-opacity:1;stroke:none;stroke-width:0.26458335" aria-label="0">
        <path id="path8147" style="font-size:16.93333435px;fill:#4c0068;fill-opacity:1;stroke:none;stroke-width:0.26458335" d="m 80.687172,-188.04884 q 0,1.99813 -0.778933,3.556 -1.016,2.01507 -2.9464,2.01507 -1.913467,0 -2.929467,-2.01507 -0.778934,-1.55787 -0.778934,-3.556 0,-1.99813 0.778934,-3.556 1.016,-2.01507 2.929467,-2.01507 1.947333,0 2.9464,1.99814 0.778933,1.55786 0.778933,3.57293 z m -1.896533,0 q 0,-1.23613 -0.3556,-2.3368 -0.491067,-1.524 -1.439334,-1.524 -0.592666,0 -1.0668,0.8128 -0.389466,0.64347 -0.5588,1.50707 -0.1524,0.762 -0.1524,1.54093 0,1.27 0.338667,2.3368 0.474133,1.50707 1.439333,1.50707 0.982134,0 1.456267,-1.50707 0.338667,-1.0668 0.338667,-2.3368 z" inkscape:connector-curvature="0"/>
      </g>
      <g id="text7541" style="font-style:normal;font-variant:normal;font-weight:normal;font-stretch:normal;font-size:33.8666687px;line-height:125%;font-family:Paddington;-inkscape-font-specification:'Paddington, Normal';font-variant-ligatures:normal;font-variant-caps:normal;font-variant-numeric:normal;font-feature-settings:normal;text-align:center;letter-spacing:0px;word-spacing:0px;writing-mode:lr-tb;text-anchor:middle;display:inline;fill:#4c0068;fill-opacity:1;stroke:none;stroke-width:0.26458335" aria-label="0">
        <path id="path8117" style="font-size:50.80000305px;fill:#4c0068;fill-opacity:1;stroke:none;stroke-width:0.26458335" d="m 65.055356,-232.35921 q 0,5.9944 -2.3368,10.668 -3.048,6.0452 -8.839201,6.0452 -5.7404,0 -8.7884,-6.0452 -2.3368,-4.6736 -2.3368,-10.668 0,-5.9944 2.3368,-10.668 3.048,-6.0452 8.7884,-6.0452 5.842001,0 8.839201,5.9944 2.3368,4.6736 2.3368,10.7188 z m -5.6896,0 q 0,-3.7084 -1.0668,-7.0104 -1.4732,-4.572 -4.318001,-4.572 -1.778,0 -3.2004,2.4384 -1.1684,1.9304 -1.6764,4.5212 -0.4572,2.286 -0.4572,4.6228 0,3.81 1.016,7.0104 1.4224,4.5212 4.318,4.5212 2.946401,0 4.368801,-4.5212 1.016,-3.2004 1.016,-7.0104 z" inkscape:connector-curvature="0"/>
      </g>
      <path sodipodi:nodetypes="scscscscscs" inkscape:connector-curvature="0" id="path7819" d="m 29.323383,-233.68336 c -0.35988,-1.10763 -1.228273,-1.97602 -2.335886,-2.33589 1.107613,0.35987 2.320574,0.16776 3.262766,-0.51678 0.942204,-0.68455 1.499723,-1.77878 1.499723,-2.94338 0,1.1646 0.557556,2.25883 1.499724,2.94338 0.942204,0.68454 2.155175,0.87665 3.262787,0.51678 -1.107612,0.35987 -1.975991,1.22826 -2.335883,2.33589 -0.359892,1.10761 -0.167772,2.32056 0.516756,3.26275 -0.684528,-0.94219 -1.778761,-1.49973 -2.943385,-1.49973 -1.1646,0 -2.25883,0.55754 -2.943383,1.49973 0.684552,-0.94219 0.87667,-2.15514 0.516781,-3.26275 z" style="display:inline;opacity:1;fill:#4c0068;fill-opacity:1;stroke:none;stroke-width:0.70555562;stroke-linecap:butt;stroke-linejoin:miter;stroke-miterlimit:4;stroke-dasharray:none;stroke-dashoffset:0;stroke-opacity:1;paint-order:fill markers stroke"/>
      <path style="display:inline;opacity:1;fill:#4c0068;fill-opacity:1;stroke:none;stroke-width:0.70555562;stroke-linecap:butt;stroke-linejoin:miter;stroke-miterlimit:4;stroke-dasharray:none;stroke-dashoffset:0;stroke-opacity:1;paint-order:fill markers stroke" d="m 74.567104,-174.94577 c -0.35988,-1.10763 -1.228273,-1.97602 -2.335886,-2.33589 1.107613,0.35987 2.320574,0.16776 3.262766,-0.51678 0.942204,-0.68455 1.499723,-1.77878 1.499723,-2.94338 0,1.1646 0.557556,2.25883 1.499724,2.94338 0.942204,0.68454 2.155175,0.87665 3.262787,0.51678 -1.107612,0.35987 -1.975991,1.22826 -2.335883,2.33589 -0.359892,1.10761 -0.167772,2.32056 0.516756,3.26275 -0.684528,-0.94219 -1.778761,-1.49973 -2.943385,-1.49973 -1.1646,0 -2.25883,0.55754 -2.943383,1.49973 0.684552,-0.94219 0.87667,-2.15514 0.516781,-3.26275 z" id="path7839" inkscape:connector-curvature="0" sodipodi:nodetypes="scscscscscs"/>
      <path style="display:inline;opacity:1;fill:#4c0068;fill-opacity:1;stroke:none;stroke-width:0.70555562;stroke-linecap:butt;stroke-linejoin:miter;stroke-miterlimit:4;stroke-dasharray:none;stroke-dashoffset:0;stroke-opacity:1;paint-order:fill markers stroke" d="m 46.695159,-193.05006 c -1.07964,-3.32289 -3.684819,-5.92806 -7.007658,-7.00767 3.322839,1.07961 6.961722,0.50328 9.788298,-1.55034 2.826612,-2.05365 4.499169,-5.33634 4.499169,-8.83014 0,3.4938 1.672668,6.77649 4.499172,8.83014 2.826612,2.05362 6.465525,2.62995 9.788361,1.55034 -3.322836,1.07961 -5.927973,3.68478 -7.007649,7.00767 -1.079676,3.32283 -0.503316,6.96168 1.550268,9.78825 -2.053584,-2.82657 -5.336283,-4.49919 -8.830155,-4.49919 -3.4938,0 -6.77649,1.67262 -8.830149,4.49919 2.053656,-2.82657 2.63001,-6.46542 1.550343,-9.78825 z" id="path7859" inkscape:connector-curvature="0" sodipodi:nodetypes="scscscscscs"/>
      <circle style="opacity:1;fill:#808080;fill-opacity:1;stroke:none;stroke-width:0.1763889;stroke-linecap:butt;stroke-linejoin:miter;stroke-miterlimit:38.37685394;stroke-dasharray:none;stroke-dashoffset:0;stroke-opacity:1;paint-order:markers fill stroke" id="circle7879" cx="31.75" cy="-227.0125" r="1.5875001"/>
      <circle r="1.5875001" cy="-168.27493" cx="76.993721" id="circle7899" style="opacity:1;fill:#808080;fill-opacity:1;stroke:none;stroke-width:0.1763889;stroke-linecap:butt;stroke-linejoin:miter;stroke-miterlimit:38.37685394;stroke-dasharray:none;stroke-dashoffset:0;stroke-opacity:1;paint-order:markers fill stroke"/>
      <circle r="4.7625003" cy="-173.03749" cx="53.975002" id="circle7919" style="opacity:1;fill:#808080;fill-opacity:1;stroke:none;stroke-width:0.1763889;stroke-linecap:butt;stroke-linejoin:miter;stroke-miterlimit:38.37685394;stroke-dasharray:none;stroke-dashoffset:0;stroke-opacity:1;paint-order:markers fill stroke"/>
    </g>
    </g></svg>
