<?xml version='1.0' encoding='UTF-8'?>
<!-- Created with Inkscape (http://www.inkscape.org/) and export_objects.py -->
<svg xmlns:cc="http://creativecommons.org/ns#" xmlns:dc="http://purl.org/dc/elements/1.1/" xmlns:inkscape="http://www.inkscape.org/namespaces/inkscape" xmlns:rdf="http://www.w3.org/1999/02/22-rdf-syntax-ns#" xmlns:sodipodi="http://sodipodi.sourceforge.net/DTD/sodipodi-0.dtd" xmlns:xlink="http://www.w3.org/1999/xlink" xmlns="http://www.w3.org/2000/svg" version="1.1" width="2.25in" height="3.5in" viewBox="0 0 57.15 88.9" id="svg8" sodipodi:docname="star-1.svg" inkscape:version="0.92.3 (2405546, 2018-03-11)"><sodipodi:namedview id="base" pagecolor="#ffffff" bordercolor="#666666" borderopacity="1.0" inkscape:pageopacity="0.0" inkscape:pageshadow="2" inkscape:zoom="0.42916667" inkscape:cx="1600.029" inkscape:cy="840" inkscape:document-units="in" inkscape:current-layer="layer10" showgrid="false" units="in" inkscape:measure-start="96,426" inkscape:measure-end="132,426" inkscape:snap-bbox="false" inkscape:snap-nodes="true" inkscape:snap-others="true" inkscape:bbox-nodes="true" inkscape:snap-bbox-edge-midpoints="true" inkscape:snap-text-baseline="true" inkscape:snap-center="true" inkscape:snap-object-midpoints="true" showguides="true" inkscape:snap-smooth-nodes="false" inkscape:snap-bbox-midpoints="true" inkscape:window-width="1920" inkscape:window-height="986" inkscape:window-x="-11" inkscape:window-y="-11" inkscape:window-maximized="1" inkscape:object-nodes="true" inkscape:guide-bbox="true" inkscape:snap-intersection-paths="false" fit-margin-top="0" fit-margin-left="0" fit-margin-right="0" fit-margin-bottom="0">
    <inkscape:grid type="xygrid" id="grid10" units="pt" spacingx="0.79375002" spacingy="0.79375002" originx="-25.4" originy="-25.39999"/>
  </sodipodi:namedview>
  <metadata id="metadata5">
    <rdf:RDF>
      <cc:Work rdf:about="">
        <dc:format>image/svg+xml</dc:format>
        <dc:type rdf:resource="http://purl.org/dc/dcmitype/StillImage"/>
        <dc:title/>
      </cc:Work>
    </rdf:RDF>
  </metadata>
  <g inkscape:groupmode="layer" inkscape:label="star-" transform="matrix(1.000000,0.000000,0.000000,1.000000,-57.150000,0.000000)"><g transform="translate(-25.400002,254)" style="display:inline" id="g2037" inkscape:label="1">
      <rect style="display:inline;opacity:1;fill:#ffffff;fill-opacity:1;stroke:none;stroke-width:0.1763889;stroke-linecap:butt;stroke-linejoin:miter;stroke-miterlimit:38.37685394;stroke-dasharray:none;stroke-dashoffset:0;stroke-opacity:1;paint-order:markers fill stroke" id="rect7441" width="57.150002" height="88.900002" x="82.550003" y="-254"/>
      <g id="text7465" style="font-style:normal;font-variant:normal;font-weight:normal;font-stretch:normal;font-size:11.28888988px;line-height:125%;font-family:Paddington;-inkscape-font-specification:'Paddington, Normal';font-variant-ligatures:normal;font-variant-caps:normal;font-variant-numeric:normal;font-feature-settings:normal;text-align:center;letter-spacing:0px;word-spacing:0px;writing-mode:lr-tb;text-anchor:middle;display:inline;fill:#4c0068;fill-opacity:1;stroke:none;stroke-width:0.26458335" aria-label="1">
        <path id="path8174" style="font-size:16.93333435px;fill:#4c0068;fill-opacity:1;stroke:none;stroke-width:0.26458335" d="m 89.898656,-241.3 h -1.964267 v -10.95587 h 1.964267 z" inkscape:connector-curvature="0"/>
      </g>
      <g id="text7505" style="font-style:normal;font-variant:normal;font-weight:normal;font-stretch:normal;font-size:11.28888988px;line-height:125%;font-family:Paddington;-inkscape-font-specification:'Paddington, Normal';font-variant-ligatures:normal;font-variant-caps:normal;font-variant-numeric:normal;font-feature-settings:normal;text-align:center;letter-spacing:0px;word-spacing:0px;writing-mode:lr-tb;text-anchor:middle;display:inline;fill:#4c0068;fill-opacity:1;stroke:none;stroke-width:0.26458335" aria-label="1">
        <path id="path8144" style="font-size:16.93333435px;fill:#4c0068;fill-opacity:1;stroke:none;stroke-width:0.26458335" d="m 135.14238,-182.56244 h -1.96427 v -10.95587 h 1.96427 z" inkscape:connector-curvature="0"/>
      </g>
      <g id="text7545" style="font-style:normal;font-variant:normal;font-weight:normal;font-stretch:normal;font-size:33.8666687px;line-height:125%;font-family:Paddington;-inkscape-font-specification:'Paddington, Normal';font-variant-ligatures:normal;font-variant-caps:normal;font-variant-numeric:normal;font-feature-settings:normal;text-align:center;letter-spacing:0px;word-spacing:0px;writing-mode:lr-tb;text-anchor:middle;display:inline;fill:#4c0068;fill-opacity:1;stroke:none;stroke-width:0.26458335" aria-label="1">
        <path id="path8114" style="font-size:50.80000305px;fill:#4c0068;fill-opacity:1;stroke:none;stroke-width:0.26458335" d="m 114.12101,-215.90001 h -5.8928 v -32.8676 h 5.8928 z" inkscape:connector-curvature="0"/>
      </g>
      <path style="display:inline;opacity:1;fill:#4c0068;fill-opacity:1;stroke:none;stroke-width:0.70555562;stroke-linecap:butt;stroke-linejoin:miter;stroke-miterlimit:4;stroke-dasharray:none;stroke-dashoffset:0;stroke-opacity:1;paint-order:fill markers stroke" d="m 86.473373,-233.68337 c -0.35988,-1.10763 -1.22827,-1.97602 -2.33588,-2.33589 1.10761,0.35987 2.32057,0.16776 3.26276,-0.51678 0.9422,-0.68455 1.49972,-1.77878 1.49972,-2.94338 0,1.1646 0.55756,2.25883 1.49973,2.94338 0.9422,0.68454 2.15517,0.87665 3.26278,0.51678 -1.10761,0.35987 -1.97599,1.22826 -2.33588,2.33589 -0.35989,1.10761 -0.16777,2.32056 0.51676,3.26275 -0.68453,-0.94219 -1.77877,-1.49973 -2.94339,-1.49973 -1.1646,0 -2.25883,0.55754 -2.94338,1.49973 0.68455,-0.94219 0.87667,-2.15514 0.51678,-3.26275 z" id="path7821" inkscape:connector-curvature="0" sodipodi:nodetypes="scscscscscs"/>
      <path sodipodi:nodetypes="scscscscscs" inkscape:connector-curvature="0" id="path7841" d="m 131.71709,-174.94578 c -0.35988,-1.10763 -1.22827,-1.97602 -2.33588,-2.33589 1.10761,0.35987 2.32057,0.16776 3.26276,-0.51678 0.9422,-0.68455 1.49972,-1.77878 1.49972,-2.94338 0,1.1646 0.55756,2.25883 1.49973,2.94338 0.9422,0.68454 2.15517,0.87665 3.26278,0.51678 -1.10761,0.35987 -1.97599,1.22826 -2.33588,2.33589 -0.35989,1.10761 -0.16777,2.32056 0.51676,3.26275 -0.68453,-0.94219 -1.77877,-1.49973 -2.94339,-1.49973 -1.1646,0 -2.25883,0.55754 -2.94338,1.49973 0.68455,-0.94219 0.87667,-2.15514 0.51678,-3.26275 z" style="display:inline;opacity:1;fill:#4c0068;fill-opacity:1;stroke:none;stroke-width:0.70555562;stroke-linecap:butt;stroke-linejoin:miter;stroke-miterlimit:4;stroke-dasharray:none;stroke-dashoffset:0;stroke-opacity:1;paint-order:fill markers stroke"/>
      <path sodipodi:nodetypes="scscscscscs" inkscape:connector-curvature="0" id="path7861" d="m 103.84518,-193.0501 c -1.07964,-3.32289 -3.68481,-5.92806 -7.007649,-7.00767 3.322839,1.07961 6.961719,0.50328 9.788289,-1.55034 2.8266,-2.05365 4.49916,-5.33634 4.49916,-8.83014 0,3.4938 1.67268,6.77649 4.49919,8.83014 2.8266,2.05362 6.46551,2.62995 9.78833,1.55034 -3.32282,1.07961 -5.92796,3.68478 -7.00763,7.00767 -1.07967,3.32283 -0.50331,6.96168 1.55028,9.78825 -2.05359,-2.82657 -5.33631,-4.49919 -8.83017,-4.49919 -3.4938,0 -6.77649,1.67262 -8.83014,4.49919 2.05365,-2.82657 2.63001,-6.46542 1.55034,-9.78825 z" style="display:inline;opacity:1;fill:#4c0068;fill-opacity:1;stroke:none;stroke-width:0.70555562;stroke-linecap:butt;stroke-linejoin:miter;stroke-miterlimit:4;stroke-dasharray:none;stroke-dashoffset:0;stroke-opacity:1;paint-order:fill markers stroke"/>
    </g>
    </g></svg>
