<?xml version='1.0' encoding='UTF-8'?>
<!-- Created with Inkscape (http://www.inkscape.org/) and export_objects.py -->
<svg xmlns:cc="http://creativecommons.org/ns#" xmlns:dc="http://purl.org/dc/elements/1.1/" xmlns:inkscape="http://www.inkscape.org/namespaces/inkscape" xmlns:rdf="http://www.w3.org/1999/02/22-rdf-syntax-ns#" xmlns:sodipodi="http://sodipodi.sourceforge.net/DTD/sodipodi-0.dtd" xmlns:xlink="http://www.w3.org/1999/xlink" xmlns="http://www.w3.org/2000/svg" version="1.1" width="2.25in" height="3.5in" viewBox="0 0 57.15 88.9" id="svg8" sodipodi:docname="triangle-6.svg" inkscape:version="0.92.3 (2405546, 2018-03-11)"><sodipodi:namedview id="base" pagecolor="#ffffff" bordercolor="#666666" borderopacity="1.0" inkscape:pageopacity="0.0" inkscape:pageshadow="2" inkscape:zoom="0.42916667" inkscape:cx="1600.029" inkscape:cy="840" inkscape:document-units="in" inkscape:current-layer="layer10" showgrid="false" units="in" inkscape:measure-start="96,426" inkscape:measure-end="132,426" inkscape:snap-bbox="false" inkscape:snap-nodes="true" inkscape:snap-others="true" inkscape:bbox-nodes="true" inkscape:snap-bbox-edge-midpoints="true" inkscape:snap-text-baseline="true" inkscape:snap-center="true" inkscape:snap-object-midpoints="true" showguides="true" inkscape:snap-smooth-nodes="false" inkscape:snap-bbox-midpoints="true" inkscape:window-width="1920" inkscape:window-height="986" inkscape:window-x="-11" inkscape:window-y="-11" inkscape:window-maximized="1" inkscape:object-nodes="true" inkscape:guide-bbox="true" inkscape:snap-intersection-paths="false" fit-margin-top="0" fit-margin-left="0" fit-margin-right="0" fit-margin-bottom="0">
    <inkscape:grid type="xygrid" id="grid10" units="pt" spacingx="0.79375002" spacingy="0.79375002" originx="-25.4" originy="-25.39999"/>
  </sodipodi:namedview>
  <metadata id="metadata5">
    <rdf:RDF>
      <cc:Work rdf:about="">
        <dc:format>image/svg+xml</dc:format>
        <dc:type rdf:resource="http://purl.org/dc/dcmitype/StillImage"/>
        <dc:title/>
      </cc:Work>
    </rdf:RDF>
  </metadata>
  <g inkscape:groupmode="layer" inkscape:label="triangle-" transform="matrix(1.000000,0.000000,0.000000,1.000000,-342.900000,-177.799995)"><g transform="translate(-25.400002,254)" style="display:inline" id="g1387" inkscape:label="6">
      <rect style="display:inline;opacity:1;fill:#ffffff;fill-opacity:1;stroke:none;stroke-width:0.1763889;stroke-linecap:butt;stroke-linejoin:miter;stroke-miterlimit:38.37685394;stroke-dasharray:none;stroke-dashoffset:0;stroke-opacity:1;paint-order:markers fill stroke" id="rect6451" width="57.150002" height="88.900002" x="368.30002" y="-76.200005"/>
      <g id="text6485" style="font-style:normal;font-variant:normal;font-weight:normal;font-stretch:normal;font-size:11.28888988px;line-height:125%;font-family:Paddington;-inkscape-font-specification:'Paddington, Normal';font-variant-ligatures:normal;font-variant-caps:normal;font-variant-numeric:normal;font-feature-settings:normal;text-align:center;letter-spacing:0px;word-spacing:0px;writing-mode:lr-tb;text-anchor:middle;display:inline;fill:#2c6f00;fill-opacity:1;stroke:none;stroke-width:0.26458335" aria-label="6">
        <path id="path8339" style="font-size:16.93333435px;fill:#2c6f00;fill-opacity:1;stroke:none;stroke-width:0.26458335" d="m 378.46201,-66.903615 q 0,1.524 -1.10067,2.556933 -1.08373,1.016 -2.6924,1.016 -1.8288,0 -2.87866,-1.303867 -0.9652,-1.185333 -0.9652,-2.929467 0,-1.862666 1.03293,-3.826933 1.04987,-1.964267 2.62467,-3.064934 h 2.794 q -2.6416,1.3208 -3.99627,4.470401 0.74507,-0.338667 1.69333,-0.338667 1.49014,0 2.4892,1.016 0.99907,0.999067 0.99907,2.404534 z m -1.99813,0.118533 q 0,-0.694267 -0.49107,-1.2192 -0.49107,-0.541867 -1.13453,-0.541867 -1.27,0 -1.84574,0.728133 -0.16933,0.220134 -0.16933,0.863601 0,0.8128 0.6096,1.354666 0.6096,0.524934 1.40547,0.524934 0.6604,0 1.13453,-0.491067 0.49107,-0.508 0.49107,-1.2192 z" inkscape:connector-curvature="0"/>
      </g>
      <g id="text6525" style="font-style:normal;font-variant:normal;font-weight:normal;font-stretch:normal;font-size:11.28888988px;line-height:125%;font-family:Paddington;-inkscape-font-specification:'Paddington, Normal';font-variant-ligatures:normal;font-variant-caps:normal;font-variant-numeric:normal;font-feature-settings:normal;text-align:center;letter-spacing:0px;word-spacing:0px;writing-mode:lr-tb;text-anchor:middle;display:inline;fill:#2c6f00;fill-opacity:1;stroke:none;stroke-width:0.26458335" aria-label="6">
        <path id="path8309" style="font-size:16.93333435px;fill:#2c6f00;fill-opacity:1;stroke:none;stroke-width:0.26458335" d="m 423.70569,-8.1660561 q 0,1.524 -1.10066,2.5569334 -1.08374,1.0160001 -2.69241,1.0160001 -1.8288,0 -2.87866,-1.3038667 -0.9652,-1.1853334 -0.9652,-2.9294669 0,-1.8626668 1.03293,-3.8269338 1.04987,-1.964267 2.62467,-3.064933 h 2.794 q -2.6416,1.3208 -3.99627,4.4704 0.74507,-0.338667 1.69334,-0.338667 1.49013,0 2.4892,1.016 0.99906,0.9990671 0.99906,2.4045339 z m -1.99813,0.1185333 q 0,-0.6942667 -0.49107,-1.2192001 -0.49106,-0.5418667 -1.13453,-0.5418667 -1.27,0 -1.84574,0.7281334 -0.16933,0.2201333 -0.16933,0.8636001 0,0.8128 0.6096,1.3546667 0.6096,0.5249334 1.40547,0.5249334 0.6604,0 1.13453,-0.4910667 0.49107,-0.5080001 0.49107,-1.2192001 z" inkscape:connector-curvature="0"/>
      </g>
      <g id="text6565" style="font-style:normal;font-variant:normal;font-weight:normal;font-stretch:normal;font-size:33.8666687px;line-height:125%;font-family:Paddington;-inkscape-font-specification:'Paddington, Normal';font-variant-ligatures:normal;font-variant-caps:normal;font-variant-numeric:normal;font-feature-settings:normal;text-align:center;letter-spacing:0px;word-spacing:0px;writing-mode:lr-tb;text-anchor:middle;display:inline;fill:#2c6f00;fill-opacity:1;stroke:none;stroke-width:0.26458335" aria-label="6">
        <path id="path8279" style="font-size:50.80000305px;fill:#2c6f00;fill-opacity:1;stroke:none;stroke-width:0.26458335" d="m 408.31095,-48.310822 q 0,4.572 -3.302,7.6708 -3.2512,3.048001 -8.0772,3.048001 -5.4864,0 -8.636,-3.911601 -2.8956,-3.556 -2.8956,-8.7884 0,-5.588 3.0988,-11.480801 3.1496,-5.8928 7.874,-9.1948 h 8.382 q -7.9248,3.9624 -11.9888,13.4112 2.2352,-1.016 5.08,-1.016 4.4704,0 7.4676,3.048001 2.9972,2.9972 2.9972,7.2136 z m -5.9944,0.3556 q 0,-2.0828 -1.4732,-3.6576 -1.4732,-1.6256 -3.4036,-1.6256 -3.81,0 -5.5372,2.1844 -0.508,0.6604 -0.508,2.5908 0,2.4384 1.8288,4.064 1.8288,1.5748 4.2164,1.5748 1.9812,0 3.4036,-1.4732 1.4732,-1.524 1.4732,-3.6576 z" inkscape:connector-curvature="0"/>
      </g>
      <path style="display:inline;opacity:1;fill:#2c6f00;fill-opacity:1;stroke:none;stroke-width:0.35277781;stroke-linecap:butt;stroke-linejoin:miter;stroke-miterlimit:4;stroke-dasharray:none;stroke-dashoffset:0;stroke-opacity:1;paint-order:fill markers stroke" d="m 374.65002,-52.387549 c -1.64448,0 -3.28898,-0.42538 -4.7625,-1.27612 0,-1.70147 0.45388,-3.33834 1.27612,-4.7625 0.82224,-1.42416 2.01288,-2.63567 3.48638,-3.48638 1.47352,0.85071 2.66416,2.06222 3.4864,3.48638 0.82224,1.42416 1.2761,3.06103 1.2761,4.7625 -1.4735,0.85074 -3.11802,1.27612 -4.7625,1.27612 z" id="path6711" inkscape:connector-curvature="0" sodipodi:nodetypes="scscscs"/>
      <path sodipodi:nodetypes="scscscs" inkscape:connector-curvature="0" id="path6731" d="m 419.89373,6.3500408 c -1.64448,0 -3.28898,-0.42538 -4.7625,-1.27612 0,-1.70147 0.45388,-3.33834 1.27612,-4.76250002 0.82224,-1.42415998 2.01288,-2.63566998 3.48638,-3.48637998 1.47352,0.85071 2.66416,2.06222 3.4864,3.48637998 0.82224,1.42416002 1.2761,3.06103002 1.2761,4.76250002 -1.4735,0.85074 -3.11802,1.27612 -4.7625,1.27612 z" style="display:inline;opacity:1;fill:#2c6f00;fill-opacity:1;stroke:none;stroke-width:0.35277781;stroke-linecap:butt;stroke-linejoin:miter;stroke-miterlimit:4;stroke-dasharray:none;stroke-dashoffset:0;stroke-opacity:1;paint-order:fill markers stroke"/>
      <path sodipodi:nodetypes="scscscs" inkscape:connector-curvature="0" id="path6751" d="m 396.87501,-4.7626292 c -4.93344,0 -9.86694,-1.27614 -14.2875,-3.82836 0,-5.1044098 1.36164,-10.0150198 3.82836,-14.2874998 2.46672,-4.27248 6.03864,-7.90701 10.45914,-10.45914 4.42056,2.55213 7.99248,6.18666 10.4592,10.45914 2.46672,4.27248 3.8283,9.18309 3.8283,14.2874998 -4.4205,2.55222 -9.35406,3.82836 -14.2875,3.82836 z" style="display:inline;opacity:1;fill:#2c6f00;fill-opacity:1;stroke:none;stroke-width:0.35277781;stroke-linecap:butt;stroke-linejoin:miter;stroke-miterlimit:4;stroke-dasharray:none;stroke-dashoffset:0;stroke-opacity:1;paint-order:fill markers stroke"/>
      <circle style="opacity:1;fill:#808080;fill-opacity:1;stroke:none;stroke-width:0.1763889;stroke-linecap:butt;stroke-linejoin:miter;stroke-miterlimit:38.37685394;stroke-dasharray:none;stroke-dashoffset:0;stroke-opacity:1;paint-order:markers fill stroke" id="circle6889" cx="372.26877" cy="-49.212555" r="1.5875001"/>
      <circle style="opacity:1;fill:#808080;fill-opacity:1;stroke:none;stroke-width:0.1763889;stroke-linecap:butt;stroke-linejoin:miter;stroke-miterlimit:38.37685394;stroke-dasharray:none;stroke-dashoffset:0;stroke-opacity:1;paint-order:markers fill stroke" id="circle6891" cx="377.03128" cy="-49.212555" r="1.5875001"/>
      <circle r="1.5875001" cy="9.5250044" cx="417.51245" id="circle6909" style="opacity:1;fill:#808080;fill-opacity:1;stroke:none;stroke-width:0.1763889;stroke-linecap:butt;stroke-linejoin:miter;stroke-miterlimit:38.37685394;stroke-dasharray:none;stroke-dashoffset:0;stroke-opacity:1;paint-order:markers fill stroke"/>
      <circle r="1.5875001" cy="9.5250044" cx="422.27496" id="circle6911" style="opacity:1;fill:#808080;fill-opacity:1;stroke:none;stroke-width:0.1763889;stroke-linecap:butt;stroke-linejoin:miter;stroke-miterlimit:38.37685394;stroke-dasharray:none;stroke-dashoffset:0;stroke-opacity:1;paint-order:markers fill stroke"/>
      <circle r="4.7625003" cy="4.7623549" cx="389.73123" id="circle6929" style="opacity:1;fill:#808080;fill-opacity:1;stroke:none;stroke-width:0.1763889;stroke-linecap:butt;stroke-linejoin:miter;stroke-miterlimit:38.37685394;stroke-dasharray:none;stroke-dashoffset:0;stroke-opacity:1;paint-order:markers fill stroke"/>
      <circle r="4.7625003" cy="4.7623549" cx="404.01877" id="circle6931" style="opacity:1;fill:#808080;fill-opacity:1;stroke:none;stroke-width:0.1763889;stroke-linecap:butt;stroke-linejoin:miter;stroke-miterlimit:38.37685394;stroke-dasharray:none;stroke-dashoffset:0;stroke-opacity:1;paint-order:markers fill stroke"/>
    </g>
    </g></svg>
