<?xml version='1.0' encoding='UTF-8'?>
<!-- Created with Inkscape (http://www.inkscape.org/) and export_objects.py -->
<svg xmlns:cc="http://creativecommons.org/ns#" xmlns:dc="http://purl.org/dc/elements/1.1/" xmlns:inkscape="http://www.inkscape.org/namespaces/inkscape" xmlns:rdf="http://www.w3.org/1999/02/22-rdf-syntax-ns#" xmlns:sodipodi="http://sodipodi.sourceforge.net/DTD/sodipodi-0.dtd" xmlns:xlink="http://www.w3.org/1999/xlink" xmlns="http://www.w3.org/2000/svg" version="1.1" width="2.25in" height="3.5in" viewBox="0 0 57.15 88.9" id="svg8" sodipodi:docname="triangle-5.svg" inkscape:version="0.92.3 (2405546, 2018-03-11)"><sodipodi:namedview id="base" pagecolor="#ffffff" bordercolor="#666666" borderopacity="1.0" inkscape:pageopacity="0.0" inkscape:pageshadow="2" inkscape:zoom="0.42916667" inkscape:cx="1600.029" inkscape:cy="840" inkscape:document-units="in" inkscape:current-layer="layer10" showgrid="false" units="in" inkscape:measure-start="96,426" inkscape:measure-end="132,426" inkscape:snap-bbox="false" inkscape:snap-nodes="true" inkscape:snap-others="true" inkscape:bbox-nodes="true" inkscape:snap-bbox-edge-midpoints="true" inkscape:snap-text-baseline="true" inkscape:snap-center="true" inkscape:snap-object-midpoints="true" showguides="true" inkscape:snap-smooth-nodes="false" inkscape:snap-bbox-midpoints="true" inkscape:window-width="1920" inkscape:window-height="986" inkscape:window-x="-11" inkscape:window-y="-11" inkscape:window-maximized="1" inkscape:object-nodes="true" inkscape:guide-bbox="true" inkscape:snap-intersection-paths="false" fit-margin-top="0" fit-margin-left="0" fit-margin-right="0" fit-margin-bottom="0">
    <inkscape:grid type="xygrid" id="grid10" units="pt" spacingx="0.79375002" spacingy="0.79375002" originx="-25.4" originy="-25.39999"/>
  </sodipodi:namedview>
  <metadata id="metadata5">
    <rdf:RDF>
      <cc:Work rdf:about="">
        <dc:format>image/svg+xml</dc:format>
        <dc:type rdf:resource="http://purl.org/dc/dcmitype/StillImage"/>
        <dc:title/>
      </cc:Work>
    </rdf:RDF>
  </metadata>
  <g inkscape:groupmode="layer" inkscape:label="triangle-" transform="matrix(1.000000,0.000000,0.000000,1.000000,-285.750026,-177.799995)"><g transform="translate(-25.400002,254)" style="display:inline" id="g1345" inkscape:label="5">
      <rect style="display:inline;opacity:1;fill:#ffffff;fill-opacity:1;stroke:none;stroke-width:0.1763889;stroke-linecap:butt;stroke-linejoin:miter;stroke-miterlimit:38.37685394;stroke-dasharray:none;stroke-dashoffset:0;stroke-opacity:1;paint-order:markers fill stroke" id="rect6449" width="57.150002" height="88.900002" x="311.15002" y="-76.200005"/>
      <g id="text6481" style="font-style:normal;font-variant:normal;font-weight:normal;font-stretch:normal;font-size:11.28888988px;line-height:125%;font-family:Paddington;-inkscape-font-specification:'Paddington, Normal';font-variant-ligatures:normal;font-variant-caps:normal;font-variant-numeric:normal;font-feature-settings:normal;text-align:center;letter-spacing:0px;word-spacing:0px;writing-mode:lr-tb;text-anchor:middle;display:inline;fill:#2c6f00;fill-opacity:1;stroke:none;stroke-width:0.26458335" aria-label="5">
        <path id="path8342" style="font-size:16.93333435px;fill:#2c6f00;fill-opacity:1;stroke:none;stroke-width:0.26458335" d="m 320.91855,-74.438949 -0.82973,1.6764 h -2.98027 l -0.23707,1.998133 q 1.74414,0.08467 2.86174,1.049867 1.1684,1.032933 1.1684,2.6924 0,1.591734 -1.13454,2.6416 -1.13453,1.032934 -2.82786,1.032934 -1.6764,0 -2.92947,-1.659467 l 1.15147,-1.4732 h 0.1016 q 0.77893,1.337733 1.86266,1.337733 0.67734,0 1.18534,-0.541866 0.52493,-0.5588 0.52493,-1.303867 0,-0.880534 -0.74507,-1.4732 -0.67733,-0.541867 -1.5748,-0.541867 -0.57573,0 -1.89653,0.389467 l 0.72813,-5.825067 z" inkscape:connector-curvature="0"/>
      </g>
      <g id="text6521" style="font-style:normal;font-variant:normal;font-weight:normal;font-stretch:normal;font-size:11.28888988px;line-height:125%;font-family:Paddington;-inkscape-font-specification:'Paddington, Normal';font-variant-ligatures:normal;font-variant-caps:normal;font-variant-numeric:normal;font-feature-settings:normal;text-align:center;letter-spacing:0px;word-spacing:0px;writing-mode:lr-tb;text-anchor:middle;display:inline;fill:#2c6f00;fill-opacity:1;stroke:none;stroke-width:0.26458335" aria-label="5">
        <path id="path8312" style="font-size:16.93333435px;fill:#2c6f00;fill-opacity:1;stroke:none;stroke-width:0.26458335" d="m 366.16223,-15.70139 -0.82973,1.6764 h -2.98027 l -0.23706,1.998134 q 1.74413,0.08467 2.86173,1.049866 1.1684,1.0329337 1.1684,2.6924005 0,1.5917334 -1.13453,2.6416002 -1.13454,1.0329334 -2.82787,1.0329334 -1.6764,0 -2.92947,-1.6594668 l 1.15147,-1.4732001 h 0.1016 q 0.77893,1.3377334 1.86267,1.3377334 0.67733,0 1.18533,-0.5418667 0.52493,-0.5588 0.52493,-1.3038667 0,-0.8805334 -0.74506,-1.4732001 -0.67734,-0.5418671 -1.5748,-0.5418671 -0.57574,0 -1.89654,0.3894671 l 0.72814,-5.8250671 z" inkscape:connector-curvature="0"/>
      </g>
      <g id="text6561" style="font-style:normal;font-variant:normal;font-weight:normal;font-stretch:normal;font-size:33.8666687px;line-height:125%;font-family:Paddington;-inkscape-font-specification:'Paddington, Normal';font-variant-ligatures:normal;font-variant-caps:normal;font-variant-numeric:normal;font-feature-settings:normal;text-align:center;letter-spacing:0px;word-spacing:0px;writing-mode:lr-tb;text-anchor:middle;display:inline;fill:#2c6f00;fill-opacity:1;stroke:none;stroke-width:0.26458335" aria-label="5">
        <path id="path8282" style="font-size:50.80000305px;fill:#2c6f00;fill-opacity:1;stroke:none;stroke-width:0.26458335" d="m 349.98065,-70.916823 -2.4892,5.0292 h -8.9408 l -0.7112,5.9944 q 5.2324,0.254 8.5852,3.149601 3.5052,3.0988 3.5052,8.0772 0,4.7752 -3.4036,7.9248 -3.4036,3.098801 -8.4836,3.098801 -5.0292,0 -8.7884,-4.978401 l 3.4544,-4.4196 h 0.3048 q 2.3368,4.0132 5.588,4.0132 2.032,0 3.556,-1.6256 1.5748,-1.6764 1.5748,-3.9116 0,-2.6416 -2.2352,-4.4196 -2.032,-1.6256 -4.7244,-1.6256 -1.7272,0 -5.6896,1.1684 l 2.1844,-17.475201 z" inkscape:connector-curvature="0"/>
      </g>
      <path style="display:inline;opacity:1;fill:#2c6f00;fill-opacity:1;stroke:none;stroke-width:0.35277781;stroke-linecap:butt;stroke-linejoin:miter;stroke-miterlimit:4;stroke-dasharray:none;stroke-dashoffset:0;stroke-opacity:1;paint-order:fill markers stroke" d="m 317.5,-52.387549 c -1.64447,0 -3.28898,-0.42538 -4.76249,-1.27612 0,-1.70147 0.45387,-3.33834 1.27611,-4.7625 0.82224,-1.42416 2.01288,-2.63567 3.48638,-3.48638 1.47352,0.85071 2.66416,2.06222 3.4864,3.48638 0.82224,1.42416 1.2761,3.06103 1.2761,4.7625 -1.4735,0.85074 -3.11802,1.27612 -4.7625,1.27612 z" id="path6709" inkscape:connector-curvature="0" sodipodi:nodetypes="scscscs"/>
      <path sodipodi:nodetypes="scscscs" inkscape:connector-curvature="0" id="path6729" d="m 362.74371,6.3500408 c -1.64447,0 -3.28898,-0.42538 -4.76249,-1.27612 0,-1.70147 0.45387,-3.33834 1.27611,-4.76250002 0.82224,-1.42415998 2.01288,-2.63566998 3.48638,-3.48637998 1.47352,0.85071 2.66416,2.06222 3.4864,3.48637998 0.82224,1.42416002 1.2761,3.06103002 1.2761,4.76250002 -1.4735,0.85074 -3.11802,1.27612 -4.7625,1.27612 z" style="display:inline;opacity:1;fill:#2c6f00;fill-opacity:1;stroke:none;stroke-width:0.35277781;stroke-linecap:butt;stroke-linejoin:miter;stroke-miterlimit:4;stroke-dasharray:none;stroke-dashoffset:0;stroke-opacity:1;paint-order:fill markers stroke"/>
      <path sodipodi:nodetypes="scscscs" inkscape:connector-curvature="0" id="path6749" d="m 339.72505,-4.7626492 c -4.93341,0 -9.86694,-1.27614 -14.28747,-3.82836 0,-5.1044098 1.36161,-10.0150198 3.82833,-14.2874998 2.46672,-4.27248 6.03864,-7.90701 10.45914,-10.45914 4.42056,2.55213 7.99248,6.18666 10.4592,10.45914 2.46672,4.27248 3.8283,9.18309 3.8283,14.2874998 -4.4205,2.55222 -9.35406,3.82836 -14.2875,3.82836 z" style="display:inline;opacity:1;fill:#2c6f00;fill-opacity:1;stroke:none;stroke-width:0.35277781;stroke-linecap:butt;stroke-linejoin:miter;stroke-miterlimit:4;stroke-dasharray:none;stroke-dashoffset:0;stroke-opacity:1;paint-order:fill markers stroke"/>
      <circle r="1.5875001" cy="-49.212555" cx="317.5" id="circle6887" style="opacity:1;fill:#808080;fill-opacity:1;stroke:none;stroke-width:0.1763889;stroke-linecap:butt;stroke-linejoin:miter;stroke-miterlimit:38.37685394;stroke-dasharray:none;stroke-dashoffset:0;stroke-opacity:1;paint-order:markers fill stroke"/>
      <circle style="opacity:1;fill:#808080;fill-opacity:1;stroke:none;stroke-width:0.1763889;stroke-linecap:butt;stroke-linejoin:miter;stroke-miterlimit:38.37685394;stroke-dasharray:none;stroke-dashoffset:0;stroke-opacity:1;paint-order:markers fill stroke" id="circle6907" cx="362.74368" cy="9.5250044" r="1.5875001"/>
      <circle style="opacity:1;fill:#808080;fill-opacity:1;stroke:none;stroke-width:0.1763889;stroke-linecap:butt;stroke-linejoin:miter;stroke-miterlimit:38.37685394;stroke-dasharray:none;stroke-dashoffset:0;stroke-opacity:1;paint-order:markers fill stroke" id="circle6927" cx="339.72501" cy="4.7623549" r="4.7625003"/>
    </g>
    </g></svg>
