<?xml version='1.0' encoding='UTF-8'?>
<!-- Created with Inkscape (http://www.inkscape.org/) and export_objects.py -->
<svg xmlns:cc="http://creativecommons.org/ns#" xmlns:dc="http://purl.org/dc/elements/1.1/" xmlns:inkscape="http://www.inkscape.org/namespaces/inkscape" xmlns:rdf="http://www.w3.org/1999/02/22-rdf-syntax-ns#" xmlns:sodipodi="http://sodipodi.sourceforge.net/DTD/sodipodi-0.dtd" xmlns:xlink="http://www.w3.org/1999/xlink" xmlns="http://www.w3.org/2000/svg" version="1.1" width="2.25in" height="3.5in" viewBox="0 0 57.15 88.9" id="svg8" sodipodi:docname="triangle-2.svg" inkscape:version="0.92.3 (2405546, 2018-03-11)"><sodipodi:namedview id="base" pagecolor="#ffffff" bordercolor="#666666" borderopacity="1.0" inkscape:pageopacity="0.0" inkscape:pageshadow="2" inkscape:zoom="0.42916667" inkscape:cx="1600.029" inkscape:cy="840" inkscape:document-units="in" inkscape:current-layer="layer10" showgrid="false" units="in" inkscape:measure-start="96,426" inkscape:measure-end="132,426" inkscape:snap-bbox="false" inkscape:snap-nodes="true" inkscape:snap-others="true" inkscape:bbox-nodes="true" inkscape:snap-bbox-edge-midpoints="true" inkscape:snap-text-baseline="true" inkscape:snap-center="true" inkscape:snap-object-midpoints="true" showguides="true" inkscape:snap-smooth-nodes="false" inkscape:snap-bbox-midpoints="true" inkscape:window-width="1920" inkscape:window-height="986" inkscape:window-x="-11" inkscape:window-y="-11" inkscape:window-maximized="1" inkscape:object-nodes="true" inkscape:guide-bbox="true" inkscape:snap-intersection-paths="false" fit-margin-top="0" fit-margin-left="0" fit-margin-right="0" fit-margin-bottom="0">
    <inkscape:grid type="xygrid" id="grid10" units="pt" spacingx="0.79375002" spacingy="0.79375002" originx="-25.4" originy="-25.39999"/>
  </sodipodi:namedview>
  <metadata id="metadata5">
    <rdf:RDF>
      <cc:Work rdf:about="">
        <dc:format>image/svg+xml</dc:format>
        <dc:type rdf:resource="http://purl.org/dc/dcmitype/StillImage"/>
        <dc:title/>
      </cc:Work>
    </rdf:RDF>
  </metadata>
  <g inkscape:groupmode="layer" inkscape:label="triangle-" transform="matrix(1.000000,0.000000,0.000000,1.000000,-114.299995,-177.799995)"><g transform="translate(-25.400002,254)" style="display:inline" id="g1228" inkscape:label="2">
      <rect style="display:inline;opacity:1;fill:#ffffff;fill-opacity:1;stroke:none;stroke-width:0.1763889;stroke-linecap:butt;stroke-linejoin:miter;stroke-miterlimit:38.37685394;stroke-dasharray:none;stroke-dashoffset:0;stroke-opacity:1;paint-order:markers fill stroke" id="rect6443" width="57.150002" height="88.900002" x="139.7" y="-76.200005"/>
      <g id="text6469" style="font-style:normal;font-variant:normal;font-weight:normal;font-stretch:normal;font-size:11.28888988px;line-height:125%;font-family:Paddington;-inkscape-font-specification:'Paddington, Normal';font-variant-ligatures:normal;font-variant-caps:normal;font-variant-numeric:normal;font-feature-settings:normal;text-align:center;letter-spacing:0px;word-spacing:0px;writing-mode:lr-tb;text-anchor:middle;display:inline;fill:#2c6f00;fill-opacity:1;stroke:none;stroke-width:0.26458335" aria-label="2">
        <path id="path8351" style="font-size:16.93333435px;fill:#2c6f00;fill-opacity:1;stroke:none;stroke-width:0.26458335" d="m 149.66117,-63.500015 h -7.19667 l 4.03014,-6.197601 q 0.23706,-0.372533 0.4572,-0.982133 0.22013,-0.626533 0.22013,-1.016 0,-0.508 -0.42333,-0.829733 -0.4064,-0.321734 -0.93134,-0.321734 -1.59173,0 -3.06493,1.998134 h -0.0847 v -2.658534 q 1.59174,-1.185333 3.1496,-1.185333 1.59174,0 2.50614,0.829733 0.93133,0.829734 0.93133,2.3368 0,1.286934 -1.30387,3.318934 -1.04986,1.540933 -2.09973,3.064933 h 3.81 z" inkscape:connector-curvature="0"/>
      </g>
      <g id="text6509" style="font-style:normal;font-variant:normal;font-weight:normal;font-stretch:normal;font-size:11.28888988px;line-height:125%;font-family:Paddington;-inkscape-font-specification:'Paddington, Normal';font-variant-ligatures:normal;font-variant-caps:normal;font-variant-numeric:normal;font-feature-settings:normal;text-align:center;letter-spacing:0px;word-spacing:0px;writing-mode:lr-tb;text-anchor:middle;display:inline;fill:#2c6f00;fill-opacity:1;stroke:none;stroke-width:0.26458335" aria-label="2">
        <path id="path8321" style="font-size:16.93333435px;fill:#2c6f00;fill-opacity:1;stroke:none;stroke-width:0.26458335" d="m 194.9049,-4.7624559 h -7.19667 l 4.03013,-6.1976001 q 0.23707,-0.372534 0.4572,-0.982134 0.22014,-0.626533 0.22014,-1.016 0,-0.508 -0.42334,-0.829733 -0.4064,-0.321734 -0.93133,-0.321734 -1.59173,0 -3.06493,1.998134 h -0.0847 v -2.658534 q 1.59173,-1.185333 3.1496,-1.185333 1.59173,0 2.50613,0.829733 0.93134,0.829734 0.93134,2.336801 0,1.286933 -1.30387,3.3189331 -1.04987,1.5409334 -2.09973,3.0649335 h 3.81 z" inkscape:connector-curvature="0"/>
      </g>
      <g id="text6549" style="font-style:normal;font-variant:normal;font-weight:normal;font-stretch:normal;font-size:33.8666687px;line-height:125%;font-family:Paddington;-inkscape-font-specification:'Paddington, Normal';font-variant-ligatures:normal;font-variant-caps:normal;font-variant-numeric:normal;font-feature-settings:normal;text-align:center;letter-spacing:0px;word-spacing:0px;writing-mode:lr-tb;text-anchor:middle;display:inline;fill:#2c6f00;fill-opacity:1;stroke:none;stroke-width:0.26458335" aria-label="2">
        <path id="path8291" style="font-size:50.80000305px;fill:#2c6f00;fill-opacity:1;stroke:none;stroke-width:0.26458335" d="m 179.10851,-38.100021 h -21.59 l 12.0904,-18.592801 q 0.7112,-1.117601 1.3716,-2.946401 0.6604,-1.8796 0.6604,-3.048 0,-1.524 -1.27,-2.4892 -1.2192,-0.9652 -2.794,-0.9652 -4.7752,0 -9.1948,5.9944 h -0.254 v -7.9756 q 4.7752,-3.556 9.4488,-3.556 4.7752,0 7.5184,2.4892 2.794,2.4892 2.794,7.0104 0,3.8608 -3.9116,9.956801 -3.1496,4.6228 -6.2992,9.1948 h 11.43 z" inkscape:connector-curvature="0"/>
      </g>
      <path style="display:inline;opacity:1;fill:#2c6f00;fill-opacity:1;stroke:none;stroke-width:0.35277781;stroke-linecap:butt;stroke-linejoin:miter;stroke-miterlimit:4;stroke-dasharray:none;stroke-dashoffset:0;stroke-opacity:1;paint-order:fill markers stroke" d="m 146.05,-52.387529 c -1.64448,0 -3.28898,-0.42538 -4.7625,-1.27612 0,-1.70147 0.45388,-3.33834 1.27612,-4.7625 0.82224,-1.42416 2.01288,-2.63567 3.48638,-3.48638 1.47352,0.85071 2.66416,2.06222 3.4864,3.48638 0.82224,1.42416 1.2761,3.06103 1.2761,4.7625 -1.4735,0.85074 -3.11802,1.27612 -4.7625,1.27612 z" id="path6703" inkscape:connector-curvature="0" sodipodi:nodetypes="scscscs"/>
      <path sodipodi:nodetypes="scscscs" inkscape:connector-curvature="0" id="path6723" d="m 191.29371,6.3500608 c -1.64448,0 -3.28898,-0.42538 -4.7625,-1.27612 0,-1.70147 0.45388,-3.33834 1.27612,-4.76250002 0.82224,-1.42415998 2.01288,-2.63566998 3.48638,-3.48637998 1.47352,0.85071 2.66416,2.06222 3.4864,3.48637998 0.82224,1.42416002 1.2761,3.06103002 1.2761,4.76250002 -1.4735,0.85074 -3.11802,1.27612 -4.7625,1.27612 z" style="display:inline;opacity:1;fill:#2c6f00;fill-opacity:1;stroke:none;stroke-width:0.35277781;stroke-linecap:butt;stroke-linejoin:miter;stroke-miterlimit:4;stroke-dasharray:none;stroke-dashoffset:0;stroke-opacity:1;paint-order:fill markers stroke"/>
      <path sodipodi:nodetypes="scscscs" inkscape:connector-curvature="0" id="path6743" d="m 168.275,-4.7625592 c -4.93344,0 -9.86694,-1.27614 -14.2875,-3.82836 0,-5.1044098 1.36164,-10.0150198 3.82836,-14.2874998 2.46672,-4.27248 6.03864,-7.90701 10.45914,-10.45914 4.42056,2.55213 7.99248,6.18666 10.4592,10.45914 2.46672,4.27248 3.8283,9.18309 3.8283,14.2874998 -4.4205,2.55222 -9.35406,3.82836 -14.2875,3.82836 z" style="display:inline;opacity:1;fill:#2c6f00;fill-opacity:1;stroke:none;stroke-width:0.35277781;stroke-linecap:butt;stroke-linejoin:miter;stroke-miterlimit:4;stroke-dasharray:none;stroke-dashoffset:0;stroke-opacity:1;paint-order:fill markers stroke"/>
      <circle r="1.5875001" cy="-49.212524" cx="146.05" id="circle6881" style="opacity:1;fill:#808080;fill-opacity:1;stroke:none;stroke-width:0.1763889;stroke-linecap:butt;stroke-linejoin:miter;stroke-miterlimit:38.37685394;stroke-dasharray:none;stroke-dashoffset:0;stroke-opacity:1;paint-order:markers fill stroke"/>
      <circle style="opacity:1;fill:#808080;fill-opacity:1;stroke:none;stroke-width:0.1763889;stroke-linecap:butt;stroke-linejoin:miter;stroke-miterlimit:38.37685394;stroke-dasharray:none;stroke-dashoffset:0;stroke-opacity:1;paint-order:markers fill stroke" id="circle6901" cx="191.29373" cy="9.5250349" r="1.5875001"/>
      <circle style="opacity:1;fill:#808080;fill-opacity:1;stroke:none;stroke-width:0.1763889;stroke-linecap:butt;stroke-linejoin:miter;stroke-miterlimit:38.37685394;stroke-dasharray:none;stroke-dashoffset:0;stroke-opacity:1;paint-order:markers fill stroke" id="circle6921" cx="168.27501" cy="4.7624464" r="4.7625003"/>
    </g>
    </g></svg>
