<?xml version='1.0' encoding='UTF-8'?>
<!-- Created with Inkscape (http://www.inkscape.org/) and export_objects.py -->
<svg xmlns:cc="http://creativecommons.org/ns#" xmlns:dc="http://purl.org/dc/elements/1.1/" xmlns:inkscape="http://www.inkscape.org/namespaces/inkscape" xmlns:rdf="http://www.w3.org/1999/02/22-rdf-syntax-ns#" xmlns:sodipodi="http://sodipodi.sourceforge.net/DTD/sodipodi-0.dtd" xmlns:xlink="http://www.w3.org/1999/xlink" xmlns="http://www.w3.org/2000/svg" version="1.1" width="2.25in" height="3.5in" viewBox="0 0 57.15 88.9" id="svg8" sodipodi:docname="triangle-0.svg" inkscape:version="0.92.3 (2405546, 2018-03-11)"><sodipodi:namedview id="base" pagecolor="#ffffff" bordercolor="#666666" borderopacity="1.0" inkscape:pageopacity="0.0" inkscape:pageshadow="2" inkscape:zoom="0.42916667" inkscape:cx="1600.029" inkscape:cy="840" inkscape:document-units="in" inkscape:current-layer="layer10" showgrid="false" units="in" inkscape:measure-start="96,426" inkscape:measure-end="132,426" inkscape:snap-bbox="false" inkscape:snap-nodes="true" inkscape:snap-others="true" inkscape:bbox-nodes="true" inkscape:snap-bbox-edge-midpoints="true" inkscape:snap-text-baseline="true" inkscape:snap-center="true" inkscape:snap-object-midpoints="true" showguides="true" inkscape:snap-smooth-nodes="false" inkscape:snap-bbox-midpoints="true" inkscape:window-width="1920" inkscape:window-height="986" inkscape:window-x="-11" inkscape:window-y="-11" inkscape:window-maximized="1" inkscape:object-nodes="true" inkscape:guide-bbox="true" inkscape:snap-intersection-paths="false" fit-margin-top="0" fit-margin-left="0" fit-margin-right="0" fit-margin-bottom="0">
    <inkscape:grid type="xygrid" id="grid10" units="pt" spacingx="0.79375002" spacingy="0.79375002" originx="-25.4" originy="-25.39999"/>
  </sodipodi:namedview>
  <metadata id="metadata5">
    <rdf:RDF>
      <cc:Work rdf:about="">
        <dc:format>image/svg+xml</dc:format>
        <dc:type rdf:resource="http://purl.org/dc/dcmitype/StillImage"/>
        <dc:title/>
      </cc:Work>
    </rdf:RDF>
  </metadata>
  <g inkscape:groupmode="layer" inkscape:label="triangle-" transform="matrix(1.000000,0.000000,0.000000,1.000000,0.000000,-177.799995)"><g transform="translate(-25.400002,254)" style="display:inline" id="g1126" inkscape:label="0">
      <rect y="-76.200005" x="25.400002" height="88.900002" width="57.150002" id="rect6439" style="display:inline;opacity:1;fill:#ffffff;fill-opacity:1;stroke:none;stroke-width:0.1763889;stroke-linecap:butt;stroke-linejoin:miter;stroke-miterlimit:38.37685394;stroke-dasharray:none;stroke-dashoffset:0;stroke-opacity:1;paint-order:markers fill stroke"/>
      <g id="text6461" style="font-style:normal;font-variant:normal;font-weight:normal;font-stretch:normal;font-size:11.28888988px;line-height:125%;font-family:Paddington;-inkscape-font-specification:'Paddington, Normal';font-variant-ligatures:normal;font-variant-caps:normal;font-variant-numeric:normal;font-feature-settings:normal;text-align:center;letter-spacing:0px;word-spacing:0px;writing-mode:lr-tb;text-anchor:middle;display:inline;fill:#2c6f00;fill-opacity:1;stroke:none;stroke-width:0.26458335" aria-label="0">
        <path id="path8357" style="font-size:16.93333435px;fill:#2c6f00;fill-opacity:1;stroke:none;stroke-width:0.26458335" d="m 35.443451,-68.986416 q 0,1.998134 -0.778933,3.556001 -1.016,2.015066 -2.9464,2.015066 -1.913467,0 -2.929467,-2.015066 -0.778934,-1.557867 -0.778934,-3.556001 0,-1.998133 0.778934,-3.556 1.016,-2.015067 2.929467,-2.015067 1.947333,0 2.9464,1.998134 0.778933,1.557867 0.778933,3.572933 z m -1.896533,0 q 0,-1.236133 -0.3556,-2.3368 -0.491067,-1.524 -1.439334,-1.524 -0.592666,0 -1.0668,0.8128 -0.389466,0.643467 -0.5588,1.507067 -0.1524,0.762 -0.1524,1.540933 0,1.27 0.338667,2.336801 0.474133,1.507066 1.439333,1.507066 0.982134,0 1.456267,-1.507066 0.338667,-1.066801 0.338667,-2.336801 z" inkscape:connector-curvature="0"/>
      </g>
      <g id="text6501" style="font-style:normal;font-variant:normal;font-weight:normal;font-stretch:normal;font-size:11.28888988px;line-height:125%;font-family:Paddington;-inkscape-font-specification:'Paddington, Normal';font-variant-ligatures:normal;font-variant-caps:normal;font-variant-numeric:normal;font-feature-settings:normal;text-align:center;letter-spacing:0px;word-spacing:0px;writing-mode:lr-tb;text-anchor:middle;display:inline;fill:#2c6f00;fill-opacity:1;stroke:none;stroke-width:0.26458335" aria-label="0">
        <path id="path8327" style="font-size:16.93333435px;fill:#2c6f00;fill-opacity:1;stroke:none;stroke-width:0.26458335" d="m 80.687172,-10.248856 q 0,1.9981332 -0.778933,3.5559999 -1.016,2.0150668 -2.9464,2.0150668 -1.913467,0 -2.929467,-2.0150668 -0.778934,-1.5578667 -0.778934,-3.5559999 0,-1.998134 0.778934,-3.556 1.016,-2.015067 2.929467,-2.015067 1.947333,0 2.9464,1.998133 0.778933,1.557867 0.778933,3.572934 z m -1.896533,0 q 0,-1.236134 -0.3556,-2.3368 -0.491067,-1.524001 -1.439334,-1.524001 -0.592666,0 -1.0668,0.812801 -0.389466,0.643466 -0.5588,1.507066 -0.1524,0.762 -0.1524,1.540934 0,1.2699998 0.338667,2.3367999 0.474133,1.5070667 1.439333,1.5070667 0.982134,0 1.456267,-1.5070667 0.338667,-1.0668001 0.338667,-2.3367999 z" inkscape:connector-curvature="0"/>
      </g>
      <g id="text6541" style="font-style:normal;font-variant:normal;font-weight:normal;font-stretch:normal;font-size:33.8666687px;line-height:125%;font-family:Paddington;-inkscape-font-specification:'Paddington, Normal';font-variant-ligatures:normal;font-variant-caps:normal;font-variant-numeric:normal;font-feature-settings:normal;text-align:center;letter-spacing:0px;word-spacing:0px;writing-mode:lr-tb;text-anchor:middle;display:inline;fill:#2c6f00;fill-opacity:1;stroke:none;stroke-width:0.26458335" aria-label="0">
        <path id="path8297" style="font-size:50.80000305px;fill:#2c6f00;fill-opacity:1;stroke:none;stroke-width:0.26458335" d="m 65.055356,-54.559222 q 0,5.9944 -2.3368,10.668 -3.048,6.045201 -8.839201,6.045201 -5.7404,0 -8.7884,-6.045201 -2.3368,-4.6736 -2.3368,-10.668 0,-5.994401 2.3368,-10.668001 3.048,-6.0452 8.7884,-6.0452 5.842001,0 8.839201,5.9944 2.3368,4.6736 2.3368,10.718801 z m -5.6896,0 q 0,-3.708401 -1.0668,-7.010401 -1.4732,-4.572 -4.318001,-4.572 -1.778,0 -3.2004,2.4384 -1.1684,1.9304 -1.6764,4.5212 -0.4572,2.286001 -0.4572,4.622801 0,3.81 1.016,7.0104 1.4224,4.5212 4.318,4.5212 2.946401,0 4.368801,-4.5212 1.016,-3.2004 1.016,-7.0104 z" inkscape:connector-curvature="0"/>
      </g>
      <path sodipodi:nodetypes="scscscs" inkscape:connector-curvature="0" id="path6699" d="m 31.75,-52.387519 c -1.644479,0 -3.288983,-0.42538 -4.762499,-1.27612 0,-1.70147 0.453876,-3.33834 1.276116,-4.7625 0.82224,-1.42416 2.01288,-2.63567 3.486383,-3.48638 1.473516,0.85071 2.664156,2.06222 3.486395,3.48638 0.82224,1.42416 1.276104,3.06103 1.276104,4.7625 -1.473504,0.85074 -3.118019,1.27612 -4.762499,1.27612 z" style="display:inline;opacity:1;fill:#2c6f00;fill-opacity:1;stroke:none;stroke-width:0.35277781;stroke-linecap:butt;stroke-linejoin:miter;stroke-miterlimit:4;stroke-dasharray:none;stroke-dashoffset:0;stroke-opacity:1;paint-order:fill markers stroke"/>
      <path style="display:inline;opacity:1;fill:#2c6f00;fill-opacity:1;stroke:none;stroke-width:0.35277781;stroke-linecap:butt;stroke-linejoin:miter;stroke-miterlimit:4;stroke-dasharray:none;stroke-dashoffset:0;stroke-opacity:1;paint-order:fill markers stroke" d="m 76.993721,6.3500708 c -1.644479,0 -3.288983,-0.42538 -4.762499,-1.27612 0,-1.70147 0.453876,-3.33834 1.276116,-4.76250002 0.82224,-1.42415998 2.01288,-2.63566998 3.486383,-3.48637998 1.473516,0.85071 2.664156,2.06222 3.486395,3.48637998 0.82224,1.42416002 1.276104,3.06103002 1.276104,4.76250002 -1.473504,0.85074 -3.118019,1.27612 -4.762499,1.27612 z" id="path6719" inkscape:connector-curvature="0" sodipodi:nodetypes="scscscs"/>
      <path style="display:inline;opacity:1;fill:#2c6f00;fill-opacity:1;stroke:none;stroke-width:0.35277781;stroke-linecap:butt;stroke-linejoin:miter;stroke-miterlimit:4;stroke-dasharray:none;stroke-dashoffset:0;stroke-opacity:1;paint-order:fill markers stroke" d="m 53.975004,-4.7625192 c -4.933437,0 -9.866949,-1.27614 -14.287497,-3.82836 0,-5.1044098 1.361628,-10.0150198 3.828348,-14.2874998 2.46672,-4.27248 6.03864,-7.90701 10.459149,-10.45914 4.420548,2.55213 7.992468,6.18666 10.459185,10.45914 2.46672,4.27248 3.828312,9.18309 3.828312,14.2874998 -4.420512,2.55222 -9.354057,3.82836 -14.287497,3.82836 z" id="path6739" inkscape:connector-curvature="0" sodipodi:nodetypes="scscscs"/>
      <circle style="opacity:1;fill:#808080;fill-opacity:1;stroke:none;stroke-width:0.1763889;stroke-linecap:butt;stroke-linejoin:miter;stroke-miterlimit:38.37685394;stroke-dasharray:none;stroke-dashoffset:0;stroke-opacity:1;paint-order:markers fill stroke" id="circle6879" cx="31.75" cy="-49.212509" r="1.5875001"/>
      <circle r="1.5875001" cy="9.5250502" cx="76.993721" id="circle6899" style="opacity:1;fill:#808080;fill-opacity:1;stroke:none;stroke-width:0.1763889;stroke-linecap:butt;stroke-linejoin:miter;stroke-miterlimit:38.37685394;stroke-dasharray:none;stroke-dashoffset:0;stroke-opacity:1;paint-order:markers fill stroke"/>
      <circle r="4.7625003" cy="4.7624922" cx="53.975002" id="circle6919" style="opacity:1;fill:#808080;fill-opacity:1;stroke:none;stroke-width:0.1763889;stroke-linecap:butt;stroke-linejoin:miter;stroke-miterlimit:38.37685394;stroke-dasharray:none;stroke-dashoffset:0;stroke-opacity:1;paint-order:markers fill stroke"/>
    </g>
    </g></svg>
