<?xml version='1.0' encoding='UTF-8'?>
<!-- Created with Inkscape (http://www.inkscape.org/) and export_objects.py -->
<svg xmlns:cc="http://creativecommons.org/ns#" xmlns:dc="http://purl.org/dc/elements/1.1/" xmlns:inkscape="http://www.inkscape.org/namespaces/inkscape" xmlns:rdf="http://www.w3.org/1999/02/22-rdf-syntax-ns#" xmlns:sodipodi="http://sodipodi.sourceforge.net/DTD/sodipodi-0.dtd" xmlns:xlink="http://www.w3.org/1999/xlink" xmlns="http://www.w3.org/2000/svg" version="1.1" width="2.25in" height="3.5in" viewBox="0 0 57.15 88.9" id="svg8" sodipodi:docname="triangle-3.svg" inkscape:version="0.92.3 (2405546, 2018-03-11)"><sodipodi:namedview id="base" pagecolor="#ffffff" bordercolor="#666666" borderopacity="1.0" inkscape:pageopacity="0.0" inkscape:pageshadow="2" inkscape:zoom="0.42916667" inkscape:cx="1600.029" inkscape:cy="840" inkscape:document-units="in" inkscape:current-layer="layer10" showgrid="false" units="in" inkscape:measure-start="96,426" inkscape:measure-end="132,426" inkscape:snap-bbox="false" inkscape:snap-nodes="true" inkscape:snap-others="true" inkscape:bbox-nodes="true" inkscape:snap-bbox-edge-midpoints="true" inkscape:snap-text-baseline="true" inkscape:snap-center="true" inkscape:snap-object-midpoints="true" showguides="true" inkscape:snap-smooth-nodes="false" inkscape:snap-bbox-midpoints="true" inkscape:window-width="1920" inkscape:window-height="986" inkscape:window-x="-11" inkscape:window-y="-11" inkscape:window-maximized="1" inkscape:object-nodes="true" inkscape:guide-bbox="true" inkscape:snap-intersection-paths="false" fit-margin-top="0" fit-margin-left="0" fit-margin-right="0" fit-margin-bottom="0">
    <inkscape:grid type="xygrid" id="grid10" units="pt" spacingx="0.79375002" spacingy="0.79375002" originx="-25.4" originy="-25.39999"/>
  </sodipodi:namedview>
  <metadata id="metadata5">
    <rdf:RDF>
      <cc:Work rdf:about="">
        <dc:format>image/svg+xml</dc:format>
        <dc:type rdf:resource="http://purl.org/dc/dcmitype/StillImage"/>
        <dc:title/>
      </cc:Work>
    </rdf:RDF>
  </metadata>
  <g inkscape:groupmode="layer" inkscape:label="triangle-" transform="matrix(1.000000,0.000000,0.000000,1.000000,-171.450003,-177.799995)"><g transform="translate(-25.400002,254)" style="display:inline" id="g1267" inkscape:label="3">
      <rect y="-76.200005" x="196.85001" height="88.900002" width="57.150002" id="rect6445" style="display:inline;opacity:1;fill:#ffffff;fill-opacity:1;stroke:none;stroke-width:0.1763889;stroke-linecap:butt;stroke-linejoin:miter;stroke-miterlimit:38.37685394;stroke-dasharray:none;stroke-dashoffset:0;stroke-opacity:1;paint-order:markers fill stroke"/>
      <g id="text6473" style="font-style:normal;font-variant:normal;font-weight:normal;font-stretch:normal;font-size:11.28888988px;line-height:125%;font-family:Paddington;-inkscape-font-specification:'Paddington, Normal';font-variant-ligatures:normal;font-variant-caps:normal;font-variant-numeric:normal;font-feature-settings:normal;text-align:center;letter-spacing:0px;word-spacing:0px;writing-mode:lr-tb;text-anchor:middle;display:inline;fill:#2c6f00;fill-opacity:1;stroke:none;stroke-width:0.26458335" aria-label="3">
        <path id="path8348" style="font-size:16.93333435px;fill:#2c6f00;fill-opacity:1;stroke:none;stroke-width:0.26458335" d="m 207.11515,-74.438949 -2.42146,4.233333 q 0.99906,0.3556 1.59173,1.388534 0.5588,0.931333 0.5588,1.9812 0,1.507067 -1.13453,2.4892 -1.13454,0.9652 -2.72627,0.9652 -0.62653,0 -1.1684,-0.186267 -0.69427,-0.237066 -1.3208,-0.728133 -0.79587,-0.6096 -0.93133,-1.253067 l 1.27,-1.337733 h 0.1016 q 0.8636,1.659467 2.1844,1.659467 0.64346,0 1.13453,-0.4572 0.49107,-0.4572 0.49107,-1.1176 0,-1.168401 -0.8128,-1.659467 -0.7112,-0.423334 -2.1844,-0.423334 l 2.21826,-3.826933 h -4.25026 v -1.7272 z" inkscape:connector-curvature="0"/>
      </g>
      <g id="text6513" style="font-style:normal;font-variant:normal;font-weight:normal;font-stretch:normal;font-size:11.28888988px;line-height:125%;font-family:Paddington;-inkscape-font-specification:'Paddington, Normal';font-variant-ligatures:normal;font-variant-caps:normal;font-variant-numeric:normal;font-feature-settings:normal;text-align:center;letter-spacing:0px;word-spacing:0px;writing-mode:lr-tb;text-anchor:middle;display:inline;fill:#2c6f00;fill-opacity:1;stroke:none;stroke-width:0.26458335" aria-label="3">
        <path id="path8318" style="font-size:16.93333435px;fill:#2c6f00;fill-opacity:1;stroke:none;stroke-width:0.26458335" d="m 252.35888,-15.70139 -2.42146,4.233334 q 0.99906,0.3556 1.59173,1.388533 0.5588,0.9313335 0.5588,1.9812002 0,1.5070667 -1.13453,2.4892001 -1.13454,0.9652001 -2.72627,0.9652001 -0.62653,0 -1.1684,-0.1862667 -0.69427,-0.2370667 -1.3208,-0.7281334 -0.79587,-0.6096 -0.93133,-1.2530667 l 1.27,-1.3377334 h 0.1016 q 0.8636,1.6594668 2.1844,1.6594668 0.64346,0 1.13453,-0.4572001 0.49107,-0.4572 0.49107,-1.1176 0,-1.1684001 -0.8128,-1.6594668 -0.7112,-0.4233331 -2.1844,-0.4233331 l 2.21826,-3.826934 h -4.25026 v -1.7272 z" inkscape:connector-curvature="0"/>
      </g>
      <g id="text6553" style="font-style:normal;font-variant:normal;font-weight:normal;font-stretch:normal;font-size:33.8666687px;line-height:125%;font-family:Paddington;-inkscape-font-specification:'Paddington, Normal';font-variant-ligatures:normal;font-variant-caps:normal;font-variant-numeric:normal;font-feature-settings:normal;text-align:center;letter-spacing:0px;word-spacing:0px;writing-mode:lr-tb;text-anchor:middle;display:inline;fill:#2c6f00;fill-opacity:1;stroke:none;stroke-width:0.26458335" aria-label="3">
        <path id="path8288" style="font-size:50.80000305px;fill:#2c6f00;fill-opacity:1;stroke:none;stroke-width:0.26458335" d="m 237.17052,-70.916823 -7.2644,12.7 q 2.9972,1.0668 4.7752,4.165601 1.6764,2.794 1.6764,5.9436 0,4.5212 -3.4036,7.4676 -3.4036,2.895601 -8.1788,2.895601 -1.8796,0 -3.5052,-0.5588 -2.0828,-0.7112 -3.9624,-2.184401 -2.3876,-1.8288 -2.794,-3.7592 l 3.81,-4.0132 h 0.3048 q 2.5908,4.9784 6.5532,4.9784 1.9304,0 3.4036,-1.3716 1.4732,-1.3716 1.4732,-3.3528 0,-3.5052 -2.4384,-4.9784 -2.1336,-1.27 -6.5532,-1.27 l 6.6548,-11.480801 h -12.7508 v -5.1816 z" inkscape:connector-curvature="0"/>
      </g>
      <path sodipodi:nodetypes="scscscs" inkscape:connector-curvature="0" id="path6705" d="m 203.19999,-52.387539 c -1.64447,0 -3.28898,-0.42538 -4.76249,-1.27612 0,-1.70147 0.45387,-3.33834 1.27611,-4.7625 0.82224,-1.42416 2.01288,-2.63567 3.48638,-3.48638 1.47352,0.85071 2.66416,2.06222 3.4864,3.48638 0.82224,1.42416 1.2761,3.06103 1.2761,4.7625 -1.4735,0.85074 -3.11802,1.27612 -4.7625,1.27612 z" style="display:inline;opacity:1;fill:#2c6f00;fill-opacity:1;stroke:none;stroke-width:0.35277781;stroke-linecap:butt;stroke-linejoin:miter;stroke-miterlimit:4;stroke-dasharray:none;stroke-dashoffset:0;stroke-opacity:1;paint-order:fill markers stroke"/>
      <path style="display:inline;opacity:1;fill:#2c6f00;fill-opacity:1;stroke:none;stroke-width:0.35277781;stroke-linecap:butt;stroke-linejoin:miter;stroke-miterlimit:4;stroke-dasharray:none;stroke-dashoffset:0;stroke-opacity:1;paint-order:fill markers stroke" d="m 248.4437,6.3500508 c -1.64447,0 -3.28898,-0.42538 -4.76249,-1.27612 0,-1.70147 0.45387,-3.33834 1.27611,-4.76250002 0.82224,-1.42415998 2.01288,-2.63566998 3.48638,-3.48637998 1.47352,0.85071 2.66416,2.06222 3.4864,3.48637998 0.82224,1.42416002 1.2761,3.06103002 1.2761,4.76250002 -1.4735,0.85074 -3.11802,1.27612 -4.7625,1.27612 z" id="path6725" inkscape:connector-curvature="0" sodipodi:nodetypes="scscscs"/>
      <path style="display:inline;opacity:1;fill:#2c6f00;fill-opacity:1;stroke:none;stroke-width:0.35277781;stroke-linecap:butt;stroke-linejoin:miter;stroke-miterlimit:4;stroke-dasharray:none;stroke-dashoffset:0;stroke-opacity:1;paint-order:fill markers stroke" d="m 225.42503,-4.7625892 c -4.93341,0 -9.86694,-1.27614 -14.28747,-3.82836 0,-5.1044098 1.36161,-10.0150198 3.82833,-14.2874998 2.46672,-4.27248 6.03864,-7.90701 10.45914,-10.45914 4.42056,2.55213 7.99248,6.18666 10.4592,10.45914 2.46672,4.27248 3.8283,9.18309 3.8283,14.2874998 -4.4205,2.55222 -9.35406,3.82836 -14.2875,3.82836 z" id="path6745" inkscape:connector-curvature="0" sodipodi:nodetypes="scscscs"/>
      <circle style="opacity:1;fill:#808080;fill-opacity:1;stroke:none;stroke-width:0.1763889;stroke-linecap:butt;stroke-linejoin:miter;stroke-miterlimit:38.37685394;stroke-dasharray:none;stroke-dashoffset:0;stroke-opacity:1;paint-order:markers fill stroke" id="circle6883" cx="203.19998" cy="-49.21254" r="1.5875001"/>
      <circle r="1.5875001" cy="9.5250196" cx="248.44371" id="circle6903" style="opacity:1;fill:#808080;fill-opacity:1;stroke:none;stroke-width:0.1763889;stroke-linecap:butt;stroke-linejoin:miter;stroke-miterlimit:38.37685394;stroke-dasharray:none;stroke-dashoffset:0;stroke-opacity:1;paint-order:markers fill stroke"/>
      <circle r="4.7625003" cy="4.7624006" cx="225.425" id="circle6923" style="opacity:1;fill:#808080;fill-opacity:1;stroke:none;stroke-width:0.1763889;stroke-linecap:butt;stroke-linejoin:miter;stroke-miterlimit:38.37685394;stroke-dasharray:none;stroke-dashoffset:0;stroke-opacity:1;paint-order:markers fill stroke"/>
    </g>
    </g></svg>
