<?xml version='1.0' encoding='UTF-8'?>
<!-- Created with Inkscape (http://www.inkscape.org/) and export_objects.py -->
<svg xmlns:cc="http://creativecommons.org/ns#" xmlns:dc="http://purl.org/dc/elements/1.1/" xmlns:inkscape="http://www.inkscape.org/namespaces/inkscape" xmlns:rdf="http://www.w3.org/1999/02/22-rdf-syntax-ns#" xmlns:sodipodi="http://sodipodi.sourceforge.net/DTD/sodipodi-0.dtd" xmlns:xlink="http://www.w3.org/1999/xlink" xmlns="http://www.w3.org/2000/svg" version="1.1" width="2.25in" height="3.5in" viewBox="0 0 57.15 88.9" id="svg8" sodipodi:docname="triangle-9.svg" inkscape:version="0.92.3 (2405546, 2018-03-11)"><sodipodi:namedview id="base" pagecolor="#ffffff" bordercolor="#666666" borderopacity="1.0" inkscape:pageopacity="0.0" inkscape:pageshadow="2" inkscape:zoom="0.42916667" inkscape:cx="1600.029" inkscape:cy="840" inkscape:document-units="in" inkscape:current-layer="layer10" showgrid="false" units="in" inkscape:measure-start="96,426" inkscape:measure-end="132,426" inkscape:snap-bbox="false" inkscape:snap-nodes="true" inkscape:snap-others="true" inkscape:bbox-nodes="true" inkscape:snap-bbox-edge-midpoints="true" inkscape:snap-text-baseline="true" inkscape:snap-center="true" inkscape:snap-object-midpoints="true" showguides="true" inkscape:snap-smooth-nodes="false" inkscape:snap-bbox-midpoints="true" inkscape:window-width="1920" inkscape:window-height="986" inkscape:window-x="-11" inkscape:window-y="-11" inkscape:window-maximized="1" inkscape:object-nodes="true" inkscape:guide-bbox="true" inkscape:snap-intersection-paths="false" fit-margin-top="0" fit-margin-left="0" fit-margin-right="0" fit-margin-bottom="0">
    <inkscape:grid type="xygrid" id="grid10" units="pt" spacingx="0.79375002" spacingy="0.79375002" originx="-25.4" originy="-25.39999"/>
  </sodipodi:namedview>
  <metadata id="metadata5">
    <rdf:RDF>
      <cc:Work rdf:about="">
        <dc:format>image/svg+xml</dc:format>
        <dc:type rdf:resource="http://purl.org/dc/dcmitype/StillImage"/>
        <dc:title/>
      </cc:Work>
    </rdf:RDF>
  </metadata>
  <g inkscape:groupmode="layer" inkscape:label="triangle-" transform="matrix(1.000000,0.000000,0.000000,1.000000,-514.350053,-177.799995)"><g transform="translate(-25.400002,254)" style="display:inline" id="g1507" inkscape:label="9">
      <rect style="display:inline;opacity:1;fill:#ffffff;fill-opacity:1;stroke:none;stroke-width:0.1763889;stroke-linecap:butt;stroke-linejoin:miter;stroke-miterlimit:38.37685394;stroke-dasharray:none;stroke-dashoffset:0;stroke-opacity:1;paint-order:markers fill stroke" id="rect6457" width="57.150002" height="88.900002" x="539.75006" y="-76.200005"/>
      <g id="text6497" style="font-style:normal;font-variant:normal;font-weight:normal;font-stretch:normal;font-size:11.28888988px;line-height:125%;font-family:Paddington;-inkscape-font-specification:'Paddington, Normal';font-variant-ligatures:normal;font-variant-caps:normal;font-variant-numeric:normal;font-feature-settings:normal;text-align:center;letter-spacing:0px;word-spacing:0px;writing-mode:lr-tb;text-anchor:middle;display:inline;fill:#2c6f00;fill-opacity:1;stroke:none;stroke-width:0.26458335" aria-label="9">
        <path id="path8330" style="font-size:16.93333435px;fill:#2c6f00;fill-opacity:1;stroke:none;stroke-width:0.26458335" d="m 549.79547,-70.239482 q 0,1.9304 -1.13453,3.793067 -1.0668,1.761066 -2.794,2.9464 h -2.60773 q 3.2512,-2.3368 4.1148,-4.572001 -0.9652,0.4064 -1.60867,0.4064 -1.49013,0 -2.52307,-0.982133 -1.016,-0.982133 -1.016,-2.3876 0,-1.524 1.15147,-2.54 1.1684,-1.032934 2.794,-1.032934 1.74413,0 2.76013,1.439334 0.8636,1.236133 0.8636,2.929467 z m -1.89653,-0.0508 q -0.0339,-1.016 -0.47413,-1.744134 -0.52494,-0.829733 -1.3716,-0.829733 -0.72814,0 -1.3208,0.474133 -0.59267,0.474134 -0.59267,1.202267 0,0.7112 0.49107,1.253067 0.49106,0.541866 1.13453,0.541866 0.6604,0 1.13453,-0.220133 0.4064,-0.169333 0.99907,-0.677333 z" inkscape:connector-curvature="0"/>
      </g>
      <g id="text6537" style="font-style:normal;font-variant:normal;font-weight:normal;font-stretch:normal;font-size:11.28888988px;line-height:125%;font-family:Paddington;-inkscape-font-specification:'Paddington, Normal';font-variant-ligatures:normal;font-variant-caps:normal;font-variant-numeric:normal;font-feature-settings:normal;text-align:center;letter-spacing:0px;word-spacing:0px;writing-mode:lr-tb;text-anchor:middle;display:inline;fill:#2c6f00;fill-opacity:1;stroke:none;stroke-width:0.26458335" aria-label="9">
        <path id="path8300" style="font-size:16.93333435px;fill:#2c6f00;fill-opacity:1;stroke:none;stroke-width:0.26458335" d="m 595.03919,-11.501923 q 0,1.9304001 -1.13454,3.7930669 -1.0668,1.7610668 -2.794,2.9464002 h -2.60773 q 3.2512,-2.3368002 4.1148,-4.5720003 -0.9652,0.4064 -1.60867,0.4064 -1.49013,0 -2.52306,-0.9821334 -1.016,-0.9821334 -1.016,-2.3876004 0,-1.524 1.15146,-2.54 1.1684,-1.032933 2.794,-1.032933 1.74414,0 2.76014,1.439333 0.8636,1.236134 0.8636,2.929467 z m -1.89654,-0.0508 q -0.0339,-1.016 -0.47413,-1.744133 -0.52493,-0.829734 -1.3716,-0.829734 -0.72813,0 -1.3208,0.474134 -0.59267,0.474133 -0.59267,1.202266 0,0.7112 0.49107,1.253067 0.49107,0.541867 1.13453,0.541867 0.6604,0 1.13454,-0.220134 0.4064,-0.169333 0.99906,-0.677333 z" inkscape:connector-curvature="0"/>
      </g>
      <g id="text6577" style="font-style:normal;font-variant:normal;font-weight:normal;font-stretch:normal;font-size:33.8666687px;line-height:125%;font-family:Paddington;-inkscape-font-specification:'Paddington, Normal';font-variant-ligatures:normal;font-variant-caps:normal;font-variant-numeric:normal;font-feature-settings:normal;text-align:center;letter-spacing:0px;word-spacing:0px;writing-mode:lr-tb;text-anchor:middle;display:inline;fill:#2c6f00;fill-opacity:1;stroke:none;stroke-width:0.26458335" aria-label="9">
        <path id="path8270" style="font-size:50.80000305px;fill:#2c6f00;fill-opacity:1;stroke:none;stroke-width:0.26458335" d="m 579.41132,-58.318423 q 0,5.791201 -3.4036,11.379201 -3.2004,5.2832 -8.382,8.839201 h -7.8232 q 9.7536,-7.010401 12.3444,-13.716001 -2.8956,1.2192 -4.826,1.2192 -4.4704,0 -7.5692,-2.9464 -3.048,-2.9464 -3.048,-7.162801 0,-4.572 3.4544,-7.62 3.5052,-3.0988 8.382,-3.0988 5.2324,0 8.2804,4.318 2.5908,3.7084 2.5908,8.7884 z m -5.6896,-0.1524 q -0.1016,-3.048 -1.4224,-5.2324 -1.5748,-2.4892 -4.1148,-2.4892 -2.1844,0 -3.9624,1.4224 -1.778,1.4224 -1.778,3.6068 0,2.1336 1.4732,3.7592 1.4732,1.625601 3.4036,1.625601 1.9812,0 3.4036,-0.6604 1.2192,-0.508 2.9972,-2.032001 z" inkscape:connector-curvature="0"/>
      </g>
      <path style="display:inline;opacity:1;fill:#2c6f00;fill-opacity:1;stroke:none;stroke-width:0.35277781;stroke-linecap:butt;stroke-linejoin:miter;stroke-miterlimit:4;stroke-dasharray:none;stroke-dashoffset:0;stroke-opacity:1;paint-order:fill markers stroke" d="m 546.1,-52.387569 c -1.64447,0 -3.28898,-0.42538 -4.76249,-1.27612 0,-1.70147 0.45387,-3.33834 1.27611,-4.7625 0.82224,-1.42416 2.01288,-2.63567 3.48638,-3.48638 1.47352,0.85071 2.66416,2.06222 3.4864,3.48638 0.82224,1.42416 1.2761,3.06103 1.2761,4.7625 -1.4735,0.85074 -3.11802,1.27612 -4.7625,1.27612 z" id="path6717" inkscape:connector-curvature="0" sodipodi:nodetypes="scscscs"/>
      <path sodipodi:nodetypes="scscscs" inkscape:connector-curvature="0" id="path6737" d="m 591.34371,6.3500208 c -1.64447,0 -3.28898,-0.42538 -4.76249,-1.27612 0,-1.70147 0.45387,-3.33834 1.27611,-4.76250002 0.82224,-1.42415998 2.01288,-2.63566998 3.48638,-3.48637998 1.47352,0.85071 2.66416,2.06222 3.4864,3.48637998 0.82224,1.42416002 1.2761,3.06103002 1.2761,4.76250002 -1.4735,0.85074 -3.11802,1.27612 -4.7625,1.27612 z" style="display:inline;opacity:1;fill:#2c6f00;fill-opacity:1;stroke:none;stroke-width:0.35277781;stroke-linecap:butt;stroke-linejoin:miter;stroke-miterlimit:4;stroke-dasharray:none;stroke-dashoffset:0;stroke-opacity:1;paint-order:fill markers stroke"/>
      <path sodipodi:nodetypes="scscscs" inkscape:connector-curvature="0" id="path6757" d="m 568.32497,-4.7626792 c -4.93341,0 -9.86694,-1.27614 -14.28747,-3.82836 0,-5.1044098 1.36161,-10.0150198 3.82833,-14.2874998 2.46672,-4.27248 6.03864,-7.90701 10.45914,-10.45914 4.42056,2.55213 7.99248,6.18666 10.4592,10.45914 2.46672,4.27248 3.8283,9.18309 3.8283,14.2874998 -4.4205,2.55222 -9.35406,3.82836 -14.2875,3.82836 z" style="display:inline;opacity:1;fill:#2c6f00;fill-opacity:1;stroke:none;stroke-width:0.35277781;stroke-linecap:butt;stroke-linejoin:miter;stroke-miterlimit:4;stroke-dasharray:none;stroke-dashoffset:0;stroke-opacity:1;paint-order:fill markers stroke"/>
    </g>
    </g></svg>
